<?xml version="1.0" encoding="UTF-8"?>
<svg width="1000px" height="1000px" viewBox="0 0 1000 1000" version="1.1" xmlns="http://www.w3.org/2000/svg">
    <g stroke="none" stroke-width="1" fill="none" fill-rule="evenodd">
        <circle fill="#ffffff" cx="500" cy="500" r="500"></circle>
        <path d="M226,494 C372,431 465,389 505,369 C622,309 648,300 666,300 C671,300 683,301 690,307 C696,312 698,319 699,324 C700,329 701,341 700,350 C691,440 650,639 629,731 C619,771 600,784 581,785 C539,788 507,756 466,729 C401,687 367,661 304,620 C231,573 278,547 319,504 C330,492 517,323 521,307 C522,305 522,300 519,298 C516,296 512,297 509,298 C505,299 421,355 258,467 C230,487 205,496 184,496 C160,496 115,482 82,471 C41,457 9,449 12,426 C14,414 30,402 58,390 L226,494" fill="#0088cc"></path>
    </g>
</svg>
