<?xml version="1.0" encoding="UTF-8"?>
<svg version="1.1" xmlns="http://www.w3.org/2000/svg" width="657" height="657">
<path d="M0 0 C0.98531204 -0.00701431 1.97062408 -0.01402863 2.98579407 -0.02125549 C6.14292026 -0.03864392 9.29985895 -0.04510649 12.45703125 -0.046875 C13.53533203 -0.04754974 14.61363281 -0.04822449 15.72460938 -0.04891968 C31.12871406 -0.03358094 46.10021421 0.28714176 61.26953125 3.203125 C62.24067871 3.38004883 63.21182617 3.55697266 64.21240234 3.73925781 C78.46647894 6.36554591 92.46079067 9.79901705 106.26953125 14.203125 C107.1212793 14.47431152 107.97302734 14.74549805 108.85058594 15.02490234 C143.71915087 26.37913441 175.97607864 45.01866155 204.26953125 68.203125 C205.11547852 68.89245117 205.11547852 68.89245117 205.97851562 69.59570312 C219.68206948 80.83042972 232.40480573 93.18283581 243.26953125 107.203125 C244.12118003 108.24425224 244.97548667 109.28320934 245.83203125 110.3203125 C294.89613616 170.29048594 311.0639367 255.24134445 304.14453125 330.953125 C297.37382436 397.02935491 266.06693354 465.39596462 214.19140625 508.58984375 C211.99903717 510.43018608 209.92678742 512.37747119 207.83203125 514.328125 C164.60920909 553.24192348 108.50934028 577.12679433 51.26953125 585.203125 C50.46580078 585.32026855 49.66207031 585.43741211 48.83398438 585.55810547 C-26.31259812 596.01584948 -105.98165419 574.19781994 -166.41796875 528.890625 C-168.87182091 527.01515258 -171.30481839 525.11486638 -173.73046875 523.203125 C-175.16519531 522.08744141 -175.16519531 522.08744141 -176.62890625 520.94921875 C-204.85231147 498.47809114 -228.01117704 470.56054596 -245.73046875 439.203125 C-246.15295898 438.460625 -246.57544922 437.718125 -247.01074219 436.953125 C-285.47821188 368.61646591 -292.05438909 285.47101702 -271.16870117 210.51782227 C-269.76915791 205.71988988 -268.26021783 200.96080092 -266.73046875 196.203125 C-266.47749023 195.37941406 -266.22451172 194.55570313 -265.96386719 193.70703125 C-257.26137835 165.40961037 -242.48493171 138.78263241 -224.73046875 115.203125 C-224.29766602 114.6261084 -223.86486328 114.0490918 -223.41894531 113.45458984 C-209.2304895 94.65929064 -192.49001358 76.46037907 -173.73046875 62.203125 C-172.5672605 61.28832957 -171.40453276 60.37292294 -170.2421875 59.45703125 C-122.55909227 22.3402849 -60.55268688 0.29026667 0 0 Z M-189.73046875 113.203125 C-192.96004093 116.70226867 -195.87449152 120.3934734 -198.73046875 124.203125 C-199.77973135 125.55094987 -200.82923216 126.89858932 -201.87890625 128.24609375 C-211.34059784 140.56434543 -219.30926587 153.56909807 -226.73046875 167.203125 C-227.16198242 167.99058105 -227.59349609 168.77803711 -228.03808594 169.58935547 C-243.74236446 198.80345644 -251.92223121 233.50119528 -255.73046875 266.203125 C-255.82473145 267.00878906 -255.91899414 267.81445312 -256.01611328 268.64453125 C-256.86724169 276.81780014 -256.97369904 284.99341346 -256.98046875 293.203125 C-256.98114349 293.94512146 -256.98181824 294.68711792 -256.98251343 295.45159912 C-256.92228463 337.54758705 -247.53380686 380.01686316 -227.71728516 417.33105469 C-226.73380049 419.19680442 -225.78227019 421.07611331 -224.8359375 422.9609375 C-215.96470739 440.41238863 -204.05739753 456.55600006 -190.8125 470.9375 C-188.90606435 473.01204536 -187.06281265 475.12578431 -185.23046875 477.265625 C-178.87909898 484.5201712 -172.04678301 490.95909535 -164.51171875 496.97265625 C-162.75880053 498.37843757 -161.026155 499.8102526 -159.32421875 501.27734375 C-144.96668734 513.56757238 -128.50119112 523.57147509 -111.73046875 532.203125 C-110.71968262 532.72398682 -110.71968262 532.72398682 -109.68847656 533.25537109 C-81.14257598 547.74992954 -50.3943657 556.10732648 -18.73046875 560.203125 C-17.98949951 560.30625 -17.24853027 560.409375 -16.48510742 560.515625 C-7.43407306 561.61713087 1.72864142 561.44708623 10.83203125 561.453125 C12.20171051 561.45413712 12.20171051 561.45413712 13.59906006 561.45516968 C28.34453486 561.43789424 42.7195567 560.77000421 57.26953125 558.203125 C58.17026367 558.05278809 59.07099609 557.90245117 59.99902344 557.74755859 C110.24130196 549.09841411 157.30572321 524.67158075 194.79296875 490.45703125 C196.4720533 488.9289054 198.16533948 487.41626642 199.87109375 485.91796875 C204.40509048 481.9250381 208.62105876 477.89308301 212.51171875 473.26953125 C214.42900465 471.01565516 216.44015326 468.86819653 218.45703125 466.703125 C250.77857332 430.71117052 270.0667013 385.70578853 277.26953125 338.203125 C277.388125 337.45611328 277.50671875 336.70910156 277.62890625 335.93945312 C281.80300411 308.48482138 280.62374914 278.53269929 276.26953125 251.203125 C276.10324219 250.14593262 275.93695312 249.08874023 275.765625 247.99951172 C267.90724355 199.7505049 249.84652194 154.01857439 217.26953125 117.203125 C216.51027344 116.33300781 215.75101563 115.46289062 214.96875 114.56640625 C206.12943467 104.56526262 196.79278596 95.41864842 186.26953125 87.203125 C185.66399414 86.72117676 185.05845703 86.23922852 184.43457031 85.74267578 C105.36890624 22.84686121 -5.71374477 6.6127641 -189.73046875 113.203125 Z " fill="#000000" transform="translate(316.73046875,34.796875)"/>
<path d="M0 0 C3.40877281 2.1967647 5.81701818 4.5962749 8 8 C9.54280351 16.77987968 6.87803303 26.05026946 5.10205078 34.63989258 C4.78959501 36.19219704 4.47819249 37.74471381 4.16775131 39.29742241 C3.49829737 42.63691834 2.82274132 45.97509692 2.14236069 49.31238365 C0.47558784 57.49229184 -1.15618166 65.6792273 -2.79154849 73.86546052 C-3.36748741 76.74712273 -3.94459077 79.62855025 -4.52173805 82.50997066 C-8.47804906 102.28581937 -12.27208172 122.09191287 -16.03888798 141.90459967 C-16.57110792 144.70340164 -17.10389112 147.50209581 -17.63686371 150.30075455 C-19.59747919 160.59634112 -21.55520716 170.89247378 -23.51078486 181.18901837 C-26.40663182 196.43627934 -29.30602894 211.68286488 -32.20810688 226.92894107 C-33.05413753 231.37410129 -33.89951617 235.81938326 -34.74319839 240.26498985 C-36.3974711 248.98134169 -38.0580737 257.69637448 -39.73710287 266.40799528 C-40.58552308 270.81695086 -41.41778249 275.22859101 -42.23794615 279.64288706 C-42.76003935 282.43947377 -43.29323757 285.23386513 -43.82909751 288.02784312 C-44.19014371 289.92955773 -44.53734106 291.83388547 -44.88403511 293.73826885 C-46.04535253 299.73517315 -47.07687878 304.25815439 -51 309 C-51.4125 309.598125 -51.825 310.19625 -52.25 310.8125 C-55.30674992 312.88672316 -58.41290243 313.18301518 -62 313 C-67.71328983 311.65680935 -72.31173095 308.91700288 -76.96484375 305.4140625 C-82.81275025 301.09624814 -88.81932469 297.05450808 -94.88116455 293.04797363 C-98.15635546 290.88276855 -101.42587844 288.70904079 -104.6953125 286.53515625 C-105.71115921 285.85989395 -105.71115921 285.85989395 -106.74752808 285.17098999 C-115.68499984 279.22290981 -124.56397654 273.18837355 -133.44433594 267.15551758 C-134.66336479 266.327568 -135.88243923 265.49968555 -137.1015625 264.671875 C-137.68168091 264.27796066 -138.26179932 263.88404633 -138.85949707 263.47819519 C-144.5506042 259.61841925 -150.2711044 255.80342712 -156 252 C-162.94369868 256.20882494 -169.4926221 260.77551893 -176 265.625 C-182.74889748 270.64817679 -189.56326258 275.55149695 -196.5 280.3125 C-197.30695313 280.86953613 -198.11390625 281.42657227 -198.9453125 282.00048828 C-199.69554687 282.51208496 -200.44578125 283.02368164 -201.21875 283.55078125 C-201.87810547 284.00106689 -202.53746094 284.45135254 -203.21679688 284.9152832 C-207.54462802 287.54788914 -212.10030351 287.77578528 -217 287 C-220.31792283 285.68994714 -221.96619749 283.90209228 -224 281 C-224.91813398 278.57329743 -225.7122647 276.2261717 -226.43530273 273.74389648 C-226.64790709 273.0383409 -226.86051146 272.33278532 -227.07955837 271.60584927 C-229.09936397 264.83203776 -230.94725027 258.01219797 -232.73991585 251.17527962 C-233.30450341 249.02393444 -233.87442572 246.87406049 -234.44566345 244.72447205 C-236.06535723 238.62678166 -237.67763567 232.52715492 -239.2824707 226.42553711 C-240.27388021 222.65766538 -241.27266295 218.89181009 -242.27590752 215.12707329 C-242.65223756 213.70901706 -243.02580367 212.29022398 -243.39637947 210.87065315 C-246.24437007 197.57904986 -246.24437007 197.57904986 -253.6027832 186.69750977 C-258.09259981 184.45405343 -262.66111603 182.60929188 -267.35546875 180.83984375 C-268.36266464 180.45326599 -269.36986053 180.06668823 -270.40757751 179.668396 C-272.5561349 178.84435286 -274.70589617 178.02344293 -276.85675049 177.20541382 C-281.31666087 175.50766321 -285.76900703 173.79051659 -290.22174072 172.0740509 C-293.49376437 170.81282975 -296.76658032 169.55368364 -300.03955078 168.29492188 C-307.41398191 165.45668293 -314.78307804 162.60887914 -322.125 159.6875 C-323.68190552 159.08699829 -323.68190552 159.08699829 -325.27026367 158.47436523 C-331.55674642 155.94851276 -337.59932445 153.06101698 -341.16455078 147.0300293 C-342.44911941 143.90870022 -342.29258619 141.33548252 -342 138 C-338.56573037 129.98670419 -331.27256956 126.99461401 -323.67773438 123.88085938 C-322.48470703 123.40455078 -321.29167969 122.92824219 -320.0625 122.4375 C-318.96615234 121.98826172 -317.86980469 121.53902344 -316.74023438 121.07617188 C-310.50299926 118.54112541 -304.23713825 116.08608432 -297.95141602 113.67382812 C-281.18436065 107.23547856 -264.49376917 100.62040331 -247.83203125 93.9140625 C-246.7057966 93.46079401 -245.57956196 93.00752552 -244.41919899 92.54052162 C-235.0334397 88.76214944 -225.6497224 84.97871547 -216.26611328 81.19500732 C-208.12238168 77.91146666 -199.97786283 74.62989033 -191.83203125 71.3515625 C-190.69407419 70.89354437 -189.55611713 70.43552624 -188.38367653 69.96362877 C-174.28339991 64.29147613 -160.15890541 58.69343234 -145.97900772 53.22365379 C-131.80087229 47.74958073 -117.70085899 42.08563535 -103.60546875 36.40234375 C-102.45070856 35.93691162 -101.29594837 35.47147949 -100.10619545 34.99194336 C-89.35856581 30.659557 -78.61292269 26.32225932 -67.86938477 21.97973633 C-61.9160785 19.57368568 -55.96100442 17.17205547 -50.00484657 14.7730732 C-47.76973078 13.87180855 -45.53528283 12.96888557 -43.30156517 12.0641613 C-7.60361816 -2.39373164 -7.60361816 -2.39373164 0 0 Z M-80.4453125 57.8125 C-81.24276886 58.12371796 -82.04022522 58.43493591 -82.86184692 58.75558472 C-85.61781875 59.83304923 -88.37148506 60.91627311 -91.125 62 C-92.11012573 62.38657776 -93.09525146 62.77315552 -94.11022949 63.17144775 C-123.52334002 74.71566325 -152.83995834 86.50464298 -182.17001343 98.25775146 C-196.16858094 103.86707418 -210.16966967 109.47007719 -224.171875 115.0703125 C-225.21431618 115.48724239 -226.25675735 115.90417229 -227.33078766 116.33373642 C-232.51619292 118.40763782 -237.70163068 120.48145798 -242.88708496 122.55523682 C-251.74363622 126.09720826 -260.59992075 129.63984652 -269.4562149 133.18246078 C-273.64007005 134.85604231 -277.82394156 136.52958294 -282.0078125 138.203125 C-283.37906909 138.7516274 -284.75032561 139.30012998 -286.12158203 139.84863281 C-287.07145996 140.22858398 -288.02133789 140.60853516 -289 141 C-286.55346131 142.6310258 -284.70431891 143.59802001 -282.01025391 144.61645508 C-281.21156891 144.92049759 -280.41288391 145.2245401 -279.58999634 145.53779602 C-278.29634659 146.02375496 -278.29634659 146.02375496 -276.9765625 146.51953125 C-276.07940521 146.85997971 -275.18224792 147.20042816 -274.25790405 147.55119324 C-271.38159031 148.64182137 -268.50335692 149.72727709 -265.625 150.8125 C-263.72512755 151.53155007 -261.8253865 152.25094744 -259.92578125 152.97070312 C-258.99990204 153.32136841 -258.07402283 153.67203369 -257.12008667 154.0333252 C-255.28386285 154.72887955 -253.44770089 155.42459725 -251.61160278 156.1204834 C-247.69722227 157.603393 -243.78197906 159.08324719 -239.85888672 160.54296875 C-238.11889404 161.19652344 -238.11889404 161.19652344 -236.34375 161.86328125 C-235.36857422 162.22591064 -234.39339844 162.58854004 -233.38867188 162.9621582 C-228.05553028 165.27932755 -225.93733665 168.72253346 -223.77148438 173.90917969 C-222.32260136 177.83583606 -221.33316909 181.88257596 -220.3125 185.9375 C-219.97508789 187.24944336 -219.97508789 187.24944336 -219.63085938 188.58789062 C-219.08223208 190.72403521 -218.53874036 192.86134466 -218 195 C-214.91325457 195.32346192 -214.91325457 195.32346192 -212.85864258 193.18334961 C-211.63890747 191.93050171 -211.63890747 191.93050171 -210.39453125 190.65234375 C-209.49283203 189.73646484 -208.59113281 188.82058594 -207.66210938 187.87695312 C-206.71178873 186.89757269 -205.76192148 185.91775212 -204.8125 184.9375 C-199.35457842 179.34971885 -193.93624536 173.8417859 -187.99487305 168.76782227 C-183.97681166 165.20708521 -180.26436298 161.32478615 -176.5 157.5 C-167.5463451 148.40262672 -167.5463451 148.40262672 -163.03125 144.53125 C-158.08832335 140.28811954 -153.56893643 135.63816274 -149 131 C-143.81820006 125.73968794 -138.62939118 120.60749253 -133.0234375 115.80078125 C-129.00186948 112.22174099 -125.27483014 108.33542131 -121.5 104.5 C-116.49079531 99.41039074 -111.45977219 94.46995399 -106.04101562 89.81835938 C-102.01503106 86.23157312 -98.28078502 82.34147178 -94.5 78.5 C-89.40712898 73.32538145 -84.3172148 68.25799461 -78.7578125 63.58178711 C-75.85842765 60.97274344 -73.46372434 58.01806232 -71 55 C-74.35446349 55 -77.35708075 56.59646025 -80.4453125 57.8125 Z M-46.296875 71.26953125 C-48.49124786 73.47181651 -50.68016673 75.67894627 -52.859375 77.89624023 C-56.129836 81.20734972 -59.42289838 84.41873634 -62.953125 87.453125 C-67.54065863 91.4023149 -71.75822515 95.68583992 -76 100 C-84.42191957 108.56563834 -84.42191957 108.56563834 -88.96875 112.46875 C-93.73166514 116.56202757 -98.09714126 121.02646937 -102.5 125.5 C-107.51927509 130.59984131 -112.56045625 135.55183483 -117.99023438 140.21289062 C-121.8330919 143.63000884 -125.39608687 147.33458665 -129 151 C-137.42191957 159.56563834 -137.42191957 159.56563834 -141.96875 163.46875 C-146.73166514 167.56202757 -151.09714126 172.02646937 -155.5 176.5 C-160.61903779 181.70120533 -165.75980194 186.77122531 -171.29882812 191.52587891 C-173.28676044 193.2484873 -175.159548 195.05870525 -177 196.9375 C-177.5775 197.52402344 -178.155 198.11054688 -178.75 198.71484375 C-179.36875 199.35099609 -179.36875 199.35099609 -180 200 C-175.12118217 204.06739339 -169.90150468 207.63221714 -164.6875 211.25 C-163.66914063 211.95745361 -162.65078125 212.66490723 -161.6015625 213.39379883 C-153.64273041 218.90333696 -145.61123286 224.29648292 -137.54541016 229.64770508 C-129.18548659 235.19711471 -120.8673295 240.80606527 -112.5625 246.4375 C-111.91207733 246.87850037 -111.26165466 247.31950073 -110.59152222 247.77386475 C-97.71912166 256.50329723 -84.85713141 265.24809755 -72 274 C-71.34 273.67 -70.68 273.34 -70 273 C-69.32518396 270.40055204 -68.77975269 267.85912641 -68.2923584 265.22259521 C-68.13280214 264.39786846 -67.97324588 263.57314171 -67.80885458 262.72342324 C-67.27243984 259.93921395 -66.74860305 257.15278256 -66.22460938 254.36621094 C-65.8440708 252.37718722 -65.46277143 250.38830893 -65.08076477 248.39956665 C-64.04186359 242.9789275 -63.01386121 237.55627146 -61.98784065 232.13318157 C-60.91235658 226.45795196 -59.82738713 220.78453623 -58.74353027 215.11090088 C-56.92202093 205.56851965 -55.10700473 196.02492226 -53.29638672 186.48046875 C-50.97728488 174.25573964 -48.64813922 162.03294798 -46.31554413 149.8107872 C-44.30729721 139.28796527 -42.30316994 128.76435941 -40.29997444 118.24057484 C-39.65794712 114.8682892 -39.01546793 111.49608985 -38.37297058 108.12389374 C-37.35939454 102.80237361 -36.34838088 97.48037236 -35.3392849 92.15800095 C-34.97001663 90.21211781 -34.59999549 88.26637737 -34.22913551 86.32079697 C-32.30744558 76.23610937 -30.45170878 66.16514129 -29 56 C-33.60258838 56 -43.0068611 67.98024977 -46.296875 71.26953125 Z M-212 214 C-211.34887891 221.40994144 -209.42228272 228.34692169 -207.4375 235.5 C-207.10814453 236.70398438 -206.77878906 237.90796875 -206.43945312 239.1484375 C-205.63119406 242.10034018 -204.81792254 245.05076314 -204 248 C-200.44990559 248 -199.62288572 247.27430019 -196.8046875 245.2265625 C-196.00675781 244.6490625 -195.20882812 244.0715625 -194.38671875 243.4765625 C-193.55785156 242.86554688 -192.72898437 242.25453125 -191.875 241.625 C-191.03839844 241.02171875 -190.20179688 240.4184375 -189.33984375 239.796875 C-185.04770271 236.95543856 -185.04770271 236.95543856 -182 233 C-182.93199219 232.38253906 -183.86398437 231.76507813 -184.82421875 231.12890625 C-186.11214469 230.27368673 -187.39989182 229.41819788 -188.6875 228.5625 C-189.35998779 228.11600098 -190.03247559 227.66950195 -190.7253418 227.20947266 C-194.11517684 224.95117466 -197.48728415 222.67352291 -200.8203125 220.33203125 C-201.40981689 219.91816162 -201.99932129 219.50429199 -202.60668945 219.07788086 C-204.23677375 217.92839964 -205.86263468 216.77293623 -207.48828125 215.6171875 C-209.78238015 213.81954925 -209.78238015 213.81954925 -212 214 Z " fill="#000000" transform="translate(469,189)"/>
</svg>
