<?xml version="1.0" encoding="UTF-8"?>
<svg version="1.1" xmlns="http://www.w3.org/2000/svg" width="500" height="400">
<path d="M0 0 C13.33550296 -0.8091204 26.66559477 2.13245773 39.625 5 C40.71772217 5.23058105 40.71772217 5.23058105 41.83251953 5.46582031 C43.8515625 5.9375 43.8515625 5.9375 47 7 C47.495 8.485 47.495 8.485 48 10 C45.87519816 10.45925112 43.75014638 10.91734588 41.625 11.375 C40.44164062 11.63023437 39.25828125 11.88546875 38.0390625 12.1484375 C33.36845588 13.14396999 28.68435408 14.07170902 24 15 C24.22550537 15.6712793 24.45101074 16.34255859 24.68334961 17.03417969 C27.26131122 24.71675209 29.82277368 32.40472278 32.36999512 40.09753418 C32.97297888 41.91840259 33.57680181 43.73899305 34.18066406 45.55957031 C40.02189648 63.23342778 45.26457696 80.99986204 50 99 C50.24564697 99.92192139 50.49129395 100.84384277 50.74438477 101.79370117 C53.04217105 110.66170795 54.84477648 119.63104582 56.64428711 128.6105957 C57.19018085 131.32583435 57.74633217 134.03885094 58.30273438 136.75195312 C58.65427453 138.49726932 59.00520762 140.24270792 59.35546875 141.98828125 C59.52104782 142.78945877 59.68662689 143.59063629 59.85722351 144.41609192 C60.77066483 149.03886607 61.164925 153.2876892 61 158 C62.08152344 158.02578125 63.16304688 158.0515625 64.27734375 158.078125 C92.33086275 159.00340985 121.68539933 164.33442742 146.5625 177.875 C147.19873291 178.21724609 147.83496582 178.55949219 148.49047852 178.91210938 C153.52398617 181.65661361 158.335196 184.66257926 163 188 C163.82177734 187.38125 163.82177734 187.38125 164.66015625 186.75 C193.52666788 165.72203706 228.30854751 160.52302684 263 157 C263.1451001 156.15219971 263.2902002 155.30439941 263.43969727 154.4309082 C271.3451113 108.63986757 282.96769523 63.10444972 299.66040039 19.66088867 C301.11454604 16.33668027 301.11454604 16.33668027 301 14 C299.824375 13.896875 298.64875 13.79375 297.4375 13.6875 C290.54317405 12.93619525 283.78104119 11.42053432 277 10 C277.33 9.01 277.66 8.02 278 7 C279.91088867 6.23217773 279.91088867 6.23217773 282.41796875 5.68359375 C283.33602295 5.47758545 284.25407715 5.27157715 285.19995117 5.05932617 C286.67878784 4.75152222 286.67878784 4.75152222 288.1875 4.4375 C289.18821533 4.22134033 290.18893066 4.00518066 291.2199707 3.7824707 C302.48588588 1.39603198 313.43688998 -0.42476731 325 0 C322.71132926 7.68091772 320.35712934 15.33932965 318 23 C327.24 22.67 336.48 22.34 346 22 C345.23036421 25.84817895 344.46186108 28.57347385 342.93359375 32.08203125 C342.53076172 33.01337891 342.12792969 33.94472656 341.71289062 34.90429688 C341.29201172 35.86400391 340.87113281 36.82371094 340.4375 37.8125 C339.80038086 39.28106445 339.80038086 39.28106445 339.15039062 40.77929688 C338.10460494 43.18812907 337.05435216 45.59490803 336 48 C337.30203369 47.98428955 337.30203369 47.98428955 338.63037109 47.96826172 C341.84699528 47.93420284 345.06352767 47.90911233 348.28027344 47.89013672 C349.67320781 47.88007123 351.06612102 47.86641766 352.45898438 47.84912109 C354.4595436 47.8248978 356.46025615 47.81459186 358.4609375 47.8046875 C360.26763916 47.78897705 360.26763916 47.78897705 362.11083984 47.77294922 C365 48 365 48 367 50 C366.09507812 51.39412109 366.09507812 51.39412109 365.171875 52.81640625 C364.36448668 54.06504167 363.55720048 55.31374314 362.75 56.5625 C362.15638672 57.47612305 362.15638672 57.47612305 361.55078125 58.40820312 C359.53886935 61.52501746 357.61871661 64.65253624 355.828125 67.90234375 C354 71 354 71 352 72 C351.30612512 73.99072401 350.64608462 75.99325659 350 78 C348.8444852 80.68105002 347.57649347 83.3061639 346.3125 85.9375 C345.95583252 86.69200439 345.59916504 87.44650879 345.23168945 88.22387695 C343.6205738 91.62973465 341.98973224 95.02053552 340.3046875 98.390625 C323.80901617 132.01948154 313.70302528 169.72838533 305 206 C301.26123684 206.92143953 298.25440054 206.98316103 294.44140625 206.51171875 C293.34940918 206.38337646 292.25741211 206.25503418 291.13232422 206.12280273 C289.36526123 205.90732788 289.36526123 205.90732788 287.5625 205.6875 C273.68943633 204.10187823 259.82199937 203.06747652 245.88378906 202.23828125 C242.02251544 202.00138138 238.16384305 201.73778939 234.3046875 201.46875 C195.91866175 198.87870168 157.43651956 198.43509257 119 200 C118.11642822 200.0350061 117.23285645 200.07001221 116.32250977 200.1060791 C109.79748625 200.36497204 103.27358906 200.64479916 96.75 200.9375 C95.89116211 200.97493317 95.03232422 201.01236633 94.14746094 201.05093384 C83.43004437 201.52700781 72.80558203 202.33989312 62.14550781 203.55102539 C57.33554171 204.09190052 52.51761834 204.40514885 47.6875 204.70703125 C44.81619152 204.93515428 41.9826023 205.22695603 39.125 205.57421875 C38.27679688 205.67476562 37.42859375 205.7753125 36.5546875 205.87890625 C34.89181589 206.079773 33.23020386 206.29145961 31.5703125 206.515625 C26.82230447 207.08314785 23.50904078 206.94380123 19 205 C18.87625 203.989375 18.7525 202.97875 18.625 201.9375 C18.02313767 198.1457673 17.07867887 194.68052966 16 191 C15.38367039 188.77558196 14.77045763 186.55029827 14.16015625 184.32421875 C13.81919922 183.08349609 13.47824219 181.84277344 13.12695312 180.56445312 C12.42035161 177.99177386 11.714849 175.41879961 11.00976562 172.84570312 C7.33263494 159.30974432 7.33263494 159.30974432 2.75 146.06640625 C1.89651083 143.71486577 1.19582151 141.34025864 0.5 138.9375 C-0.71546174 134.79989189 -2.2398168 130.94281037 -4 127 C-5.73755485 122.77270205 -7.43609594 118.53121642 -9.015625 114.2421875 C-15.6675979 96.30059862 -23.70880728 78.35937428 -34 62.1875 C-36 59 -36 59 -36 57 C-36.66 57 -37.32 57 -38 57 C-39.32 54.36 -40.64 51.72 -42 49 C-38.64264863 47.88088288 -36.11794614 47.88634414 -32.58203125 47.90234375 C-31.32841797 47.90556641 -30.07480469 47.90878906 -28.78320312 47.91210938 C-26.81770508 47.92467773 -26.81770508 47.92467773 -24.8125 47.9375 C-23.47721519 47.94251683 -22.14192859 47.94707941 -20.80664062 47.95117188 C-17.53771527 47.96297305 -14.26888009 47.97943703 -11 48 C-11.23187012 47.48091064 -11.46374023 46.96182129 -11.70263672 46.42700195 C-12.76108379 44.05594299 -13.81805395 41.68422843 -14.875 39.3125 C-15.23980469 38.49587891 -15.60460937 37.67925781 -15.98046875 36.83789062 C-21 25.56676136 -21 25.56676136 -21 22 C-7.635 22.495 -7.635 22.495 6 23 C4.31430476 15.34609027 4.31430476 15.34609027 1.875 8.125 C0.6996484 5.11369772 0 3.25179992 0 0 Z M313 31 C312.63261719 32.19302734 312.63261719 32.19302734 312.2578125 33.41015625 C310.08678177 40.40985877 307.87846785 47.39605696 305.6171875 54.3671875 C305.40543381 55.02005234 305.19368011 55.67291718 304.97550964 56.3455658 C304.76050308 57.00843094 304.54549652 57.67129608 304.32397461 58.35424805 C299.49174432 73.2533081 294.71827531 88.14792866 290.7734375 103.3125 C290.12925139 105.55088406 289.4192979 107.73407546 288.66796875 109.9375 C286.55029208 116.23062033 284.75635654 122.61544235 282.9375 129 C282.58623047 130.21945312 282.23496094 131.43890625 281.87304688 132.6953125 C280.04461398 139.09655585 278.3336105 145.47747566 277 152 C276.85780029 152.6698291 276.71560059 153.3396582 276.5690918 154.02978516 C276.1619829 155.95545985 275.76825758 157.88394895 275.375 159.8125 C275.11460937 161.07707031 274.85421875 162.34164062 274.5859375 163.64453125 C273.88532087 167.08902191 273.88532087 167.08902191 274 171 C273.30777344 170.9278125 272.61554688 170.855625 271.90234375 170.78125 C257.64188017 169.42847875 244.13202838 170.06268399 230 172 C230 172.33 230 172.66 230 173 C246.17 173 262.34 173 279 173 C279.7425 169.596875 280.485 166.19375 281.25 162.6875 C284.10928634 150.06549324 287.4782683 137.59387902 290.9375 125.125 C291.18399292 124.22800385 291.43048584 123.33100769 291.68444824 122.40682983 C296.62318604 104.4767885 302.63976051 87.03366645 309.5 69.75 C309.96849365 68.56414307 310.4369873 67.37828613 310.91967773 66.15649414 C320.29690273 42.5546459 320.29690273 42.5546459 324 37 C324 36.01 324 35.02 324 34 C322.73160474 33.49384702 321.46016898 32.99530901 320.1875 32.5 C319.47980469 32.2215625 318.77210938 31.943125 318.04296875 31.65625 C315.88158784 30.8470838 315.88158784 30.8470838 313 31 Z M4.875 32.5 C3.96492188 32.7784375 3.05484375 33.056875 2.1171875 33.34375 C1.41851562 33.5603125 0.71984375 33.776875 0 34 C1.39546664 37.10433164 2.79144431 40.20843323 4.1875 43.3125 C4.76854492 44.60510742 4.76854492 44.60510742 5.36132812 45.92382812 C5.75126953 46.79072266 6.14121094 47.65761719 6.54296875 48.55078125 C6.94410889 49.44442383 7.34524902 50.33806641 7.75854492 51.25878906 C8.58950048 53.09359122 9.4309183 54.92368933 10.2824707 56.74902344 C13.15854783 62.93892507 15.61683624 69.16406457 17.8125 75.625 C18.32006836 77.10371582 18.32006836 77.10371582 18.83789062 78.61230469 C22.72827581 90.02098508 26.42187684 101.4899046 30 113 C30.33 114.05638672 30.66 115.11277344 31 116.20117188 C36.82733782 134.969297 41.48163787 153.87764597 46 173 C62.5 173 79 173 96 173 C96 172.67 96 172.34 96 172 C73.49677963 169.58346972 73.49677963 169.58346972 51 171 C50.89300781 169.76507813 50.78601563 168.53015625 50.67578125 167.2578125 C50.01550826 161.33963882 48.61784131 155.64738601 47.1875 149.875 C46.7848291 148.22709473 46.7848291 148.22709473 46.37402344 146.54589844 C43.36312215 132.89652203 43.36312215 132.89652203 39.03198242 119.65991211 C37.98862886 116.97069115 37.28777087 114.35745226 36.62890625 111.55078125 C34.95577973 104.69190425 32.97778777 97.94508078 30.9375 91.1875 C30.74668854 90.55280792 30.55587708 89.91811584 30.35928345 89.26419067 C26.50389211 76.45042133 22.40971699 63.71770035 18.26171875 50.99609375 C16.09992451 44.35318638 14.03185622 37.68368243 12 31 C9.41784939 31 7.34193416 31.74094334 4.875 32.5 Z M-13.6875 57 C-14.89986328 57.556875 -14.89986328 57.556875 -16.13671875 58.125 C-17.05904297 58.558125 -17.05904297 58.558125 -18 59 C-16.70760281 64.07866633 -14.89028653 68.4887666 -12.4375 73.125 C-3.72348896 90.13273216 3.09525404 107.99090579 9.81542969 125.85888672 C10.91966527 128.78697719 12.04057959 131.70816189 13.1640625 134.62890625 C18.07618871 147.56896369 21.81804916 160.68993311 25.25244141 174.09228516 C26.285613 178.11092451 27.36051719 182.11793232 28.4375 186.125 C28.95867998 188.08324111 29.47968044 190.0415301 30 192 C32.23031689 191.54729698 34.45921563 191.08760374 36.6875 190.625 C37.92886719 190.36976563 39.17023438 190.11453125 40.44921875 189.8515625 C43.47403318 189.12613946 46.16059255 188.24868779 49 187 C45.94077605 185.47038802 43.32521452 186.49276389 40 187 C38.33347147 187.02145745 36.66646674 187.02581446 35 187 C34.77505859 186.0610791 34.55011719 185.1221582 34.31835938 184.15478516 C31.71865913 173.45332889 28.68258291 162.91581846 25.5 152.375 C24.55066424 149.21657091 23.60339098 146.05752532 22.65625 142.8984375 C22.42744141 142.13714539 22.19863281 141.37585327 21.96289062 140.5914917 C20.54921237 135.87647242 19.18158297 131.1511612 17.84375 126.4140625 C16.59168275 122.00039847 15.26192572 117.63775937 13.77734375 113.29736328 C12.83760705 110.52006354 11.94933049 107.72823126 11.0625 104.93359375 C10.72476563 103.87076172 10.38703125 102.80792969 10.0390625 101.71289062 C9.34522819 99.5257475 8.65252332 97.33824577 7.9609375 95.15039062 C6.34074661 90.05792039 4.67376739 85.01402345 2.75488281 80.02661133 C1.16943826 75.77021572 -0.20690606 71.43937055 -1.625 67.125 C-2.24080188 65.252148 -2.85792336 63.37972921 -3.4765625 61.5078125 C-3.74549316 60.68941895 -4.01442383 59.87102539 -4.29150391 59.02783203 C-4.96281653 56.96838813 -4.96281653 56.96838813 -6 55 C-9.23655184 55 -10.78752639 55.6550847 -13.6875 57 Z M331 55 C328.93368003 60.42408992 327.00250163 65.87009857 325.1875 71.3828125 C324.66035271 72.97434894 324.13300336 74.56581846 323.60546875 76.15722656 C323.33911621 76.96180298 323.07276367 77.76637939 322.79833984 78.59533691 C321.54283269 82.3770243 320.27093769 86.15316457 319 89.9296875 C312.99176898 107.81657483 307.17703528 125.70884979 302.0625 143.875 C300.06589569 150.94700604 297.81844138 157.93500506 295.54907227 164.92333984 C293.75812773 170.47349971 292.12908818 176.04382865 290.63305664 181.6809082 C290.14463523 183.47015424 289.58651145 185.24046564 289 187 C284.05 186.67 279.1 186.34 274 186 C277.37526629 188.25017753 280.63074995 189.13004999 284.5 190.125 C285.17675781 190.30675781 285.85351562 190.48851562 286.55078125 190.67578125 C289.45189063 191.43682178 291.9877454 192 295 192 C295.23074219 191.05382812 295.46148437 190.10765625 295.69921875 189.1328125 C296.77573526 184.7491293 297.88242086 180.37337893 299 176 C299.25692627 174.98969727 299.25692627 174.98969727 299.51904297 173.95898438 C304.93953323 152.90186369 312.09078173 132.14555156 320.21630859 111.98828125 C321.29986243 109.23922752 322.30318523 106.46303269 323.31176758 103.68579102 C325.68328567 97.17587746 328.36477952 90.9547277 331.5625 84.80078125 C333.43470804 81.15302809 335.09538535 77.42486681 336.76171875 73.6796875 C338.42702991 70.07589111 340.28770858 66.58314825 342.1796875 63.09375 C343.31077991 60.8648255 343.31077991 60.8648255 342 58 C339.43957934 56.96961044 339.43957934 56.96961044 336.4375 56.3125 C335.42558594 56.06113281 334.41367187 55.80976563 333.37109375 55.55078125 C332.58863281 55.36902344 331.80617188 55.18726563 331 55 Z M96 173 C96 173.33 96 173.66 96 174 C98.31 174 100.62 174 103 174 C103 173.67 103 173.34 103 173 C100.69 173 98.38 173 96 173 Z M222 173 C222 173.33 222 173.66 222 174 C224.31 174 226.62 174 229 174 C229 173.67 229 173.34 229 173 C226.69 173 224.38 173 222 173 Z " fill="#0B2175" transform="translate(94,141)"/>
<path d="M0 0 C0.99 0.495 0.99 0.495 2 1 C2 2.32 2 3.64 2 5 C10.05544076 6.40359953 16.56831794 5.76207889 24.30273438 3.47363281 C31.94826706 1.24786472 35.75997658 1.37998829 43 5 C43 14.57 43 24.14 43 34 C40 34 40 34 38.08203125 33.640625 C31.55946209 32.51797971 26.23737516 33.81491225 19.99145508 35.58789062 C14.01192302 37.20009267 9.14663389 37.02443898 3 36 C2.67 40.95 2.34 45.9 2 51 C3.03479492 51.01981934 4.06958984 51.03963867 5.13574219 51.06005859 C67.25044536 52.28755397 143.57195125 54.02982542 196 92 C197.04929687 92.6290625 198.09859375 93.258125 199.1796875 93.90625 C206.48618336 98.74006406 206.48618336 98.74006406 207.46826172 103.05957031 C207.94057393 108.08685715 207.56883897 112.9953662 207 118 C203.2130534 116.3523141 200.19545173 113.87305589 197 111.3125 C190.97418472 106.59590531 184.78030223 102.57652068 178 99 C176.61554688 98.26716797 176.61554688 98.26716797 175.203125 97.51953125 C155.90904798 88.00009907 134.34375097 82.55463893 113.26171875 78.78515625 C110.21192516 78.23514645 107.17774707 77.63117518 104.14453125 76.99609375 C85.20578672 73.03425866 66.28881886 71.36530606 47 70 C45.87013672 69.91024902 44.74027344 69.82049805 43.57617188 69.72802734 C29.70338774 68.74546032 15.80544747 68.77742393 1.90478516 68.75976562 C-1.00322303 68.75542327 -3.91092742 68.74167233 -6.81884766 68.71875 C-39.76467654 68.46474294 -73.86370376 70.00358934 -106.03662109 77.55541992 C-108.93961327 78.21276247 -111.87508392 78.64829933 -114.8125 79.125 C-122.7396836 80.53011669 -130.44822034 82.67748347 -138.1875 84.875 C-139.35063721 85.20258301 -140.51377441 85.53016602 -141.7121582 85.86767578 C-152.6951634 89.04425108 -163.34404415 92.99772082 -173.6875 97.875 C-174.76402832 98.38208496 -174.76402832 98.38208496 -175.86230469 98.89941406 C-182.88378307 102.2913867 -188.95782687 106.52823433 -195 111.4375 C-197 113 -197 113 -199 113 C-199 113.66 -199 114.32 -199 115 C-203.47058824 119 -203.47058824 119 -206 119 C-207.50585643 104.42665606 -207.50585643 104.42665606 -204.23046875 99.1484375 C-201.62387859 96.76502872 -198.98862078 94.88186702 -196 93 C-195.01128906 92.3296875 -194.02257812 91.659375 -193.00390625 90.96875 C-184.72615095 85.59492634 -175.93273695 81.16951015 -167 77 C-165.36804688 76.23042969 -165.36804688 76.23042969 -163.703125 75.4453125 C-119.65313106 56.3156203 -68.45728951 52.97408589 -21.09765625 51.296875 C-20.22597305 51.26585693 -19.35428986 51.23483887 -18.45619202 51.20288086 C-12.63575362 51.0124899 -6.82333093 50.96683327 -1 51 C-1.02545395 50.08584824 -1.02545395 50.08584824 -1.05142212 49.15322876 C-1.2255664 42.82736212 -1.38551439 36.50125106 -1.53710938 30.17480469 C-1.59561679 27.81175532 -1.65778059 25.4487936 -1.72363281 23.0859375 C-1.81749629 19.69547482 -1.89833501 16.30491741 -1.9765625 12.9140625 C-2.02485703 11.32182358 -2.02485703 11.32182358 -2.0741272 9.69741821 C-2.09429901 8.71655243 -2.11447083 7.73568665 -2.13525391 6.72509766 C-2.15746002 5.85905914 -2.17966614 4.99302063 -2.20254517 4.10073853 C-2 2 -2 2 0 0 Z " fill="#0A2175" transform="translate(256,0)"/>
<path d="M0 0 C57.75 0 115.5 0 175 0 C173.68 6.27 172.36 12.54 171 19 C170.443125 21.8771875 170.443125 21.8771875 169.875 24.8125 C168.82052101 30.14039382 167.01776046 34.95559884 165 40 C154.44 40 143.88 40 133 40 C132.835 34.92625 132.67 29.8525 132.5 24.625 C132.44779297 23.02479004 132.39558594 21.42458008 132.34179688 19.77587891 C132.30119141 18.52210449 132.26058594 17.26833008 132.21875 15.9765625 C132.1559082 14.04417725 132.1559082 14.04417725 132.09179688 12.07275391 C132.04129587 10.38231328 132 8.69119481 132 7 C131.30018509 7.00222061 130.60037018 7.00444122 129.87934875 7.00672913 C123.1336773 7.0271533 116.38801072 7.04218134 109.64231586 7.05181217 C106.17811529 7.05693054 102.71394119 7.06381397 99.24975586 7.07543945 C80.14055277 7.13788516 61.09484137 6.80671736 42 6 C42.16233124 6.7606073 42.32466248 7.5212146 42.49191284 8.30487061 C43.08374605 11.44422782 43.12965313 14.38355353 43.1328125 17.578125 C43.13410156 18.82078125 43.13539063 20.0634375 43.13671875 21.34375 C43.13285156 22.6328125 43.12898438 23.921875 43.125 25.25 C43.13080078 27.20679688 43.13080078 27.20679688 43.13671875 29.203125 C43.13542969 30.440625 43.13414062 31.678125 43.1328125 32.953125 C43.13168457 34.08911133 43.13055664 35.22509766 43.12939453 36.39550781 C43 39 43 39 42 40 C39.55169574 40.08843793 37.13179401 40.11528752 34.68359375 40.09765625 C33.95253922 40.0962413 33.22148468 40.09482635 32.46827698 40.09336853 C30.12464368 40.08775408 27.78110461 40.07519922 25.4375 40.0625 C23.85221492 40.05748686 22.26692834 40.05292363 20.68164062 40.04882812 C16.7877239 40.03777997 12.89387795 40.02050572 9 40 C8.03759818 35.91113853 7.07741143 31.82176467 6.11914062 27.73193359 C5.79388023 26.34507729 5.46804903 24.95835471 5.14160156 23.57177734 C4.66836199 21.561235 4.19728243 19.55019606 3.7265625 17.5390625 C3.30238037 15.73236084 3.30238037 15.73236084 2.86962891 13.88916016 C1.83801876 9.27558641 0.92713957 4.63569784 0 0 Z " fill="#0A2075" transform="translate(169,360)"/>
<path d="M0 0 C3.14343403 10.16993362 5.55497508 20.46770725 7.89306641 30.84716797 C9.37867817 37.48194352 9.37867817 37.48194352 11.1796875 44.03515625 C12 47 12 47 12 51 C-28.59 51 -69.18 51 -111 51 C-111 46 -111 46 -110 45 C-106.96446268 44.81983048 -103.94846809 44.7032821 -100.90966797 44.62695312 C-99.95516251 44.59915268 -99.00065704 44.57135223 -98.01722717 44.54270935 C-95.93615581 44.4827371 -93.85501858 44.42501937 -91.77383041 44.36924744 C-88.47840376 44.28088039 -85.18318995 44.18668764 -81.88796997 44.09094238 C-74.88379436 43.88856356 -67.8794112 43.69402503 -60.875 43.5 C-52.78028233 43.27503493 -44.68567143 43.04687329 -36.59122086 42.81248474 C-33.34807798 42.71998753 -30.10482681 42.63239233 -26.86154175 42.54504395 C-24.86325452 42.4879347 -22.86497333 42.4306135 -20.86669922 42.37304688 C-19.96771408 42.35016098 -19.06872894 42.32727509 -18.14250183 42.30369568 C-13.3497487 42.16027429 -8.7318589 41.782291 -4 41 C-4.64517975 38.08318736 -5.2911182 35.16654627 -5.9375 32.25 C-6.21110352 31.0125 -6.21110352 31.0125 -6.49023438 29.75 C-6.75610352 28.55117188 -6.75610352 28.55117188 -7.02734375 27.328125 C-7.18968506 26.5949707 -7.35202637 25.86181641 -7.51928711 25.10644531 C-7.67792236 24.41131836 -7.83655762 23.71619141 -8 23 C-8.09595459 22.28650391 -8.19190918 21.57300781 -8.29077148 20.83789062 C-8.84123176 18.82725879 -8.84123176 18.82725879 -10.86767578 17.96191406 C-17.64029045 16.0392088 -23.85588698 15.60464836 -30.875 15.75 C-32.51529175 15.76752319 -32.51529175 15.76752319 -34.1887207 15.78540039 C-43.28515757 15.91185934 -52.35739768 16.32230215 -61.4375 16.85888672 C-64.22849973 17.01258316 -67.01974457 17.13646683 -69.8125 17.25390625 C-70.7919458 17.29523682 -71.7713916 17.33656738 -72.78051758 17.37915039 C-74.65527563 17.45708818 -76.53010954 17.53323202 -78.4050293 17.60717773 C-82.49825418 17.78237711 -86.54148007 18.03281878 -90.609375 18.52734375 C-94.94336509 19.04353437 -99.20234284 19.11562281 -103.5625 19.0625 C-104.28501953 19.05798828 -105.00753906 19.05347656 -105.75195312 19.04882812 C-107.50133944 19.03724279 -109.25068199 19.01931762 -111 19 C-110 16 -110 16 -108.09375 14.75390625 C-92.5025298 7.59227649 -75.75577491 6.01156734 -58.875 4.375 C-56.75363172 4.16151599 -54.63229407 3.94772731 -52.51098633 3.73364258 C-14.9609482 0 -14.9609482 0 0 0 Z " fill="#0B2175" transform="translate(161,349)"/>
<path d="M0 0 C18.6288352 0.82310768 37.19331771 2.14638803 55.74853516 4.00137329 C57.80272547 4.20579378 59.8574112 4.40530675 61.91259766 4.59945679 C72.4123638 5.59976712 82.68983729 6.90027338 92.9453125 9.41796875 C93.74315155 9.6123201 94.5409906 9.80667145 95.36300659 10.00691223 C100.64243258 11.39527181 105.18754561 13.42339016 110 16 C110 16.99 110 17.98 110 19 C107.7500736 19.02766303 105.50004088 19.04668646 103.25 19.0625 C101.99703125 19.07410156 100.7440625 19.08570313 99.453125 19.09765625 C95.11432456 19.05832124 90.82792687 18.66963751 86.5078125 18.28735352 C67.80666079 16.75538974 48.9495939 15.84401237 30.1875 15.6875 C29.17091309 15.67001709 28.15432617 15.65253418 27.10693359 15.63452148 C21.21443033 15.63902263 15.21295338 15.97303014 10 19 C8.72180651 21.00569137 8.1985154 22.76350898 7.67739868 25.08117676 C6.87630126 28.53300184 5.90791912 31.91960694 4.92578125 35.32421875 C4.56524658 36.57678467 4.20471191 37.82935059 3.83325195 39.11987305 C3.55827881 40.07031494 3.28330566 41.02075684 3 42 C3.94228958 42.02283554 4.88457916 42.04567108 5.85542297 42.06919861 C14.86805481 42.2878389 23.88063991 42.50832786 32.89318562 42.73049068 C37.52325179 42.84456788 42.15333054 42.95806029 46.78344727 43.07006836 C82.0544068 43.92423758 82.0544068 43.92423758 99.04296875 44.50390625 C100.16206131 44.53910873 101.28115387 44.57431122 102.43415833 44.61058044 C103.43323715 44.6470015 104.43231598 44.68342255 105.46166992 44.72094727 C106.75254768 44.76579002 106.75254768 44.76579002 108.06950378 44.8115387 C110 45 110 45 111 46 C111 47.65 111 49.3 111 51 C70.41 51 29.82 51 -12 51 C-10.87484041 41.9987233 -10.87484041 41.9987233 -10.09204102 38.79052734 C-9.91838516 38.06972992 -9.74472931 37.3489325 -9.56581116 36.60629272 C-9.38038254 35.8570755 -9.19495392 35.10785828 -9.00390625 34.3359375 C-8.81030014 33.54023346 -8.61669403 32.74452942 -8.41722107 31.92471313 C-8.0100167 30.25527662 -7.60065001 28.58636617 -7.18920898 26.91796875 C-6.56281636 24.37628366 -5.94396958 21.83284884 -5.32617188 19.2890625 C-4.92752654 17.65874573 -4.52845261 16.02853369 -4.12890625 14.3984375 C-3.94550186 13.64517181 -3.76209747 12.89190613 -3.57313538 12.11581421 C-2.55605826 8.00573701 -1.40128195 4.00061853 0 0 Z " fill="#0B2175" transform="translate(352,349)"/>
<path d="M0 0 C1.27875 -0.061875 2.5575 -0.12375 3.875 -0.1875 C4.95394531 -0.23970703 4.95394531 -0.23970703 6.0546875 -0.29296875 C6.69664062 -0.19628906 7.33859375 -0.09960938 8 0 C8.66 0.99 9.32 1.98 10 3 C10.33 2.01 10.66 1.02 11 0 C12.45742463 -0.08096803 13.91612807 -0.13917774 15.375 -0.1875 C16.18710938 -0.22230469 16.99921875 -0.25710937 17.8359375 -0.29296875 C18.55007812 -0.19628906 19.26421875 -0.09960938 20 0 C20.66 0.99 21.32 1.98 22 3 C22.33 2.01 22.66 1.02 23 0 C24.32 0 25.64 0 27 0 C27.33 0.99 27.66 1.98 28 3 C28.5259375 2.2575 28.5259375 2.2575 29.0625 1.5 C31.95292499 -0.73774838 34.44859183 -0.19371317 38 0 C38.66 0 39.32 0 40 0 C41.66965451 0.31802943 43.33678518 0.64984951 45 1 C45.495 2.98 45.495 2.98 46 5 C46.99 3.35 47.98 1.7 49 0 C49.7425 0.185625 50.485 0.37125 51.25 0.5625 C53.99006016 0.99841866 55.39020109 0.71994453 58 0 C58.66 0.33 59.32 0.66 60 1 C61.41369726 1.07177039 62.83073799 1.0839245 64.24609375 1.0625 C65.08333984 1.05476563 65.92058594 1.04703125 66.78320312 1.0390625 C68.54882897 1.01307831 70.31445398 0.9870369 72.08007812 0.9609375 C72.91861328 0.95320313 73.75714844 0.94546875 74.62109375 0.9375 C75.3886499 0.92589844 76.15620605 0.91429688 76.94702148 0.90234375 C79 1 79 1 82 2 C83.134375 1.95875 84.26875 1.9175 85.4375 1.875 C89.19449806 2.00682449 90.35180567 2.45773344 93 5 C93.33 4.34 93.66 3.68 94 3 C95.66611905 2.957279 97.33382885 2.95936168 99 3 C99.495 3.495 99.495 3.495 100 4 C101.66617115 4.04063832 103.33388095 4.042721 105 4 C105.99 7.96 105.99 7.96 107 12 C107.33 9.69 107.66 7.38 108 5 C108.99 4.67 109.98 4.34 111 4 C111.99 4.495 111.99 4.495 113 5 C112.67 7.97 112.34 10.94 112 14 C114.28341743 14.67154684 114.28341743 14.67154684 117 14 C118.4641825 12.00099635 119.58065939 9.9638069 120.69140625 7.75 C121.33916016 6.88375 121.33916016 6.88375 122 6 C123.32 6 124.64 6 126 6 C126.99 9.465 126.99 9.465 128 13 C128.66 11.02 129.32 9.04 130 7 C137.75 7.75 137.75 7.75 140 10 C140.20872719 12.78302919 140.25640898 14.48718205 139 17 C139.27942455 18.67654729 139.60828247 20.34608154 140 22 C138.35 22 136.7 22 135 22 C134.67 21.01 134.34 20.02 134 19 C133.34 19.66 132.68 20.32 132 21 C128.5 21.3125 128.5 21.3125 125 21 C124.01 19.515 124.01 19.515 123 18 C121.515 18.495 121.515 18.495 120 19 C114.2655584 19.38455821 108.67005144 18.82473475 103 18 C103 17.01 103 16.02 103 15 C102.01 15 101.02 15 100 15 C99.67 15.66 99.34 16.32 99 17 C96.03 16.67 93.06 16.34 90 16 C89.505 14.02 89.505 14.02 89 12 C88.34490497 9.99617991 87.68025637 7.99541868 87 6 C86.67 9.3 86.34 12.6 86 16 C85.175 15.835 84.35 15.67 83.5 15.5 C79.58727683 14.94103955 75.94816827 14.93192813 72 15 C70 9.375 70 9.375 70 6 C69.67 6 69.34 6 69 6 C68.67 8.64 68.34 11.28 68 14 C62.61585651 15.48528096 59.92146865 14.62478328 55 12 C54.67 12.66 54.34 13.32 54 14 C52.3973218 14.10824843 50.79254252 14.18570645 49.1875 14.25 C48.29417969 14.29640625 47.40085937 14.3428125 46.48046875 14.390625 C44 14 44 14 42.17578125 11.984375 C41.78777344 11.32953125 41.39976562 10.6746875 41 10 C40.46375 10.66 39.9275 11.32 39.375 12 C37 14 37 14 33.9375 14.4375 C30.7895154 13.96865123 29.87214441 13.49619254 28 11 C27.67 11.99 27.34 12.98 27 14 C26.38125 13.835 25.7625 13.67 25.125 13.5 C22.64732142 12.9170168 21.18114111 12.96083436 18.6875 13.5 C16.05531743 13.98970839 13.66955643 14.07627304 11 14 C10.34 12.68 9.68 11.36 9 10 C8.67 11.32 8.34 12.64 8 14 C5.03 14 2.06 14 -1 14 C-2.42857143 4.42857143 -2.42857143 4.42857143 0 0 Z M52 3 C53 5 53 5 53 5 Z M33 4 C31.98888907 7.04913228 31.98888907 7.04913228 33 10 C33.99 9.67 34.98 9.34 36 9 C35.67 7.35 35.34 5.7 35 4 C34.34 4 33.68 4 33 4 Z M51 5 C52 7 52 7 52 7 Z M60 5 C60.66 7.31 61.32 9.62 62 12 C62.33 12 62.66 12 63 12 C63 9.69 63 7.38 63 5 C62.01 5 61.02 5 60 5 Z M98 5 C99 7 99 7 99 7 Z M50 7 C51 9 51 9 51 9 Z M81 7 C82 9 82 9 82 9 Z M97 7 C95.3516367 8.75244247 95.3516367 8.75244247 94 11 C94.21717352 13.20800528 94.21717352 13.20800528 95 15 C96.06775224 13.03533587 97.06553465 11.03144641 98 9 C97.67 8.34 97.34 7.68 97 7 Z M3 8 C4 12 4 12 4 12 Z M49 9 C50 11 50 11 50 11 Z M75 10 C75.66 10.66 76.32 11.32 77 12 C77 11.34 77 10.68 77 10 C76.34 10 75.68 10 75 10 Z " fill="#0D2473" transform="translate(227,100)"/>
<path d="M0 0 C6.51292247 -0.12524851 6.51292247 -0.12524851 9.1875 0.5625 C11.01182096 1.15279868 11.01182096 1.15279868 12.87011719 0.51977539 C16.31101964 -0.31994049 19.75212748 0.16867057 23.25 0.4375 C24.36761719 0.51581055 24.36761719 0.51581055 25.5078125 0.59570312 C27.33894861 0.7248217 29.16953813 0.86165114 31 1 C31.495 3.475 31.495 3.475 32 6 C32.33 4.35 32.66 2.7 33 1 C34.258125 0.979375 35.51625 0.95875 36.8125 0.9375 C37.52019531 0.92589844 38.22789062 0.91429688 38.95703125 0.90234375 C41 1 41 1 44 2 C45.32 2 46.64 2 48 2 C48.495 6.455 48.495 6.455 49 11 C50.49743119 9.50256881 50.33202693 8.01175761 50.5625 5.9375 C50.706875 4.638125 50.85125 3.33875 51 2 C56.55960383 1.80568375 60.83146789 1.78491481 66 4 C68.7336432 3.70480232 68.7336432 3.70480232 71 3 C72.231394 6.69418201 71.64432764 9.2056261 71 13 C72.65 13.33 74.3 13.66 76 14 C76.33 10.7 76.66 7.4 77 4 C81.95 4.495 81.95 4.495 87 5 C87 5.66 87 6.32 87 7 C87.598125 6.649375 88.19625 6.29875 88.8125 5.9375 C91 5 91 5 94 6 C92.5 9 92.5 9 91 12 C91.99 13.485 91.99 13.485 93 15 C94.65 12.36 96.3 9.72 98 7 C99.65 7.33 101.3 7.66 103 8 C103.99 10.97 103.99 10.97 105 14 C105.144375 13.195625 105.28875 12.39125 105.4375 11.5625 C106 9 106 9 107 8 C113.46153846 7.64102564 113.46153846 7.64102564 117 10 C118.65 10 120.3 10 122 10 C121.34 14.29 120.68 18.58 120 23 C118.68 23 117.36 23 116 23 C115.505 22.01 115.505 22.01 115 21 C114.505 21.495 114.505 21.495 114 22 C108.7720347 22.26582874 104.92882852 21.97153141 100 20 C100 19.34 100 18.68 100 18 C99.34 18 98.68 18 98 18 C97.67 18.66 97.34 19.32 97 20 C95.5199159 19.88637738 94.04089926 19.75877092 92.5625 19.625 C91.73878906 19.55539063 90.91507812 19.48578125 90.06640625 19.4140625 C89.38449219 19.27742188 88.70257813 19.14078125 88 19 C87.505 18.01 87.505 18.01 87 17 C86.01 17.66 85.02 18.32 84 19 C82.08361333 18.83479425 80.16572399 18.65455841 78.265625 18.35546875 C75.15044071 17.86670708 72.0203844 17.58735458 68.8828125 17.28125 C67 17 67 17 65 16 C63.8553125 16.2475 63.8553125 16.2475 62.6875 16.5 C59.7470802 17.04705485 57.84748246 16.87006408 55 16 C54.505 15.01 54.505 15.01 54 14 C53.34 14.66 52.68 15.32 52 16 C49.0625 16.375 49.0625 16.375 46 16 C44.125 14.125 44.125 14.125 43 12 C43 11.34 43 10.68 43 10 C41.02 10.33 39.04 10.66 37 11 C36.67 12.32 36.34 13.64 36 15 C26.30472178 15.19219715 16.67132568 14.59581324 7 14 C6.67 12.68 6.34 11.36 6 10 C5.34 10 4.68 10 4 10 C4 11.32 4 12.64 4 14 C2.68 14 1.36 14 0 14 C-0.91297308 9.02936879 -0.91297308 4.97063121 0 0 Z M55 5 C56 8 56 8 56 8 Z M10 7 C11 11 11 11 11 11 Z M21 7 C21 7.66 21 8.32 21 9 C21.66 8.67 22.32 8.34 23 8 C22.34 7.67 21.68 7.34 21 7 Z M66 8 C67 10 67 10 67 10 Z M81 8 C82 11 82 11 82 11 Z M16 9 C16 9.33 16 9.66 16 10 C17.65 10 19.3 10 21 10 C21 9.67 21 9.34 21 9 C19.35 9 17.7 9 16 9 Z M115 14 C115.66 14.66 116.32 15.32 117 16 C117 15.34 117 14.68 117 14 C116.34 14 115.68 14 115 14 Z " fill="#0D2473" transform="translate(254,80)"/>
<path d="M0 0 C0.99 0.495 0.99 0.495 2 1 C3.19811544 5.57462259 2.83154187 9.38032292 2 14 C-0.4375 13.625 -0.4375 13.625 -3 13 C-3.495 12.01 -3.495 12.01 -4 11 C-4.33 11.99 -4.66 12.98 -5 14 C-6.32 14 -7.64 14 -9 14 C-9 13.34 -9 12.68 -9 12 C-9.680625 12.515625 -10.36125 13.03125 -11.0625 13.5625 C-14.95715932 15.46839711 -16.90250937 15.36583021 -21 14 C-23 10.5625 -23 10.5625 -24 7 C-23.67 6.34 -23.34 5.68 -23 5 C-23.66 5.33 -24.32 5.66 -25 6 C-25 8.97 -25 11.94 -25 15 C-26.65 15 -28.3 15 -30 15 C-30.495 11.04 -30.495 11.04 -31 7 C-31.66 7.33 -32.32 7.66 -33 8 C-32.773125 8.763125 -32.54625 9.52625 -32.3125 10.3125 C-32 13 -32 13 -33.0625 14.8125 C-35.77846421 16.47712323 -37.86654491 16.19584094 -41 16 C-41.99 16 -42.98 16 -44 16 C-47.66666667 16 -51.33333333 16 -55 16 C-55.495 16.495 -55.495 16.495 -56 17 C-58.30801931 17.23634585 -60.6221421 17.41441112 -62.9375 17.5625 C-64.83822266 17.68818359 -64.83822266 17.68818359 -66.77734375 17.81640625 C-68.51648454 17.91548457 -70.25803926 18 -72 18 C-72.87914062 18.31710938 -73.75828125 18.63421875 -74.6640625 18.9609375 C-78.31262342 20.09737451 -81.56518102 20.40934987 -85.375 20.625 C-87.24285156 20.73714844 -87.24285156 20.73714844 -89.1484375 20.8515625 C-90.55996094 20.92503906 -90.55996094 20.92503906 -92 21 C-92 19.02 -92 17.04 -92 15 C-91.34 15 -90.68 15 -90 15 C-89.67 13.68 -89.34 12.36 -89 11 C-90.32 11 -91.64 11 -93 11 C-93 11.99 -93 12.98 -93 14 C-93.99 14 -94.98 14 -96 14 C-96.0825 15.11375 -96.165 16.2275 -96.25 17.375 C-97 21 -97 21 -98.6875 22.5 C-101.82280868 23.17790458 -103.92732642 22.91526447 -107 22 C-109.56078044 19.6952976 -109.95505383 18.36706039 -110.375 14.9375 C-110 12 -110 12 -109 10.125 C-105.70573233 8.27197444 -102.73497211 8.75903406 -99 9 C-98.67 9.33 -98.34 9.66 -98 10 C-97.65582031 9.52949219 -97.31164062 9.05898437 -96.95703125 8.57421875 C-94.05933892 6.24334049 -91.34641457 6.23593522 -87.6875 5.8125 C-86.39199219 5.65394531 -85.09648437 5.49539062 -83.76171875 5.33203125 C-80.47454531 5.04188614 -77.29606158 4.93816912 -74 5 C-73.01 5 -72.02 5 -71 5 C-70.67 4.67 -70.34 4.34 -70 4 C-67.8798986 3.76345976 -65.75311717 3.58548166 -63.625 3.4375 C-62.46226562 3.35371094 -61.29953125 3.26992187 -60.1015625 3.18359375 C-58.07034334 3.06335785 -56.03477467 3 -54 3 C-52.47762745 2.84803411 -50.9567878 2.68021206 -49.4375 2.5 C-47.267222 2.24341541 -45.18528703 2 -43 2 C-42.030625 1.814375 -41.06125 1.62875 -40.0625 1.4375 C-37 1 -37 1 -34 2 C-33.67 1.67 -33.34 1.34 -33 1 C-29.54885297 0.74853876 -26.08422797 0.81477581 -22.625 0.8125 C-21.65304688 0.80025391 -20.68109375 0.78800781 -19.6796875 0.77539062 C-18.27976563 0.77249023 -18.27976563 0.77249023 -16.8515625 0.76953125 C-15.99385254 0.76542236 -15.13614258 0.76131348 -14.25244141 0.75708008 C-12 1 -12 1 -9 3 C-9 2.34 -9 1.68 -9 1 C-4.125 1.875 -4.125 1.875 -3 3 C-2.01 2.01 -1.02 1.02 0 0 Z M-10 4 C-9 6 -9 6 -9 6 Z M-50 5 C-50 5.66 -50 6.32 -50 7 C-50.66 7 -51.32 7 -52 7 C-51.34 8.65 -50.68 10.3 -50 12 C-49.67 12 -49.34 12 -49 12 C-49 9.69 -49 7.38 -49 5 C-49.33 5 -49.66 5 -50 5 Z M-18 5 C-18 6.65 -18 8.3 -18 10 C-16.68 9.67 -15.36 9.34 -14 9 C-14.33 7.68 -14.66 6.36 -15 5 C-15.99 5 -16.98 5 -18 5 Z M-62 7 C-61.67 7.99 -61.34 8.98 -61 10 C-60.67 9.01 -60.34 8.02 -60 7 C-60.66 7 -61.32 7 -62 7 Z M-67 8 C-63 9 -63 9 -63 9 Z M-83 9 C-84.485 12.465 -84.485 12.465 -86 16 C-84.68 15.67 -83.36 15.34 -82 15 C-82 13.02 -82 11.04 -82 9 C-82.33 9 -82.66 9 -83 9 Z M-61 11 C-61.33 11.66 -61.66 12.32 -62 13 C-61.34 13 -60.68 13 -60 13 C-60.33 12.34 -60.66 11.68 -61 11 Z M-105 13 C-105 14.65 -105 16.3 -105 18 C-103.68 18 -102.36 18 -101 18 C-101 16.35 -101 14.7 -101 13 C-102.32 13 -103.64 13 -105 13 Z M-64 12 C-64.66 12.66 -65.32 13.32 -66 14 C-65.01 14 -64.02 14 -63 14 C-63.33 13.34 -63.66 12.68 -64 12 Z " fill="#0D2473" transform="translate(247,80)"/>
<path d="M0 0 C-2.34714152 8.83734345 -4.53604125 15.76327133 -12.31640625 21.15234375 C-14 22 -14 22 -17 22 C-17 36.52 -17 51.04 -17 66 C-11.72 66 -6.44 66 -1 66 C1 68 1 68 1.1953125 70.6015625 C1.17210937 71.59929687 1.14890625 72.59703125 1.125 73.625 C1.10695313 74.62789063 1.08890625 75.63078125 1.0703125 76.6640625 C1.04710937 77.43492187 1.02390625 78.20578125 1 79 C-4.03641995 80.64140045 -8.26131217 81.24749941 -13.61328125 81.23046875 C-14.30890671 81.23001053 -15.00453217 81.22955231 -15.72123718 81.2290802 C-17.17753832 81.22608165 -18.63383695 81.2182682 -20.09008789 81.20581055 C-22.32384507 81.18740653 -24.55719006 81.18530223 -26.79101562 81.18554688 C-37.70439305 81.14780347 -37.70439305 81.14780347 -40 80 C-40 75.71 -40 71.42 -40 67 C-36.81175432 65.40587716 -33.37103338 65.89825265 -29.875 65.9375 C-29.12089844 65.94201172 -28.36679688 65.94652344 -27.58984375 65.95117188 C-25.72652873 65.96296501 -23.86325445 65.98090058 -22 66 C-22.16226074 65.01104736 -22.32452148 64.02209473 -22.49169922 63.00317383 C-23.0630244 58.98619718 -23.14450839 55.00131928 -23.1328125 50.94921875 C-23.13424759 49.83919243 -23.13424759 49.83919243 -23.13571167 48.70674133 C-23.13638753 47.15629999 -23.13457501 45.60585571 -23.13037109 44.05541992 C-23.12497586 41.67685689 -23.1303557 39.29847941 -23.13671875 36.91992188 C-23.13605861 35.40885375 -23.13477878 33.89778574 -23.1328125 32.38671875 C-23.13483673 31.67529221 -23.13686096 30.96386566 -23.13894653 30.23088074 C-23.11498818 25.22997636 -23.11498818 25.22997636 -22 23 C-22.886875 22.773125 -23.77375 22.54625 -24.6875 22.3125 C-30.09424689 20.17020406 -33.52574485 16.22342755 -36 11 C-35.67 10.01 -35.34 9.02 -35 8 C-30.13209925 7.6522928 -27.16343644 8.445164 -23 11 C-22.01 12.485 -22.01 12.485 -21 14 C-20.01 11.69 -19.02 9.38 -18 7 C-17.34 7 -16.68 7 -16 7 C-15.6596875 6.1028125 -15.6596875 6.1028125 -15.3125 5.1875 C-13.31808244 1.86347074 -10.56139891 0.58552459 -7 -0.75 C-4.49642808 -1.06294649 -2.45184387 -0.53230821 0 0 Z " fill="#609132" transform="translate(275,196)"/>
<path d="M0 0 C1.98 0.495 1.98 0.495 4 1 C4.33 2.32 4.66 3.64 5 5 C5.4125 4.505 5.825 4.01 6.25 3.5 C8 2 8 2 12 2 C12.33 2.66 12.66 3.32 13 4 C14.65 3.67 16.3 3.34 18 3 C18.66 5.97 19.32 8.94 20 12 C21.32 11.34 22.64 10.68 24 10 C23.01 9.34 22.02 8.68 21 8 C21.33 6.68 21.66 5.36 22 4 C28.87800037 4.61372926 35.3664323 5.89896752 42.0625 7.5625 C43.02349609 7.79646484 43.98449219 8.03042969 44.97460938 8.27148438 C47.31762792 8.842668 49.65899293 9.42062747 52 10 C51.67 12.97 51.34 15.94 51 19 C52.32 19.33 53.64 19.66 55 20 C55.66 17.36 56.32 14.72 57 12 C59.475 12.495 59.475 12.495 62 13 C62 13.66 62 14.32 62 15 C62.66 14.67 63.32 14.34 64 14 C68.61826586 13.59841166 70.43346178 14.17136624 74 17 C74.99 16.67 75.98 16.34 77 16 C77.66 16.33 78.32 16.66 79 17 C78.01 21.29 77.02 25.58 76 30 C63.47211538 28.51153846 63.47211538 28.51153846 61.08203125 25.921875 C60.72496094 25.28765625 60.36789062 24.6534375 60 24 C59.67 24.66 59.34 25.32 59 26 C52.8887076 24.9611908 46.92295536 23.84269722 41 22 C41 20.68 41 19.36 41 18 C40.34 18 39.68 18 39 18 C39 18.99 39 19.98 39 21 C33.63690967 20.45274588 28.35723727 19.57021414 23.0625 18.5625 C22.05014282 18.37917114 22.05014282 18.37917114 21.01733398 18.19213867 C19.33033785 17.86194828 17.66224391 17.43809455 16 17 C15.67 16.34 15.34 15.68 15 15 C13.9790625 15.2784375 13.9790625 15.2784375 12.9375 15.5625 C9.3820124 16.09204071 6.51027761 15.72854818 3 15 C0.623045 12.623045 0.44788865 11.31588099 -0.1875 8.0625 C-0.36667969 7.18722656 -0.54585938 6.31195313 -0.73046875 5.41015625 C-1 3 -1 3 0 0 Z M9 8 C10 10 10 10 10 10 Z M36 8 C37 10 37 10 37 10 Z M8 10 C9 12 9 12 9 12 Z M30 10 C30 10.66 30 11.32 30 12 C29.01 12.33 28.02 12.66 27 13 C27 13.66 27 14.32 27 15 C28.32 15 29.64 15 31 15 C31 13.35 31 11.7 31 10 C30.67 10 30.34 10 30 10 Z M35 12 C36 15 36 15 36 15 Z M45 17 C46 19 46 19 46 19 Z M66 18 C64.70366379 19.06645115 64.70366379 19.06645115 64.9375 21.5625 C64.958125 22.366875 64.97875 23.17125 65 24 C65.66 23.67 66.32 23.34 67 23 C66.67 22.01 66.34 21.02 66 20 C66.99 19.67 67.98 19.34 69 19 C68.01 18.67 67.02 18.34 66 18 Z " fill="#0D2473" transform="translate(371,109)"/>
<path d="M0 0 C0.99 0 1.98 0 3 0 C2.823479 1.03817871 2.64695801 2.07635742 2.46508789 3.14599609 C1.80381334 7.04060836 1.14700123 10.93596276 0.49145508 14.83154297 C0.20847042 16.50947932 -0.07568393 18.18721888 -0.36108398 19.86474609 C-1.83992551 28.56168099 -3.29197418 37.19897021 -4 46 C0.455 47.98 0.455 47.98 5 50 C4.67 51.32 4.34 52.64 4 54 C-0.95 52.515 -0.95 52.515 -6 51 C-6.66 54.3 -7.32 57.6 -8 61 C-6.5975 61.45375 -5.195 61.9075 -3.75 62.375 C-0.68124642 63.36783204 2.14589666 64.49439503 5 66 C5 67.32 5 68.64 5 70 C-0.07002337 69.38170447 -3.02322476 68.13290367 -8 66 C-9.32 72.93 -10.64 79.86 -12 87 C-8.6278125 87.185625 -8.6278125 87.185625 -5.1875 87.375 C1.625 87.75 1.625 87.75 5 90 C5 91.32 5 92.64 5 94 C0.60114697 94.77626818 -2.67331602 95.00094928 -7 94 C-7.93199219 93.80921875 -8.86398437 93.6184375 -9.82421875 93.421875 C-10.76910156 93.20015625 -11.71398437 92.9784375 -12.6875 92.75 C-13.64011719 92.53859375 -14.59273438 92.3271875 -15.57421875 92.109375 C-18 91 -18 91 -19.25292969 88.9855957 C-20.32240579 84.71153581 -19.36517346 81.3550137 -18.37890625 77.12109375 C-17.98857163 75.31938241 -17.60081161 73.51711179 -17.21533203 71.71435547 C-17.01224426 70.77630066 -16.80915649 69.83824585 -16.59991455 68.87176514 C-15.61424427 64.15340394 -14.78913203 59.4089267 -13.96484375 54.66015625 C-13.79796051 53.70901947 -13.63107727 52.75788269 -13.45913696 51.77792358 C-12.77719986 47.88864927 -12.10002034 43.9985584 -11.42456055 40.1081543 C-5.39493671 5.44428065 -5.39493671 5.44428065 0 0 Z " fill="#0C2374" transform="translate(458,227)"/>
<path d="M0 0 C7.41396924 6.61245905 8.57852643 13.90178694 10.0625 23.3125 C10.38547478 25.2879642 10.70968404 27.26322698 11.03515625 29.23828125 C11.19604736 30.21837158 11.35693848 31.19846191 11.52270508 32.20825195 C12.08056922 35.47125779 12.72930258 38.70913433 13.39086914 41.95239258 C14.72614663 48.63306149 15.96531927 55.33195709 17.1965332 62.0324707 C17.52498331 63.80864916 17.85769674 65.58404431 18.19458008 67.35864258 C18.68583848 69.9494998 19.16268159 72.54266245 19.63671875 75.13671875 C19.8647242 76.31508553 19.8647242 76.31508553 20.09733582 77.51725769 C20.94596227 82.26269758 21.07319749 86.21893793 20 91 C16.79933771 93.86418241 11.51164567 93.7398261 7.375 94.1875 C6.59898438 94.28224609 5.82296875 94.37699219 5.0234375 94.47460938 C-0.73999956 95.13000022 -0.73999956 95.13000022 -3 94 C-3 92.35 -3 90.7 -3 89 C-1.10507994 88.66151348 0.79098466 88.32943089 2.6875 88 C3.74324219 87.814375 4.79898438 87.62875 5.88671875 87.4375 C8.64904062 87.04931926 11.21742043 86.91740024 14 87 C13.690625 85.7625 13.38125 84.525 13.0625 83.25 C11.78031188 77.54835497 11.37429453 71.82126496 11 66 C10.15695313 66.28875 9.31390625 66.5775 8.4453125 66.875 C7.34960938 67.24625 6.25390625 67.6175 5.125 68 C4.03445312 68.37125 2.94390625 68.7425 1.8203125 69.125 C-1 70 -1 70 -3 70 C-2.8125 67.640625 -2.8125 67.640625 -2 65 C0.25 63.671875 0.25 63.671875 3 62.75 C6.26349709 61.8165647 6.26349709 61.8165647 9 60 C8.91062197 58.47480724 8.75462854 56.95318071 8.5625 55.4375 C8.46066406 54.61121094 8.35882813 53.78492188 8.25390625 52.93359375 C8.17011719 52.29550781 8.08632813 51.65742188 8 51 C7.45730469 51.2165625 6.91460937 51.433125 6.35546875 51.65625 C5.64003906 51.9346875 4.92460938 52.213125 4.1875 52.5 C3.47980469 52.7784375 2.77210937 53.056875 2.04296875 53.34375 C0 54 0 54 -3 54 C-3 51.6875 -3 51.6875 -2 49 C-0.15234375 48.08129883 -0.15234375 48.08129883 2.0625 47.33203125 C3.16271484 46.95075073 3.16271484 46.95075073 4.28515625 46.56176758 C4.85105469 46.37638428 5.41695312 46.19100098 6 46 C4.41784715 34.16981168 2.65358959 22.43695732 0.18261719 10.75512695 C-0.0702002 9.51315552 -0.0702002 9.51315552 -0.328125 8.24609375 C-0.55870605 7.15832642 -0.55870605 7.15832642 -0.79394531 6.04858398 C-1.0213757 3.78748398 -0.67372304 2.15621722 0 0 Z " fill="#0C2374" transform="translate(53,227)"/>
<path d="M0 0 C21.78 0 43.56 0 66 0 C66 10.23 66 20.46 66 31 C63.03 31 60.06 31 57 31 C57.33 22.42 57.66 13.84 58 5 C41.5 5 25 5 8 5 C8.33 7.31 8.66 9.62 9 12 C9.07208188 13.61199883 9.10878433 15.22627249 9.09765625 16.83984375 C9.09443359 17.67451172 9.09121094 18.50917969 9.08789062 19.36914062 C9.07951172 20.21669922 9.07113281 21.06425781 9.0625 21.9375 C9.05798828 22.81212891 9.05347656 23.68675781 9.04882812 24.58789062 C9.03714834 26.72529047 9.01921689 28.86265463 9 31 C5.7 31 2.4 31 -1 31 C-1.02915731 26.95834861 -1.04685173 22.9167245 -1.0625 18.875 C-1.07087891 17.73289062 -1.07925781 16.59078125 -1.08789062 15.4140625 C-1.09111328 14.30546875 -1.09433594 13.196875 -1.09765625 12.0546875 C-1.10289307 11.03874512 -1.10812988 10.02280273 -1.11352539 8.97607422 C-1 6 -1 6 0 0 Z " fill="#0C2274" transform="translate(224,369)"/>
<path d="M0 0 C1.32 0 2.64 0 4 0 C4.495 4.455 4.495 4.455 5 9 C6.32 8.67 7.64 8.34 9 8 C9 10.31 9 12.62 9 15 C8.27039063 14.96519531 7.54078125 14.93039063 6.7890625 14.89453125 C-3.08169685 14.63862267 -12.32835504 16.17639018 -22 18 C-22.99 15.69 -23.98 13.38 -25 11 C-25.99 11 -26.98 11 -28 11 C-27.2265625 12.1446875 -27.2265625 12.1446875 -26.4375 13.3125 C-25.963125 14.199375 -25.48875 15.08625 -25 16 C-25.33 16.99 -25.66 17.98 -26 19 C-28.38564077 18.42415568 -30.66682784 17.77772405 -33 17 C-33.33 17.99 -33.66 18.98 -34 20 C-36.96578836 21.16513114 -39.84563636 21.08762121 -43 21 C-43.66 18.36 -44.32 15.72 -45 13 C-45.99 13 -46.98 13 -48 13 C-48.33 12.01 -48.66 11.02 -49 10 C-45.96474514 7.97649676 -44.80573798 7.67875982 -41.3125 7.375 C-40.50425781 7.30023438 -39.69601563 7.22546875 -38.86328125 7.1484375 C-37.94095703 7.07496094 -37.94095703 7.07496094 -37 7 C-37 8.32 -37 9.64 -37 11 C-37.99 11 -38.98 11 -40 11 C-39.34 12.98 -38.68 14.96 -38 17 C-37.34 13.7 -36.68 10.4 -36 7 C-34.35 6.67 -32.7 6.34 -31 6 C-30.67 6.33 -30.34 6.66 -30 7 C-29.67 6.34 -29.34 5.68 -29 5 C-26.0170339 4.40227901 -23.03669195 4.25662185 -20 4 C-19.67 6.97 -19.34 9.94 -19 13 C-17.68 12.67 -16.36 12.34 -15 12 C-15 9.03 -15 6.06 -15 3 C-8.63914373 0.79816514 -8.63914373 0.79816514 -5.625 1.75 C-4 3 -4 3 -3 5 C-2.38125 3.7625 -2.38125 3.7625 -1.75 2.5 C-0.88375 1.2625 -0.88375 1.2625 0 0 Z M-10 7 C-9 10 -9 10 -9 10 Z " fill="#0D2473" transform="translate(152,107)"/>
<path d="M0 0 C0.99 0.33 1.98 0.66 3 1 C2.81824219 2.23153809 2.63648438 3.46307617 2.44921875 4.73193359 C1.77687485 9.29015243 1.10641145 13.84864621 0.43652344 18.40722656 C0.14602333 20.38223735 -0.14499048 22.35717265 -0.43652344 24.33203125 C-0.8548594 27.1664708 -1.27136259 30.00117444 -1.6875 32.8359375 C-1.81874268 33.72243988 -1.94998535 34.60894226 -2.08520508 35.52230835 C-2.20532959 36.34300812 -2.3254541 37.16370789 -2.44921875 38.00927734 C-2.55580811 38.73319672 -2.66239746 39.45711609 -2.7722168 40.20297241 C-3.04191645 42.02878627 -3.04191645 42.02878627 -3 44 C-2.10464035 44.16579811 -2.10464035 44.16579811 -1.19119263 44.33494568 C5.00586601 45.4830965 11.20213208 46.63545198 17.39794922 47.7902832 C19.71220041 48.22105696 22.02665339 48.65074812 24.34130859 49.0793457 C27.66296832 49.69459959 30.9838895 50.31370789 34.3046875 50.93359375 C35.34430634 51.12529648 36.38392517 51.31699921 37.45504761 51.51451111 C38.89631516 51.78467796 38.89631516 51.78467796 40.36669922 52.06030273 C41.21497284 52.21796616 42.06324646 52.37562958 42.93722534 52.53807068 C45 53 45 53 47 54 C46.67 55.65 46.34 57.3 46 59 C43.27070664 58.52154615 40.54156349 58.04226177 37.8125 57.5625 C37.04357422 57.42779297 36.27464844 57.29308594 35.48242188 57.15429688 C34.73154297 57.02216797 33.98066406 56.89003906 33.20703125 56.75390625 C32.17799683 56.57323608 32.17799683 56.57323608 31.12817383 56.38891602 C28.74618017 55.95361535 26.3739079 55.4773445 24 55 C22.42358224 54.69710247 20.84674711 54.39637016 19.26953125 54.09765625 C18.38330078 53.92943359 17.49707031 53.76121094 16.58398438 53.58789062 C14.75589664 53.24133981 12.92777243 52.89498139 11.09960938 52.54882812 C5.05899612 51.40176583 -0.97310859 50.21710153 -7 49 C-7.92292001 44.60396454 -7.94194723 41.07127487 -7.2578125 36.640625 C-7.07863281 35.44179688 -6.89945312 34.24296875 -6.71484375 33.0078125 C-6.52019531 31.76773437 -6.32554687 30.52765625 -6.125 29.25 C-5.75062172 26.79717676 -5.37819117 24.34405537 -5.0078125 21.890625 C-4.82951904 20.71935059 -4.65122559 19.54807617 -4.4675293 18.34130859 C-3.9391048 14.5647981 -3.57317375 10.79426431 -3.29663086 6.99169922 C-2.88069283 4.19892354 -1.7007078 2.21831452 0 0 Z " fill="#0D2473" transform="translate(416,294)"/>
<path d="M0 0 C1.93164062 0.77026367 1.93164062 0.77026367 4 2 C4.91013599 5.05870701 5.4979705 7.86284746 6 11 C6.19335938 12.12712402 6.38671875 13.25424805 6.5859375 14.41552734 C7.1330163 17.65958643 7.66161024 20.90540915 8.17724609 24.15454102 C8.49669275 26.16666833 8.82025426 28.17809924 9.14453125 30.18945312 C10.1833493 36.65859148 11.18902675 43.13305575 12.15625 49.61328125 C12.31931641 50.70036377 12.48238281 51.78744629 12.65039062 52.9074707 C13.55321615 60.8935677 13.55321615 60.8935677 12 64 C4.72375106 66.60684509 -3.30416067 67.7077331 -10.875 69.1875 C-11.77831055 69.36651855 -12.68162109 69.54553711 -13.61230469 69.72998047 C-18.14079451 70.59178925 -22.36523442 71.22179571 -27 71 C-27 69.35 -27 67.7 -27 66 C-26.04633545 65.823479 -25.0926709 65.64695801 -24.11010742 65.46508789 C-20.57064368 64.80935965 -17.03170591 64.15083029 -13.49291992 63.49145508 C-11.96148646 63.20651082 -10.42991158 62.92232554 -8.89819336 62.63891602 C-6.6960749 62.2313278 -4.4944801 61.82100936 -2.29296875 61.41015625 C-1.60849167 61.28407486 -0.92401459 61.15799347 -0.21879578 61.02809143 C2.60588085 60.49861031 5.26881189 59.91039604 8 59 C7.18398761 53.23801597 6.36603773 47.47631131 5.54638672 41.71484375 C5.2685262 39.759839 4.9911709 37.80476237 4.71435547 35.84960938 C4.31354452 33.01933425 3.91122766 30.18928006 3.5078125 27.359375 C3.31242889 25.98803406 3.31242889 25.98803406 3.11309814 24.58898926 C2.28387583 18.82341974 1.37721652 13.07888733 0.32763672 7.34863281 C-0.01805912 4.8705449 -0.0573744 2.49884995 0 0 Z " fill="#0E2573" transform="translate(77,267)"/>
<path d="M0 0 C2.3967825 1.51206413 3.78424132 2.40961013 4.77319336 5.11572266 C4.89831299 5.9154248 5.02343262 6.71512695 5.15234375 7.5390625 C5.29913574 8.42754883 5.44592773 9.31603516 5.59716797 10.23144531 C5.73010254 11.14506836 5.86303711 12.05869141 6 13 C6.20520264 14.28148926 6.20520264 14.28148926 6.41455078 15.58886719 C10.96247008 44.55629487 10.96247008 44.55629487 8 49 C5.28737011 49.81528766 2.70492655 50.45065419 -0.0625 51 C-0.86453857 51.16878662 -1.66657715 51.33757324 -2.49291992 51.51147461 C-8.61388841 52.77885397 -14.76260632 53.88354311 -20.92700195 54.91699219 C-26.44745479 55.85404801 -31.85030062 57.11588255 -37.265625 58.546875 C-40.17082999 59.02830897 -42.17639418 58.76257968 -45 58 C-45 56.68 -45 55.36 -45 54 C-39.35965604 52.27329554 -33.71032175 51.11069563 -27.91015625 50.0546875 C-26.96563095 49.87994904 -26.02110565 49.70521057 -25.04795837 49.525177 C-22.05338334 48.97192848 -19.05796731 48.42339464 -16.0625 47.875 C-14.02272894 47.49900981 -11.98301476 47.12271095 -9.94335938 46.74609375 C-4.96289058 45.82715603 0.01833752 44.91244349 5 44 C4.71950806 42.10725342 4.71950806 42.10725342 4.43334961 40.17626953 C3.7430802 35.50694092 3.06107281 30.83643704 2.3815918 26.16552734 C2.08600509 24.14175775 1.78816043 22.11831664 1.48803711 20.09521484 C1.05773342 17.1919096 0.6354892 14.28753072 0.21484375 11.3828125 C0.07843979 10.47443634 -0.05796417 9.56606018 -0.19850159 8.63015747 C-0.31870163 7.78943695 -0.43890167 6.94871643 -0.56274414 6.08251953 C-0.67155411 5.34083527 -0.78036407 4.599151 -0.89247131 3.83499146 C-1 2 -1 2 0 0 Z " fill="#0D2473" transform="translate(95,294)"/>
<path d="M0 0 C0.66 0.33 1.32 0.66 2 1 C0.08074546 17.07265119 -2.14674868 33.08224077 -4.56542969 49.08691406 C-5.28596932 53.91695838 -5.95164558 58.75423647 -6.60546875 63.59375 C-7 66 -7 66 -8 69 C-7.06800781 69.10957031 -6.13601563 69.21914063 -5.17578125 69.33203125 C3.36881981 70.39470661 11.6391578 71.8851158 20 74 C20 75.65 20 77.3 20 79 C13.70856325 78.26895277 7.48407629 77.30542507 1.25 76.1875 C0.31800781 76.03474609 -0.61398437 75.88199219 -1.57421875 75.72460938 C-2.47269531 75.56154297 -3.37117188 75.39847656 -4.296875 75.23046875 C-5.10479492 75.09020264 -5.91271484 74.94993652 -6.74511719 74.80541992 C-9.74570199 73.73364326 -11.12698439 72.58082381 -13 70 C-13.09155273 67.22900391 -13.09155273 67.22900391 -12.49609375 63.8515625 C-12.3913121 63.21344635 -12.28653046 62.5753302 -12.17857361 61.9178772 C-11.93717855 60.44861842 -11.68677504 58.98082302 -11.42938232 57.51428223 C-10.95524712 54.73794596 -10.53270492 51.95667644 -10.11767578 49.17089844 C-9.30284309 43.70332288 -8.45596804 38.24139936 -7.59594727 32.78076172 C-7.23762083 30.49304829 -6.88384533 28.20461781 -6.53442383 25.91552734 C-6.02417249 22.57479384 -5.4999787 19.23651354 -4.97265625 15.8984375 C-4.81942398 14.87761078 -4.66619171 13.85678406 -4.50831604 12.80502319 C-3.72431947 7.94095731 -3.05035605 4.02999691 0 0 Z " fill="#0D2573" transform="translate(443,252)"/>
<path d="M0 0 C0.33 0 0.66 0 1 0 C0.25891692 10.96640082 -1.48224538 21.81880931 -3.0625 32.6875 C-3.34726671 34.66076957 -3.63177414 36.63407658 -3.91601562 38.60742188 C-4.60768646 43.40538504 -5.30287151 48.2028269 -6 53 C-5.44090439 53.05623535 -4.88180878 53.1124707 -4.30577087 53.17041016 C0.78046279 53.70510175 5.77827452 54.43329842 10.80859375 55.375 C11.50138931 55.50438965 12.19418488 55.6337793 12.90797424 55.76708984 C14.35260975 56.03776705 15.79694056 56.31007537 17.2409668 56.58398438 C19.4559948 57.00350285 21.67223395 57.41612773 23.88867188 57.828125 C25.29955561 58.09334367 26.71036575 58.35895423 28.12109375 58.625 C29.3939624 58.86476563 30.66683105 59.10453125 31.97827148 59.3515625 C35 60 35 60 37 61 C36.67 62.65 36.34 64.3 36 66 C30.87653403 65.04279332 25.75367983 64.0823962 20.63134766 63.11914062 C18.89160022 62.79243355 17.15169364 62.46657267 15.41162109 62.14160156 C12.89898225 61.67219167 10.38694666 61.19966078 7.875 60.7265625 C7.10696045 60.58376862 6.3389209 60.44097473 5.54760742 60.29385376 C3.36106638 59.88029238 1.18008762 59.44625996 -1 59 C-1.74604492 58.85246277 -2.49208984 58.70492554 -3.26074219 58.55291748 C-8.76560339 57.35159492 -8.76560339 57.35159492 -11 54 C-10.94782278 51.30520011 -10.76005012 48.79100403 -10.4375 46.125 C-10.34525146 45.31724121 -10.25300293 44.50948242 -10.15795898 43.67724609 C-9.17827688 35.62736386 -7.89094986 27.62361406 -6.5625 19.625 C-6.3574585 18.35930176 -6.15241699 17.09360352 -5.94116211 15.78955078 C-5.63190796 13.99493408 -5.63190796 13.99493408 -5.31640625 12.1640625 C-5.13537354 11.09623535 -4.95434082 10.0284082 -4.76782227 8.92822266 C-3.87002615 5.50432229 -2.53494777 2.53494777 0 0 Z " fill="#0D2473" transform="translate(426,280)"/>
<path d="M0 0 C5.15324664 4.1678114 5.99193827 7.66419848 6.80078125 14.10546875 C6.98993355 15.4243383 6.98993355 15.4243383 7.1829071 16.76985168 C7.44530371 18.62686526 7.69769029 20.48531741 7.94067383 22.3449707 C8.30939251 25.16374395 8.7074376 27.97708892 9.11132812 30.79101562 C9.36371876 32.60392533 9.61442358 34.4170707 9.86328125 36.23046875 C10.03661736 37.47475899 10.03661736 37.47475899 10.2134552 38.7441864 C10.96067249 44.52121702 11.12616822 50.17809999 11 56 C7.44767813 57.87363245 4.20628343 58.70034261 0.25 59.47265625 C-0.40395752 59.60063095 -1.05791504 59.72860565 -1.73168945 59.86045837 C-3.11629693 60.12970247 -4.50148803 60.39596018 -5.88720703 60.65942383 C-7.96704502 61.05621289 -10.04404509 61.46584483 -12.12109375 61.87695312 C-20.05543657 63.41978153 -27.91853374 64.54752207 -36 65 C-36 63.68 -36 62.36 -36 61 C-27.39171104 58.73263818 -18.75570519 56.91015073 -10 55.3125 C-8.79988281 55.08755859 -7.59976563 54.86261719 -6.36328125 54.63085938 C2.48995536 53 2.48995536 53 7 53 C5.75529769 44.07963348 4.35228292 35.18256573 2.9296875 26.2890625 C2.578125 24.06770833 2.2265625 21.84635417 1.875 19.625 C1.69324219 18.50222656 1.51148438 17.37945312 1.32421875 16.22265625 C0.46507253 10.75125136 -0.23947705 5.53990237 0 0 Z " fill="#0D2473" transform="translate(86,280)"/>
<path d="M0 0 C-1.63131542 13.97486771 -3.52364445 27.9014767 -5.625 41.8125 C-5.73500336 42.54644989 -5.84500671 43.28039978 -5.95834351 44.03659058 C-6.27372098 46.13557118 -6.59310464 48.23389748 -6.9140625 50.33203125 C-7.0992041 51.54608643 -7.2843457 52.7601416 -7.47509766 54.01098633 C-8 57 -8 57 -9 60 C-7.75863281 60.12503906 -6.51726562 60.25007813 -5.23828125 60.37890625 C0.48338292 61.01638949 6.14087573 61.957624 11.8125 62.9375 C13.34680664 63.19176758 13.34680664 63.19176758 14.91210938 63.45117188 C16.3884082 63.70543945 16.3884082 63.70543945 17.89453125 63.96484375 C18.77987549 64.1155835 19.66521973 64.26632324 20.57739258 64.42163086 C22.9674089 64.99221926 24.85994229 65.80921407 27 67 C26.67 68.65 26.34 70.3 26 72 C21.08722236 71.04714964 16.17602169 70.08666723 11.26611328 69.11914062 C9.59627572 68.79120047 7.9260294 68.46533453 6.25537109 68.14160156 C3.85142823 67.67539967 1.44906337 67.20171133 -0.953125 66.7265625 C-1.69806213 66.58376862 -2.44299927 66.44097473 -3.21051025 66.29385376 C-6.74309425 65.58779409 -9.88716481 64.85490864 -13 63 C-12.48933055 51.52363817 -10.86306804 40.2766448 -9.09863281 28.9375 C-8.6208448 25.84813256 -8.16174417 22.75632663 -7.703125 19.6640625 C-7.39956767 17.68993005 -7.09492024 15.71596485 -6.7890625 13.7421875 C-6.65456696 12.82243134 -6.52007141 11.90267517 -6.38150024 10.95504761 C-4.6309986 0 -4.6309986 0 0 0 Z " fill="#0D2473" transform="translate(436,267)"/>
<path d="M0 0 C4.32484185 3.72459533 5.69431749 6.15605248 6.44140625 11.79296875 C6.53460144 12.44840668 6.62779663 13.1038446 6.72381592 13.77914429 C7.02293633 15.91309775 7.29282117 18.04964496 7.5625 20.1875 C7.76441455 21.66882695 7.96845605 23.14986544 8.17456055 24.63061523 C8.59129548 27.63454642 8.99862748 30.63954054 9.40039062 33.64550781 C10.40026506 41.02722143 11.62437631 48.37525604 12.83227539 55.7253418 C13.7018108 61.23028482 14.17893586 66.42647928 14 72 C6.27566122 75.37939822 -1.74890735 76.55671087 -10 78 C-10.92425781 78.19335938 -11.84851562 78.38671875 -12.80078125 78.5859375 C-15 79 -15 79 -18 79 C-18 77.35 -18 75.7 -18 74 C-13.8967776 73.16197087 -9.79227638 72.33038122 -5.6875 71.5 C-3.93663086 71.14228516 -3.93663086 71.14228516 -2.15039062 70.77734375 C-1.03212891 70.55175781 0.08613281 70.32617188 1.23828125 70.09375 C2.26993408 69.88427734 3.30158691 69.67480469 4.36450195 69.45898438 C7 69 7 69 10 69 C9.82585571 68.07755493 9.82585571 68.07755493 9.64819336 67.13647461 C8.13229685 58.96884514 6.83231796 50.77114318 5.5625 42.5625 C5.34220978 41.14208891 5.1219135 39.72167877 4.90161133 38.30126953 C4.46688236 35.49576727 4.03336766 32.69008059 3.60058594 29.88427734 C3.07432441 26.4806916 2.54218489 23.07810026 2.0078125 19.67578125 C1.73402757 17.90890797 1.4605595 16.14198554 1.1875 14.375 C1.06383057 13.59584229 0.94016113 12.81668457 0.81274414 12.01391602 C0.19592375 7.97081923 -0.12255819 4.08957343 0 0 Z " fill="#0D2473" transform="translate(68,252)"/>
<path d="M0 0 C11.22 0 22.44 0 34 0 C34 3.63 34 7.26 34 11 C27.01009652 11.81042359 20.09301089 12.1339393 13.0625 12.1875 C11.81956177 12.20683594 11.81956177 12.20683594 10.55151367 12.2265625 C9.36779175 12.22849609 9.36779175 12.22849609 8.16015625 12.23046875 C7.45511963 12.23457764 6.75008301 12.23868652 6.02368164 12.24291992 C4 12 4 12 0 10 C0 6.7 0 3.4 0 0 Z " fill="#619331" transform="translate(238,279)"/>
<path d="M0 0 C1.65 0 3.3 0 5 0 C4.855625 0.59167969 4.71125 1.18335937 4.5625 1.79296875 C3.59177306 5.92529941 2.72406298 9.7229762 3 14 C0.625 13.8125 0.625 13.8125 -2 13 C-3.25 10.5 -3.25 10.5 -4 8 C-4.33 7.67 -4.66 7.34 -5 7 C-5 9.97 -5 12.94 -5 16 C-9.33085971 17.29925791 -13.51474352 18.343621 -18 19 C-18.33 18.34 -18.66 17.68 -19 17 C-19.515625 17.66 -20.03125 18.32 -20.5625 19 C-23 21 -23 21 -26.5625 21.5 C-30 21 -30 21 -31.9375 19.4375 C-33.39343329 16.09741776 -33.3931463 13.60384106 -33 10 C-31.9375 8.0625 -31.9375 8.0625 -30 7 C-26.375 6.75 -26.375 6.75 -23 7 C-22.67 7.33 -22.34 7.66 -22 8 C-21.67 7.01 -21.34 6.02 -21 5 C-19.68 5 -18.36 5 -17 5 C-16.34 7.97 -15.68 10.94 -15 14 C-13.35 13.67 -11.7 13.34 -10 13 C-10.66 10.03 -11.32 7.06 -12 4 C-8.75 2.375 -8.75 2.375 -5 1 C-2.5625 1.8125 -2.5625 1.8125 -1 3 C-0.67 2.01 -0.34 1.02 0 0 Z M-28 11 C-28.33 12.32 -28.66 13.64 -29 15 C-27.02 15.99 -27.02 15.99 -25 17 C-24.67 15.68 -24.34 14.36 -24 13 C-25.32 12.34 -26.64 11.68 -28 11 Z " fill="#0D2473" transform="translate(97,117)"/>
<path d="M0 0 C1.32 0.33 2.64 0.66 4 1 C4 1.66 4 2.32 4 3 C4.66 3 5.32 3 6 3 C6 2.01 6 1.02 6 0 C7.32 0 8.64 0 10 0 C11.21693876 2.43387753 11.31959896 4.41838846 11.5625 7.125 C11.64628906 8.03507812 11.73007813 8.94515625 11.81640625 9.8828125 C11.87699219 10.58148438 11.93757813 11.28015625 12 12 C9.625 12.625 9.625 12.625 7 13 C6.34 12.34 5.68 11.68 5 11 C4.67 11.99 4.34 12.98 4 14 C1.36 14.33 -1.28 14.66 -4 15 C-4.33 14.34 -4.66 13.68 -5 13 C-5.99 12.67 -6.98 12.34 -8 12 C-8 12.99 -8 13.98 -8 15 C-9.32 15.33 -10.64 15.66 -12 16 C-12.103125 15.360625 -12.20625 14.72125 -12.3125 14.0625 C-12.539375 13.381875 -12.76625 12.70125 -13 12 C-13.99 11.67 -14.98 11.34 -16 11 C-16 12.65 -16 14.3 -16 16 C-17.65 15.67 -19.3 15.34 -21 15 C-21.33 11.04 -21.66 7.08 -22 3 C-18.78548731 1.39274365 -15.56387464 1.94251815 -12 2 C-11.67 3.65 -11.34 5.3 -11 7 C-10.34 5.02 -9.68 3.04 -9 1 C-7.68 1 -6.36 1 -5 1 C-4.01 2.98 -3.02 4.96 -2 7 C-1.34 4.69 -0.68 2.38 0 0 Z " fill="#0D2473" transform="translate(186,103)"/>
<path d="M0 0 C1.32 0 2.64 0 4 0 C4.33 0.66 4.66 1.32 5 2 C5.33 1.34 5.66 0.68 6 0 C7.32 0 8.64 0 10 0 C14.40774487 8.261959 14.40774487 8.261959 15 13 C13.68 13.33 12.36 13.66 11 14 C10.67 13.01 10.34 12.02 10 11 C9.01 11 8.02 11 7 11 C7 11.99 7 12.98 7 14 C3.37 14 -0.26 14 -4 14 C-4.83790789 12.21046815 -5.67019396 10.41830305 -6.5 8.625 C-7.19609375 7.12839844 -7.19609375 7.12839844 -7.90625 5.6015625 C-9 3 -9 3 -9 1 C-7.35 1 -5.7 1 -4 1 C-3.67 2.32 -3.34 3.64 -3 5 C-2.34 5 -1.68 5 -1 5 C-0.67 3.35 -0.34 1.7 0 0 Z M3 6 C4 8 4 8 4 8 Z M2 8 C3 11 3 11 3 11 Z " fill="#0D2473" transform="translate(208,101)"/>
<path d="M0 0 C3.97915159 -0.02886984 7.95827653 -0.04675406 11.9375 -0.0625 C13.07380859 -0.07087891 14.21011719 -0.07925781 15.38085938 -0.08789062 C16.46044922 -0.09111328 17.54003906 -0.09433594 18.65234375 -0.09765625 C20.15269165 -0.10551147 20.15269165 -0.10551147 21.68334961 -0.11352539 C24 0 24 0 25 1 C25.125 4 25.125 4 25 7 C24 8 24 8 21.68334961 8.11352539 C20.68311768 8.10828857 19.68288574 8.10305176 18.65234375 8.09765625 C17.57275391 8.09443359 16.49316406 8.09121094 15.38085938 8.08789062 C14.24455078 8.07951172 13.10824219 8.07113281 11.9375 8.0625 C10.79732422 8.05798828 9.65714844 8.05347656 8.48242188 8.04882812 C5.65489649 8.03699747 2.8274736 8.0205141 0 8 C-0.98120464 4.94736336 -0.98120464 3.05263664 0 0 Z " fill="#63962F" transform="translate(243,293)"/>
<path d="M0 0 C2.3125 1.125 2.3125 1.125 4 3 C5.17407634 6.60050078 5.32759676 8.27928713 3.75 11.75 C2 14 2 14 -1 16 C-4.5 15.9375 -4.5 15.9375 -8 15 C-10.55771732 12.20249668 -11.01473364 10.72194838 -10.9375 6.9375 C-9.05783591 1.04788585 -6.1386785 -0.89522395 0 0 Z " fill="#5E8E34" transform="translate(335,203)"/>
<path d="M0 0 C2.3125 1.125 2.3125 1.125 4 3 C5.15365493 6.53787511 5.29067884 8.28945173 3.875 11.75 C1.64613517 14.4246378 0.43129418 15.36161969 -3 16 C-6.24535044 14.8545822 -8.3204471 13.92666305 -10.375 11.125 C-11.15633267 8.46846892 -11.48155218 6.75172677 -11 4 C-7.57562226 0.27347128 -5.00699108 -0.74572208 0 0 Z " fill="#5D8D34" transform="translate(215,143)"/>
<path d="M0 0 C5.4368932 0.77669903 5.4368932 0.77669903 7.5 3.5 C8.00241849 6.56589467 8.11350778 9.44904237 7.5 12.5 C6.18359375 14.25390625 6.18359375 14.25390625 4.5 15.5 C0.4029312 16.03110151 -1.80290142 15.885629 -5.4375 13.875 C-7.5 11.5 -7.5 11.5 -8.0625 8.5625 C-7.09678796 3.30473443 -5.41986887 0.77426698 0 0 Z " fill="#5E8E34" transform="translate(232.5,132.5)"/>
<path d="M0 0 C2.3125 1.125 2.3125 1.125 4 3 C4.99194695 6.25925428 5.11967966 8.41489942 4.4375 11.75 C3 14 3 14 0.1875 15.4375 C-3.46691102 16.08239606 -4.86516137 15.94868347 -8 14 C-10.15482086 11.34238761 -11.02142679 9.87849852 -10.9375 6.4375 C-8.80641664 0.89668326 -5.86218978 -0.85490268 0 0 Z " fill="#5E8F34" transform="translate(184,225)"/>
<path d="M0 0 C2.9375 0.5625 2.9375 0.5625 5.3125 2.125 C7.53214544 5.45446816 7.35857788 7.63243977 6.9375 11.5625 C6.375 13.9375 6.375 13.9375 4.9375 15.5625 C0.87987681 16.78744285 -1.14149475 17.04302448 -4.9375 15.0625 C-7.72507079 11.78300496 -8.2131132 9.85497606 -8.0625 5.5625 C-5.63177503 2.10055838 -4.18428713 0.76854253 0 0 Z " fill="#5F8F33" transform="translate(179.0625,201.4375)"/>
<path d="M0 0 C2.73883355 1.59029045 2.94967699 2.83465297 3.875 5.875 C4 9 4 9 3.0625 11.8125 C0.47542614 14.55636622 -1.28485866 15.02506505 -4.98828125 15.2578125 C-7 15 -7 15 -10.0625 13 C-12 10 -12 10 -12 6.375 C-10.00398084 -0.36156466 -6.61750905 -0.99469865 0 0 Z " fill="#5F9033" transform="translate(324,248)"/>
<path d="M0 0 C2 1.5625 2 1.5625 3 4 C3.29376168 6.91411582 3.13678123 9.28435596 2 12 C-1.25 14.125 -1.25 14.125 -5 15 C-8.25613343 14.20405627 -9.63539592 13.36460408 -12 11 C-13 7.6875 -13 7.6875 -13 4 C-8.9665164 -0.84018032 -6.27185719 -2.01172778 0 0 Z " fill="#5F9033" transform="translate(334,227)"/>
<path d="M0 0 C3.375 1.0625 3.375 1.0625 5.3125 2.75 C6.69931433 5.7683606 6.7862874 7.77220079 6.375 11.0625 C5.25 13.375 5.25 13.375 3.375 15.0625 C-0.28378362 16.25558162 -1.92497692 16.38917744 -5.4375 14.75 C-8.21561831 12.60688016 -8.53744144 11.71918921 -9 8.25 C-8.625 5.0625 -8.625 5.0625 -6.5625 2.125 C-3.625 0.0625 -3.625 0.0625 0 0 Z " fill="#5E8F34" transform="translate(328.625,179.9375)"/>
<path d="M0 0 C1.9375 1.0625 1.9375 1.0625 3 3 C3.37691092 6.47042511 3.59474241 9.81051517 2 13 C-0.75078884 13.91692961 -2.35948913 14.10886083 -5.1875 14.0625 C-7.0746875 14.0315625 -7.0746875 14.0315625 -9 14 C-9 13.34 -9 12.68 -9 12 C-9.66 12 -10.32 12 -11 12 C-12.56430248 8.87139505 -12.35627284 6.44397075 -12 3 C-8.31376997 -1.46815761 -5.41712863 -1.50475795 0 0 Z " fill="#619231" transform="translate(309,266)"/>
<path d="M0 0 C2 1.625 2 1.625 3 4 C3 8.25057808 2.63212638 10.27756985 -0.1875 13.5 C-3 15 -3 15 -6.125 14.9375 C-10.55190311 13.49394464 -10.55190311 13.49394464 -12 11 C-12.39309578 7.90437069 -12.62338668 5.95663395 -12 3 C-8.38525112 -1.49105164 -5.37641793 -1.59301272 0 0 Z " fill="#609132" transform="translate(210,265)"/>
<path d="M0 0 C2.15769396 2.0138477 2.88656108 3.72349263 4 6.4375 C4 9 4 9 1.875 11.75 C-1.01056984 14.00827205 -2.37944993 14.90716538 -6 15 C-8.58650714 14.18709776 -9.67508546 13.45488035 -11.25 11.25 C-12.25319636 8.24041093 -12.45981343 6.15300638 -12 3 C-8.27967458 -1.39674823 -5.40387298 -1.60114755 0 0 Z " fill="#609132" transform="translate(188,180)"/>
<path d="M0 0 C2.4375 1.625 2.4375 1.625 4 4 C4.4923156 7.93852482 4.20793799 10.68809301 2 14 C-0.96448324 15.0988046 -3.8585908 15.22319071 -7 15 C-9.5625 13.5 -9.5625 13.5 -11 11 C-11.56288002 7.05983987 -11.60396028 4.94217804 -9.4375 1.5625 C-6.05782196 -0.60396028 -3.94016013 -0.56288002 0 0 Z " fill="#619232" transform="translate(320,160)"/>
<path d="M0 0 C2.9375 2.0625 2.9375 2.0625 5 5 C5.06584389 8.81894541 4.85572029 10.97971812 2.375 13.9375 C-0.93237046 15.4171131 -3.42006868 15.39053796 -7 15 C-9.68168885 13.39098669 -9.96054846 12.1296265 -10.875 9.125 C-11.02405268 5.39868289 -10.25133987 3.91840353 -8 1 C-5.11138291 -0.44430855 -3.20352299 -0.37688506 0 0 Z " fill="#5E8E34" transform="translate(198,159)"/>
<path d="M0 0 C1.9375 1.0625 1.9375 1.0625 3 3 C3.39330012 6.09723844 3.62240135 8.04211169 3 11 C0.9375 13.625 0.9375 13.625 -2 15 C-5.76030852 14.48133676 -8.08909254 13.76857817 -11 11.3125 C-12.49302187 7.85988693 -11.97563232 5.5773185 -11 2 C-7.79952331 -1.93904824 -4.62362797 -1.17692348 0 0 Z " fill="#5F9033" transform="translate(283,134)"/>
<path d="M0 0 C1.875 1.0625 1.875 1.0625 3 3 C3.5872443 7.46492095 3.53966316 10.19050527 1 14 C-3.08418622 15.15590176 -5.09657635 15.49099112 -8.875 13.4375 C-11.42781397 10.50927221 -11.91957234 8.86052755 -12 5 C-11.19470612 2.36449276 -10.44657038 1.33492778 -8.25 -0.3125 C-5.15305467 -1.25878885 -3.09970844 -0.85736616 0 0 Z " fill="#5E8F33" transform="translate(260,130)"/>
<path d="M0 0 C2.4375 1.5625 2.4375 1.5625 4 4 C4.5625 7.5 4.5625 7.5 4 11 C1.9375 13.5 1.9375 13.5 -1 15 C-4.80284671 15 -7.01930006 14.7968187 -10 12.375 C-11.45635054 8.91616747 -10.91305869 6.58701629 -10 3 C-7.67133148 -1.01048467 -4.26353269 -0.52359173 0 0 Z " fill="#619232" transform="translate(303,144)"/>
<path d="M0 0 C2.68168885 1.60901331 2.96054846 2.8703735 3.875 5.875 C4 9 4 9 3.0625 11.8125 C0.45732207 14.5755675 -1.33653611 14.96815222 -5.05859375 15.1875 C-7 15 -7 15 -9.5 13.5625 C-11.74560721 9.72625434 -11.56127081 7.42000766 -11 3 C-8.06077967 -0.76220202 -4.50768099 -0.49174702 0 0 Z " fill="#609232" transform="translate(194,247)"/>
<path d="M0 0 C2.14762184 3.22143276 2.561068 4.2595467 2 8 C-0.11730187 10.27413905 -1.50343812 10.91522114 -4.5625 11.4375 C-7 11 -7 11 -8.8125 9.3125 C-10.23011404 6.55188318 -10.54893012 5.05832493 -10 2 C-6.90683058 -1.56904164 -4.34457838 -1.32226299 0 0 Z " fill="#578639" transform="translate(223,251)"/>
<path d="M0 0 C2 3 2 3 1.75 6.0625 C1 9 1 9 -1 11 C-4.09771665 11.32954432 -6.17331023 11.45334601 -8.9375 9.9375 C-10.68524469 6.75043615 -9.92651358 4.39721645 -9 1 C-6.04691177 -1.53121849 -3.56890521 -1.22094126 0 0 Z " fill="#5A8937" transform="translate(212,238)"/>
<path d="M0 0 C2.5 0.9375 2.5 0.9375 4.4375 3.1875 C5.5 5.9375 5.5 5.9375 5 8.625 C3.11870962 11.52532266 1.83622867 12.14315984 -1.5 12.9375 C-3.6875 12.875 -3.6875 12.875 -5.5 11.9375 C-6.875 9.6875 -6.875 9.6875 -7.5 6.9375 C-6.40621574 2.66179789 -4.8449926 -0.12112481 0 0 Z " fill="#5B8A36" transform="translate(288.5,162.0625)"/>
<path d="M0 0 C1.875 1.625 1.875 1.625 3 4 C2.875 7.125 2.875 7.125 2 10 C-1 12 -1 12 -4.0625 11.8125 C-7 11 -7 11 -9 8 C-9.375 5.5 -9.375 5.5 -9 3 C-6.27471096 0.07283769 -3.93652862 -0.70655642 0 0 Z " fill="#588738" transform="translate(206,188)"/>
<path d="M0 0 C2.15717092 5.27308448 2.15717092 5.27308448 1.5 8.3125 C0 10 0 10 -2.875 11 C-6 11 -6 11 -8.375 9.375 C-10.29109393 6.57455503 -10.59636329 5.3225955 -10 2 C-7.58628749 -2.25949266 -4.24852727 -0.88176981 0 0 Z " fill="#5C8C35" transform="translate(260,153)"/>
<path d="M0 0 C0.99 0.66 1.98 1.32 3 2 C3.43132515 6.05445642 3.30019361 7.54970958 1 11 C-2.4375 11.4375 -2.4375 11.4375 -6 11 C-8 9.375 -8 9.375 -9 7 C-8.8125 3.8125 -8.8125 3.8125 -8 1 C-5.22899606 -0.38550197 -3.0665294 -0.1877467 0 0 Z " fill="#5C8C35" transform="translate(314,206)"/>
<path d="M0 0 C2.33944736 0.28730055 4.6739143 0.61936779 7 1 C7.66 3.31 8.32 5.62 9 8 C6.17811965 10.73888387 4.82003843 11.98392082 0.8125 12.0625 C-2 11 -2 11 -3.5625 8.75 C-4 6 -4 6 -2.6875 3.25 C-1 1 -1 1 0 0 Z " fill="#5D8E34" transform="translate(197,205)"/>
<path d="M0 0 C2 2.125 2 2.125 3 5 C2.1875 8.3125 2.1875 8.3125 1 11 C-1.69201151 11.74778098 -3.4719851 12.1508614 -6.1875 11.375 C-8.65098164 9.50615186 -9.2882112 7.98951296 -10 5 C-9.25 2.75 -9.25 2.75 -8 1 C-5.13879744 -0.43060128 -3.15989415 -0.38692581 0 0 Z " fill="#5C8C35" transform="translate(227,162)"/>
<path d="M0 0 C2.0062381 1.43302722 2.84633 2.71186875 4 4.875 C4 7 4 7 1.875 9.8125 C-1 12 -1 12 -3.6875 11.9375 C-6 11 -6 11 -8 9 C-8.3125 5.5 -8.3125 5.5 -8 2 C-4.76746204 -0.15502531 -3.74849077 -0.46856135 0 0 Z " fill="#5E8E34" transform="translate(305,238)"/>
<path d="M0 0 C0.9075 0.391875 1.815 0.78375 2.75 1.1875 C4.07850242 7.58846618 4.07850242 7.58846618 2.6875 10.125 C-0.14875113 11.68036352 -2.07282567 11.65083792 -5.25 11.1875 C-7.1875 9.5 -7.1875 9.5 -8.25 7.1875 C-8.17257109 4.01291477 -7.6487107 2.64527895 -5.5625 0.25 C-3.25 -0.8125 -3.25 -0.8125 0 0 Z " fill="#5E8F33" transform="translate(311.25,222.8125)"/>
<path d="M0 0 C2.9375 0.8125 2.9375 0.8125 4.9375 3.8125 C4.0625 7.5 4.0625 7.5 2.9375 10.8125 C0.1875 11.5625 0.1875 11.5625 -3.0625 11.8125 C-5.5 10.25 -5.5 10.25 -7.0625 7.8125 C-7 4.6875 -7 4.6875 -6.0625 1.8125 C-3.0625 -0.1875 -3.0625 -0.1875 0 0 Z " fill="#5E8E34" transform="translate(309.0625,189.1875)"/>
<path d="M0 0 C2.125 5.625 2.125 5.625 1 9 C-1.42604411 10.73288865 -2.63544812 11.03471923 -5.625 10.75 C-8 10 -8 10 -10 8 C-10.375 5.0625 -10.375 5.0625 -10 2 C-6.92702006 -1.66393762 -4.38919352 -1.09729838 0 0 Z " fill="#5E8F33" transform="translate(304,175)"/>
<path d="M0 0 C1.9375 1.125 1.9375 1.125 3 3 C2.77669287 6.64734979 2.61627165 8.38372835 0 11 C-3.10347254 11.33015665 -5.15781176 11.50531294 -7.875 9.875 C-9.52149743 7.13083761 -9.39964378 5.1305429 -9 2 C-5.53076119 -0.31282587 -4.07794425 -0.42478586 0 0 Z " fill="#5F8F33" transform="translate(242,155)"/>
<path d="M0 0 C3.125 0.25 3.125 0.25 4.9375 1.5 C6.33503941 3.55953176 7.04894687 4.74024675 7.125 7.25 C5.35421141 9.5454667 3.72368374 10.92168956 1.1875 12.3125 C-0.875 12.25 -0.875 12.25 -3.625 9.8125 C-4.3675 8.966875 -5.11 8.12125 -5.875 7.25 C-3.66282112 0.31850618 -3.66282112 0.31850618 0 0 Z " fill="#5F8F33" transform="translate(200.875,221.75)"/>
<path d="M0 0 C3.0625 0.375 3.0625 0.375 5 2.0625 C6.33875727 4.97626583 6.01466803 6.35980125 5.0625 9.375 C4.7325 10.035 4.4025 10.695 4.0625 11.375 C-2.36277261 11.85992623 -2.36277261 11.85992623 -4.9375 9.6875 C-6.20076211 6.76620636 -5.95766252 5.35701353 -4.9375 2.375 C-2.9375 0.375 -2.9375 0.375 0 0 Z " fill="#5F9033" transform="translate(290.9375,250.625)"/>
<path d="M0 0 C3.5 0.25 3.5 0.25 5.5 2.25 C5.84490322 6.30261287 5.80163882 7.79754176 3.5 11.25 C0 11.625 0 11.625 -3.5 11.25 C-5.80163882 7.79754176 -5.84490322 6.30261287 -5.5 2.25 C-3.5 0.25 -3.5 0.25 0 0 Z " fill="#5E8F33" transform="translate(211.5,173.75)"/>
<path d="M0 0 C1.670625 0.37125 1.670625 0.37125 3.375 0.75 C4.75625018 3.51250036 4.56579306 5.69731099 4.375 8.75 C2.375 10.75 2.375 10.75 -1.125 11 C-4.625 10.75 -4.625 10.75 -6.625 8.75 C-6.9375 5.25 -6.9375 5.25 -6.625 1.75 C-3.625 -0.25 -3.625 -0.25 0 0 Z " fill="#5F9033" transform="translate(273.625,155.25)"/>
<path d="M0 0 C2.5625 0.1875 2.5625 0.1875 4.5625 2.1875 C4.1875 4.8125 4.1875 4.8125 3.5625 7.1875 C1.25 7.875 1.25 7.875 -1.4375 8.1875 C-3.3125 7 -3.3125 7 -4.4375 5.1875 C-4.02450713 1.6770606 -3.6499568 0.28076591 0 0 Z " fill="#57853A" transform="translate(275.4375,180.8125)"/>
<path d="M0 0 C2.00720923 0.28674418 4.0085944 0.61866701 6 1 C6.04254356 2.99954746 6.04080783 5.00041636 6 7 C5 8 5 8 2.5625 8.25 C1.716875 8.1675 0.87125 8.085 0 8 C-2 5 -2 5 -1.6875 2.875 C-1 1 -1 1 0 0 Z " fill="#598738" transform="translate(287,219)"/>
<path d="M0 0 C2.5625 -0.25 2.5625 -0.25 5 0 C6 1 6 1 6.125 4 C6 7 6 7 5 8 C3.33382885 8.04063832 1.66611905 8.042721 0 8 C-1.125 5.6875 -1.125 5.6875 -2 3 C-1.34 2.01 -0.68 1.02 0 0 Z " fill="#588639" transform="translate(286,198)"/>
<path d="M0 0 C1.1446875 0.3403125 1.1446875 0.3403125 2.3125 0.6875 C2.35504356 2.68704746 2.35330783 4.68791636 2.3125 6.6875 C1.3125 7.6875 1.3125 7.6875 -1.75 7.75 C-2.719375 7.729375 -3.68875 7.70875 -4.6875 7.6875 C-5.375 5.375 -5.375 5.375 -5.6875 2.6875 C-4.0011022 -0.12316299 -3.27764429 -0.38112143 0 0 Z " fill="#588639" transform="translate(226.6875,228.3125)"/>
<path d="M0 0 C0.625 1.8125 0.625 1.8125 1 4 C0.01 5.485 0.01 5.485 -1 7 C-3.625 7.1875 -3.625 7.1875 -6 7 C-7.0625 5.1875 -7.0625 5.1875 -8 3 C-7.67 2.01 -7.34 1.02 -7 0 C-4.3333581 -1.33332095 -2.83319697 -0.67102033 0 0 Z " fill="#588639" transform="translate(294,209)"/>
<path d="M0 0 C2.4375 0.1875 2.4375 0.1875 3.4375 1.1875 C3.625 3.625 3.625 3.625 3.4375 6.1875 C2.7775 6.8475 2.1175 7.5075 1.4375 8.1875 C-1.1875 7.8125 -1.1875 7.8125 -3.5625 7.1875 C-4.1875 4.8125 -4.1875 4.8125 -4.5625 2.1875 C-2.5625 0.1875 -2.5625 0.1875 0 0 Z " fill="#598838" transform="translate(220.5625,207.8125)"/>
<path d="M0 0 C1.2065625 0.0309375 1.2065625 0.0309375 2.4375 0.0625 C3.5625 2.375 3.5625 2.375 4.4375 5.0625 C3.4475 6.5475 3.4475 6.5475 2.4375 8.0625 C-0.1875 8.25 -0.1875 8.25 -2.5625 8.0625 C-2.94313221 5.7364143 -3.27519945 3.40194736 -3.5625 1.0625 C-2.5625 0.0625 -2.5625 0.0625 0 0 Z " fill="#598838" transform="translate(227.5625,187.9375)"/>
<path d="M0 0 C1.67542976 0.28604898 3.34385343 0.61781233 5 1 C6.125 5.75 6.125 5.75 5 8 C2.625 8.125 2.625 8.125 0 8 C-0.66 7.34 -1.32 6.68 -2 6 C-1.44444444 1.44444444 -1.44444444 1.44444444 0 0 Z " fill="#5A8937" transform="translate(243,176)"/>
<path d="M0 0 C2.26274788 0.35355436 3.95088852 0.97544426 6 2 C5.75 4.375 5.75 4.375 5 7 C2.9375 8.3125 2.9375 8.3125 1 9 C0.01 8.34 -0.98 7.68 -2 7 C-2.3125 4.5 -2.3125 4.5 -2 2 C-1.34 1.34 -0.68 0.68 0 0 Z " fill="#5A8937" transform="translate(254,174)"/>
<path d="M0 0 C2.5625 0.1875 2.5625 0.1875 4.5625 2.1875 C4.1875 4.8125 4.1875 4.8125 3.5625 7.1875 C1.1875 7.8125 1.1875 7.8125 -1.4375 8.1875 C-3.4375 6.1875 -3.4375 6.1875 -3.625 3.625 C-3.37291261 0.34786389 -3.27713611 0.25208739 0 0 Z " fill="#598738" transform="translate(277.4375,236.8125)"/>
<path d="M0 0 C1 1 1 1 1.0625 3.5625 C1.041875 4.366875 1.02125 5.17125 1 6 C-0.98 6.99 -0.98 6.99 -3 8 C-5.0625 6.25 -5.0625 6.25 -7 4 C-6.875 1.8125 -6.875 1.8125 -6 0 C-3.49749232 -1.25125384 -2.59701335 -0.83774624 0 0 Z " fill="#5B8B36" transform="translate(235,237)"/>
<path d="M0 0 C1.98 0 3.96 0 6 0 C6.38133299 1.9914056 6.71325582 3.99279077 7 6 C6 7 6 7 3.0625 7.25 C2.051875 7.1675 1.04125 7.085 0 7 C-0.66 6.01 -1.32 5.02 -2 4 C-1.34 2.68 -0.68 1.36 0 0 Z " fill="#5C8C36" transform="translate(282,229)"/>
<path d="M0 0 C2.625 0.375 2.625 0.375 5 1 C5.625 3.375 5.625 3.375 6 6 C5.34 6.66 4.68 7.32 4 8 C1.375 7.625 1.375 7.625 -1 7 C-1.625 4.625 -1.625 4.625 -2 2 C-1.34 1.34 -0.68 0.68 0 0 Z " fill="#5F8F33" transform="translate(264,176)"/>
<path d="M0 0 C2.625 0.9375 2.625 0.9375 5 2 C5.042721 3.66611905 5.04063832 5.33382885 5 7 C4 8 4 8 1.5625 8.1875 C-1 8 -1 8 -3 6 C-2.75 3.4375 -2.75 3.4375 -2 1 C-1.34 0.67 -0.68 0.34 0 0 Z " fill="#5B8B36" transform="translate(220,218)"/>
<path d="M0 0 C0 1.98 0 3.96 0 6 C-1.98 6.99 -1.98 6.99 -4 8 C-4.99 7.34 -5.98 6.68 -7 6 C-7.1875 2.875 -7.1875 2.875 -7 0 C-4.3333581 -1.33332095 -2.83319697 -0.67102033 0 0 Z " fill="#5A8937" transform="translate(226,198)"/>
<path d="M0 0 C2.5625 -0.25 2.5625 -0.25 5 0 C6 1 6 1 6.1875 3.4375 C6 6 6 6 4 8 C1.375 7.625 1.375 7.625 -1 7 C-1.625 5.1875 -1.625 5.1875 -2 3 C-1.34 2.01 -0.68 1.02 0 0 Z " fill="#5D8E34" transform="translate(233,181)"/>
<path d="M0 0 C1 1 1 1 1.125 3.5 C1 6 1 6 0 7 C-1.66617115 7.04063832 -3.33388095 7.042721 -5 7 C-6.0625 5.1875 -6.0625 5.1875 -7 3 C-6.67 2.01 -6.34 1.02 -6 0 C-3.49749232 -1.25125384 -2.59701335 -0.83774624 0 0 Z " fill="#5C8C35" transform="translate(286,189)"/>
<path d="" fill="#0F2673" transform="translate(0,0)"/>
</svg>
