<?xml version="1.0" encoding="UTF-8"?>
<svg version="1.1" xmlns="http://www.w3.org/2000/svg" width="8318" height="6462">
<path d="M0 0 C2744.94 0 5489.88 0 8318 0 C8318 2132.46 8318 4264.92 8318 6462 C5573.06 6462 2828.12 6462 0 6462 C0 4329.54 0 2197.08 0 0 Z " fill="#530000" transform="translate(0,0)"/>
<path d="M0 0 C1.93289204 -0.00693929 3.86578388 -0.01393436 5.79867554 -0.02098083 C11.95172358 -0.04015069 18.10473811 -0.04489914 24.2578125 -0.046875 C25.3040831 -0.04761143 26.3503537 -0.04834785 27.42832947 -0.0491066 C53.18762207 -0.06388554 78.91074289 -0.00550751 104.6328125 1.515625 C105.64857361 1.57447876 106.66433472 1.63333252 107.71087646 1.69396973 C122.00459257 2.55499786 136.1881774 4.14988633 150.40270996 5.85317993 C154.63192782 6.3498051 158.86555092 6.79622214 163.1015625 7.23046875 C205.15384713 11.57546637 205.15384713 11.57546637 223.10717773 15.703125 C226.47098783 16.4422177 229.85856409 17.0300752 233.24853516 17.63574219 C262.96226674 23.01467288 292.48330869 29.44766443 321.30078125 38.54589844 C323.25240136 39.16195863 325.20810403 39.76504326 327.1640625 40.3671875 C330.40084049 41.3667807 333.63232337 42.38050731 336.86132812 43.40478516 C338.77594825 44.01098266 340.69147678 44.61431191 342.60742188 45.21630859 C346.28440976 46.37278059 349.95876206 47.53735743 353.6328125 48.703125 C355.39141602 49.25480347 355.39141602 49.25480347 357.18554688 49.81762695 C363.68678713 51.89074523 369.99234196 54.19089116 376.26464844 56.87695312 C379.6803605 58.32967376 383.12075616 59.70776577 386.5703125 61.078125 C428.29709242 77.71123777 468.90739332 97.29540411 506.3828125 122.203125 C507.6104417 123.00947306 508.83831572 123.81544849 510.06640625 124.62109375 C535.85478585 141.60489571 560.29943126 160.42619865 583.15234375 181.19140625 C585.22469416 183.06051389 587.32801075 184.8853237 589.4453125 186.703125 C593.20565164 189.97166929 596.68104698 193.48293378 600.17578125 197.03125 C602.11913525 198.94364792 604.1055504 200.70516664 606.1953125 202.453125 C611.06082451 206.61800328 615.25280018 211.39161744 619.5546875 216.12109375 C621.70848448 218.48472233 623.91053581 220.77716135 626.1953125 223.015625 C629.80206291 226.57072743 633.08089881 230.3659284 636.3828125 234.203125 C637.39905926 235.36778148 638.41605175 236.53178748 639.43359375 237.6953125 C645.58523852 244.73951711 651.62572956 251.83037758 657.3828125 259.203125 C658.41766891 260.5067485 659.45285532 261.81011006 660.48828125 263.11328125 C669.23637256 274.17751737 677.43926034 285.55019321 685.3828125 297.203125 C686.01977051 298.13398926 686.65672852 299.06485352 687.31298828 300.02392578 C709.71889515 332.86197868 728.94714727 367.50278466 746.3828125 403.203125 C746.71812988 403.88632813 747.05344727 404.56953125 747.39892578 405.2734375 C752.43777377 415.58070442 757.10756683 426.03652697 761.6328125 436.578125 C762.3757959 438.30627441 762.3757959 438.30627441 763.13378906 440.06933594 C766.39341577 447.71751184 769.43661986 455.42954805 772.3828125 463.203125 C773.24157513 465.43643348 774.10096129 467.6695023 774.9609375 469.90234375 C779.57574076 481.94825573 784.09887138 494.01232631 788.3203125 506.203125 C788.67319336 507.22108154 789.02607422 508.23903809 789.38964844 509.2878418 C793.05148494 519.97287046 796.30920742 530.77323561 799.3828125 541.640625 C799.86195283 543.3268304 800.34112006 545.01302816 800.8203125 546.69921875 C801.06821533 547.57449219 801.31611816 548.44976563 801.5715332 549.3515625 C802.1467926 551.37353954 802.72651087 553.39425042 803.30932617 555.4140625 C807.39351639 569.5905573 811.11332782 583.86297131 814.84185791 598.13616943 C815.33674393 600.02709972 815.83494998 601.91716031 816.33349609 603.80712891 C820.38193802 619.20207044 823.85277316 634.69196741 827.1328125 650.265625 C827.32367432 651.16642792 827.51453613 652.06723083 827.71118164 652.99533081 C829.84264301 663.09106539 831.77125529 673.18163818 833.32130432 683.38352966 C834.08372808 688.38859383 834.93959884 693.36409994 835.89453125 698.3359375 C837.46904585 706.5615167 838.87516714 714.80802031 840.1953125 723.078125 C840.38415512 724.25736038 840.38415512 724.25736038 840.57681274 725.4604187 C843.27030747 742.41962297 845.32712868 759.44820042 847.2902832 776.50537109 C847.5227266 778.5205335 847.75538927 780.53567063 847.98828125 782.55078125 C848.10080734 783.52613831 848.21333344 784.50149536 848.32926941 785.50640869 C849.21899606 793.09418845 850.2600064 800.65451447 851.40434265 808.20802307 C852.3472392 814.52651279 852.86991938 820.78767039 853.171875 827.171875 C853.30113772 830.07861611 853.30113772 830.07861611 853.85546875 832.38012695 C854.53861569 836.03717698 854.78269119 839.69634787 855.03125 843.40234375 C855.08826584 844.21234833 855.14528168 845.02235291 855.20402527 845.85690308 C855.39180186 848.53459948 855.57497269 851.21258728 855.7578125 853.890625 C855.95603378 856.7564438 856.15504435 859.62220696 856.35420227 862.48796082 C856.49137458 864.46222831 856.6281595 866.43652276 856.76457214 868.4108429 C857.20872259 874.80990899 857.68194957 881.20615541 858.17578125 887.6015625 C860.14529836 913.30267099 861.34532189 938.99755016 862.25848389 964.75634766 C862.38809106 968.34946328 862.52360646 971.94231665 862.66064453 975.53515625 C862.90548011 981.95506433 863.14119463 988.37525437 863.37106323 994.79571533 C863.45931971 997.2368411 863.54975677 999.67788946 863.64285278 1002.11883545 C864.51429944 1025.17080509 864.3828125 1048.10254269 864.3828125 1071.203125 C459.8028125 1071.203125 55.2228125 1071.203125 -361.6171875 1071.203125 C-357.13465476 1110.81195946 -357.13465476 1110.81195946 -350.24755859 1150.01342773 C-349.74026648 1152.39966123 -349.24662668 1154.78845453 -348.75390625 1157.17773438 C-346.69151456 1167.03254658 -344.18403557 1176.6669281 -341.20947266 1186.28497314 C-340.65811863 1188.07056702 -340.11955607 1189.86009682 -339.58203125 1191.64990234 C-335.6617919 1204.63274321 -331.10514667 1217.40830674 -326.6171875 1230.203125 C-326.31490234 1231.07066406 -326.01261719 1231.93820312 -325.70117188 1232.83203125 C-322.63955474 1241.56865583 -318.97511237 1249.82058076 -314.73046875 1258.03515625 C-313.27912979 1260.85694425 -311.91032206 1263.70096288 -310.59765625 1266.58984375 C-295.3685811 1300.078745 -274.11458826 1331.77325453 -249.6171875 1359.203125 C-248.46669922 1360.5025 -248.46669922 1360.5025 -247.29296875 1361.828125 C-245.08452603 1364.30221523 -242.85232483 1366.7531431 -240.6171875 1369.203125 C-239.73933594 1370.18539062 -238.86148438 1371.16765625 -237.95703125 1372.1796875 C-206.2630658 1407.40183886 -166.40293745 1435.30482145 -124.6171875 1457.203125 C-123.6183252 1457.7305127 -122.61946289 1458.25790039 -121.59033203 1458.80126953 C-108.91974222 1465.45347914 -96.08663087 1471.45550936 -82.8046875 1476.765625 C-80.97357422 1477.49845703 -80.97357422 1477.49845703 -79.10546875 1478.24609375 C-72.27717447 1480.92063352 -65.41903806 1483.28935767 -58.3894043 1485.37890625 C-53.35951028 1486.87436395 -48.40132403 1488.58379142 -43.44458008 1490.30444336 C-34.94215588 1493.21312216 -26.41898297 1495.69292932 -17.69262695 1497.83349609 C-15.68167833 1498.3276358 -13.67381283 1498.8330686 -11.66601562 1499.33984375 C-3.56719229 1501.36144275 4.54124942 1503.04902366 12.76391602 1504.48779297 C16.37903757 1505.20237883 19.84509109 1506.17837018 23.3828125 1507.203125 C27.09126258 1507.95723317 30.82920539 1508.50968721 34.5703125 1509.078125 C35.68817139 1509.24812012 36.80603027 1509.41811523 37.95776367 1509.59326172 C47.68239575 1511.02775198 57.42872336 1512.22093934 67.1953125 1513.328125 C68.23297256 1513.448461 68.23297256 1513.448461 69.29159546 1513.57122803 C94.43978894 1516.46475581 119.57756632 1517.58677615 144.8828125 1517.515625 C146.25819894 1517.51369658 147.6335855 1517.51185656 149.00897217 1517.51010132 C173.55631843 1517.46474387 197.93806314 1516.50674017 222.3828125 1514.203125 C223.29407898 1514.11826843 224.20534546 1514.03341187 225.14422607 1513.94598389 C262.450885 1510.44419071 299.62686965 1505.29152399 336.17138672 1496.92382812 C339.46577704 1496.18450623 342.76700446 1495.4920318 346.07421875 1494.8125 C371.77927275 1489.51547852 397.2966365 1483.15400177 422.30908203 1475.18066406 C424.69873237 1474.42068313 427.09030717 1473.66832733 429.48388672 1472.92089844 C463.53895168 1462.26686992 497.11663964 1450.44342958 530.20343018 1437.08215332 C532.24078232 1436.26041121 534.27988703 1435.44322936 536.31982422 1434.62792969 C569.54885758 1421.31144232 602.03403649 1406.21923205 634.10308838 1390.33190918 C636.48099818 1389.15450928 638.86027394 1387.97990302 641.23974609 1386.80566406 C658.85238028 1378.10811089 676.372034 1369.31913325 693.54052734 1359.76757812 C700.04200324 1356.18902997 706.60273578 1352.71813857 713.15142822 1349.22692871 C720.92198222 1345.10271017 720.92198222 1345.10271017 728.57421875 1340.765625 C731.3828125 1339.203125 731.3828125 1339.203125 733.3828125 1339.203125 C733.3828125 1463.283125 733.3828125 1587.363125 733.3828125 1715.203125 C728.1028125 1717.843125 722.8228125 1720.483125 717.3828125 1723.203125 C711.80219542 1726.11461226 711.80219542 1726.11461226 706.22680664 1729.03588867 C677.26185557 1744.20437015 647.55184536 1757.67777532 617.21157837 1769.8513031 C613.78812444 1771.22560612 610.37335533 1772.61795062 606.96801758 1774.03662109 C599.65434948 1777.08290765 592.38431108 1780.07279559 584.8203125 1782.453125 C580.10839353 1783.96569773 575.45086108 1785.53730484 570.82348633 1787.296875 C564.92058948 1789.48868785 558.95975416 1791.52401265 553.0078125 1793.578125 C552.29250366 1793.82501068 551.57719482 1794.07189636 550.84020996 1794.32626343 C540.79035511 1797.78510207 530.72702879 1800.94690033 520.44482422 1803.640625 C517.47863001 1804.44977862 514.54696716 1805.36203587 511.60986328 1806.27026367 C483.10225754 1815.07043762 453.86111087 1821.77797852 424.64404297 1827.73974609 C422.36918861 1828.20591685 420.09671306 1828.68262764 417.82421875 1829.16015625 C405.18884155 1831.78360877 392.48109426 1833.90177411 379.74609375 1835.98046875 C375.35909614 1836.6995473 370.98217689 1837.44770572 366.61328125 1838.26953125 C353.2166852 1840.77563116 339.79165703 1842.39179645 326.24365234 1843.80883789 C324.76788403 1843.96351738 323.29213506 1844.11838156 321.81640625 1844.2734375 C320.72803467 1844.38766304 320.72803467 1844.38766304 319.61767578 1844.50419617 C315.25255641 1844.97235992 310.91629858 1845.54141937 306.57421875 1846.1953125 C297.38009876 1847.55112137 288.13531478 1848.36087461 278.8828125 1849.203125 C277.93074921 1849.29027771 276.97868591 1849.37743042 275.99777222 1849.46722412 C260.20342831 1850.90773449 244.41837883 1852.25811733 228.57800293 1853.0859375 C226.25507007 1853.20994437 223.93275128 1853.34295928 221.61035156 1853.4765625 C153.47362149 1857.31421306 84.45524802 1857.03795581 16.3828125 1852.203125 C15.50790161 1852.14276062 14.63299072 1852.08239624 13.73156738 1852.02020264 C3.25745022 1851.29641474 -7.18269637 1850.37808415 -17.6171875 1849.203125 C-18.70776459 1849.08064392 -18.70776459 1849.08064392 -19.82037354 1848.95568848 C-32.43986215 1847.52711786 -45.03247727 1845.90936744 -57.6171875 1844.203125 C-58.57484009 1844.0733728 -59.53249268 1843.94362061 -60.51916504 1843.80993652 C-87.72980715 1840.10746644 -114.74096522 1835.85738187 -141.6171875 1830.203125 C-142.61347168 1829.99558594 -143.60975586 1829.78804687 -144.63623047 1829.57421875 C-153.461534 1827.72409098 -162.17621212 1825.57299828 -170.875 1823.19140625 C-174.06905223 1822.34788306 -177.26900757 1821.58238775 -180.49145508 1820.85644531 C-191.27048371 1818.4228414 -201.82488437 1815.31060101 -212.41064453 1812.15185547 C-215.5774834 1811.21487238 -218.75026119 1810.30161245 -221.92578125 1809.39453125 C-246.82738775 1802.23317399 -271.66309889 1794.11751132 -295.6171875 1784.203125 C-296.49093018 1783.84186523 -297.36467285 1783.48060547 -298.26489258 1783.10839844 C-306.006303 1779.89466974 -313.72217983 1776.6222227 -321.4296875 1773.328125 C-322.58533203 1772.83699219 -323.74097656 1772.34585938 -324.93164062 1771.83984375 C-339.22638364 1765.72826567 -353.2122869 1759.02476246 -367.1171875 1752.078125 C-367.85597137 1751.70907043 -368.59475525 1751.34001587 -369.35592651 1750.95977783 C-382.3562867 1744.45025049 -395.08332346 1737.57585584 -407.6171875 1730.203125 C-409.05771484 1729.36612061 -409.05771484 1729.36612061 -410.52734375 1728.51220703 C-445.41093947 1708.2221886 -478.64872827 1685.08652658 -509.6171875 1659.203125 C-510.13087891 1658.77435059 -510.64457031 1658.34557617 -511.17382812 1657.90380859 C-517.59034467 1652.53958554 -523.92508438 1647.10543808 -530.10546875 1641.46875 C-532.20357672 1639.57621093 -534.32171366 1637.71402983 -536.453125 1635.859375 C-546.9025494 1626.73058257 -556.85504151 1617.05862498 -566.6796875 1607.265625 C-567.46448486 1606.48541992 -568.24928223 1605.70521484 -569.05786133 1604.90136719 C-573.19188913 1600.75628229 -577.15614537 1596.526506 -580.9753418 1592.09008789 C-583.56560547 1589.11311422 -586.28490311 1586.26074422 -588.9921875 1583.390625 C-593.66726118 1578.39421517 -598.1219044 1573.29097888 -602.3984375 1567.9453125 C-604.3520932 1565.53075915 -606.3590071 1563.17445274 -608.39331055 1560.82788086 C-615.6014242 1552.47951538 -622.15165973 1543.65788254 -628.703125 1534.79052734 C-630.57338193 1532.26234074 -632.45346696 1529.74175679 -634.3359375 1527.22265625 C-640.98680454 1518.29719986 -647.43097079 1509.2841758 -653.48779297 1499.94433594 C-654.58825177 1498.24773581 -655.69829978 1496.55736763 -656.80859375 1494.8671875 C-667.28197163 1478.84742402 -676.83428469 1462.25210721 -686.25488281 1445.59863281 C-687.48506023 1443.43546063 -688.73057029 1441.2823447 -689.984375 1439.1328125 C-696.54469027 1427.8160522 -702.09162188 1416.05202585 -707.6171875 1404.203125 C-708.12217773 1403.12579102 -708.62716797 1402.04845703 -709.14746094 1400.93847656 C-715.25755035 1387.89364663 -721.18314054 1374.80273373 -726.66845703 1361.48291016 C-727.66276961 1359.09359186 -728.68177443 1356.71603832 -729.70703125 1354.33984375 C-733.35631165 1345.85723039 -736.72389183 1337.40396874 -739.51171875 1328.59765625 C-740.49139581 1325.58938993 -741.57360863 1322.64063321 -742.69555664 1319.68334961 C-749.32094645 1301.85359199 -755.32132089 1283.8416819 -760.04248047 1265.41308594 C-760.84511021 1262.32667793 -761.7273313 1259.26538317 -762.6171875 1256.203125 C-770.68843909 1228.07194268 -770.68843909 1228.07194268 -772.87890625 1215.8828125 C-773.48570316 1212.85845964 -774.19870398 1209.92358424 -774.9765625 1206.94140625 C-777.10526806 1198.54415596 -778.60904422 1190.03078546 -780.1796875 1181.515625 C-780.63696769 1179.04941381 -781.09534246 1176.58341532 -781.55540466 1174.11772156 C-781.83881129 1172.59755473 -782.12057355 1171.07707993 -782.40028381 1169.55622864 C-783.22716308 1165.1058295 -784.16453853 1160.69097684 -785.15962219 1156.27528381 C-792.73686462 1121.96051077 -795.591823 1086.15249052 -798.6171875 1051.203125 C-798.7109668 1050.14915527 -798.80474609 1049.09518555 -798.90136719 1048.00927734 C-804.51857131 983.49254478 -804.32452657 917.82940509 -800.6171875 853.203125 C-800.54142522 851.83009143 -800.46588883 850.45704536 -800.390625 849.08398438 C-799.92224918 840.77898719 -799.30657487 832.4924606 -798.6171875 824.203125 C-798.4951039 822.68816522 -798.37320631 821.17319044 -798.25146484 819.65820312 C-794.93549007 778.8018116 -789.62466592 738.13489974 -782.27392578 697.80712891 C-781.64608058 694.3616825 -781.03341186 690.91390507 -780.42578125 687.46484375 C-780.0736003 685.48164931 -779.72078898 683.49856665 -779.3671875 681.515625 C-779.21612549 680.66629395 -779.06506348 679.81696289 -778.90942383 678.94189453 C-778.1343644 674.68846631 -777.22931469 670.50593045 -776.14892578 666.32006836 C-775.55577544 663.95863282 -775.02267114 661.58810282 -774.49609375 659.2109375 C-769.94771036 638.80677661 -764.58126063 618.62404505 -759.20697021 598.42486572 C-758.41729987 595.4501384 -757.63668928 592.47304967 -756.85546875 589.49609375 C-747.97573352 555.92851659 -736.12138347 523.05069065 -723.2421875 490.828125 C-722.9117041 489.99876434 -722.5812207 489.16940369 -722.24072266 488.31491089 C-718.5167244 478.99574455 -714.61379301 469.80341604 -710.30078125 460.74121094 C-708.6530612 457.27851387 -707.04193217 453.8011334 -705.44140625 450.31640625 C-683.9628787 403.69912102 -658.88435032 359.39325271 -629.6171875 317.203125 C-629.11558105 316.4797998 -628.61397461 315.75647461 -628.09716797 315.01123047 C-617.75224325 300.16156472 -606.55487522 285.95524742 -595.0703125 271.9765625 C-593.74561821 270.3598657 -592.4308579 268.73504212 -591.1171875 267.109375 C-586.79978366 261.77258414 -582.34808917 256.60305494 -577.7265625 251.52734375 C-575.87092093 249.48270165 -574.04962374 247.41528351 -572.2421875 245.328125 C-562.79629096 234.52632418 -552.85851981 224.2854874 -542.70043945 214.15600586 C-540.41956773 211.88052916 -538.14413775 209.59970783 -535.86914062 207.31835938 C-534.39615409 205.84603319 -532.92285764 204.374017 -531.44921875 202.90234375 C-530.78130814 202.23240891 -530.11339752 201.56247406 -529.42524719 200.87223816 C-525.52326399 196.98933616 -521.51429911 193.28544782 -517.34399414 189.69181824 C-515.1254435 187.77918873 -512.96651732 185.80443878 -510.8046875 183.828125 C-505.55581524 179.09697155 -500.11156674 174.64435715 -494.6171875 170.203125 C-493.38598663 169.19229733 -492.15556132 168.18052451 -490.92578125 167.16796875 C-481.68241572 159.57438587 -472.25519153 152.28776031 -462.6171875 145.203125 C-461.91368164 144.68250488 -461.21017578 144.16188477 -460.48535156 143.62548828 C-421.78095125 115.01902252 -379.46354667 90.97427575 -335.6171875 71.203125 C-334.75383789 70.81189453 -333.89048828 70.42066406 -333.00097656 70.01757812 C-306.96116353 58.25766256 -280.51656249 48.13656154 -253.33154297 39.39746094 C-251.05802596 38.66642076 -248.7858657 37.93112269 -246.51611328 37.18847656 C-232.05382486 32.46434749 -217.36211494 28.82694877 -202.56933594 25.31005859 C-201.7967041 25.12621613 -201.02407227 24.94237366 -200.22802734 24.75296021 C-198.79165281 24.41214834 -197.35484532 24.07315252 -195.91748047 23.73654175 C-191.99898712 22.80978303 -188.11960212 21.79208536 -184.2421875 20.70532227 C-178.95300262 19.25182018 -173.65146599 18.13884104 -168.2578125 17.15234375 C-167.29167526 16.97295761 -166.32553802 16.79357147 -165.3301239 16.60874939 C-162.17722485 16.02793693 -159.02263058 15.45744757 -155.8671875 14.890625 C-154.77294464 14.69370056 -153.67870178 14.49677612 -152.55130005 14.29388428 C-115.44241736 7.66083558 -78.24364628 3.3759532 -40.6171875 1.203125 C-39.86166879 1.15887516 -39.10615007 1.11462532 -38.32773685 1.06903458 C-25.54586358 0.3326644 -12.80171413 0.02880919 0 0 Z " fill="#FEFEFE" transform="translate(3689.6171875,2933.796875)"/>
<path d="M0 0 C2.18970755 -0.0006777 4.37941502 -0.00165154 6.56912231 -0.00289917 C11.1219353 -0.00435743 15.67472842 -0.00228497 20.22753906 0.00244141 C25.94963609 0.00810435 31.67168628 0.00476961 37.39378166 -0.00099087 C71.44054382 -0.03022537 105.38958031 0.39833035 139.3828125 2.4453125 C140.46423523 2.50939301 141.54565796 2.57347351 142.65985107 2.63949585 C194.25124976 5.7152249 245.38333485 10.83745213 296.4453125 18.8828125 C297.6945752 19.07926361 298.94383789 19.27571472 300.23095703 19.4781189 C303.77613809 20.03884649 307.31996832 20.60728422 310.86328125 21.1796875 C311.91513107 21.34719009 312.9669809 21.51469269 314.05070496 21.68727112 C319.2527331 22.54020309 324.21879402 23.58832602 329.2578125 25.1328125 C330.64800105 25.32515032 332.0449163 25.47807083 333.4453125 25.5703125 C337.04778517 25.9037251 340.39751589 26.61831748 343.89453125 27.5390625 C349.52759763 28.97762936 355.17148306 30.12106574 360.8828125 31.1953125 C388.58959515 36.58809674 416.09117407 43.49393155 443.2578125 51.1328125 C444.78825195 51.55868652 444.78825195 51.55868652 446.34960938 51.99316406 C449.34136202 52.82608453 452.33130665 53.6650927 455.3203125 54.5078125 C456.21468018 54.75885742 457.10904785 55.00990234 458.03051758 55.26855469 C464.13950005 57.01450005 464.13950005 57.01450005 465.2578125 58.1328125 C466.03972227 66.96873841 464.65123109 75.93363016 463.60375977 84.6965332 C463.31805191 87.08924418 463.04209355 89.48293463 462.76757812 91.87695312 C462.58910251 93.40891961 462.41008582 94.94082318 462.23046875 96.47265625 C462.14813492 97.18308578 462.06580109 97.89351532 461.98097229 98.62547302 C461.59110033 101.86558902 461.09485775 104.98019052 460.2578125 108.1328125 C459.93521325 110.94529141 459.6458819 113.75223433 459.3828125 116.5703125 C459.21011388 118.3503069 459.03690365 120.13025172 458.86328125 121.91015625 C458.72092041 123.3794458 458.72092041 123.3794458 458.57568359 124.87841797 C457.96491573 131.13151753 457.33206342 137.38231304 456.6953125 143.6328125 C456.56850098 144.90310303 456.44168945 146.17339355 456.31103516 147.48217773 C456.12806885 149.27377319 456.12806885 149.27377319 455.94140625 151.1015625 C455.77983032 152.70161133 455.77983032 152.70161133 455.61499023 154.33398438 C455.31457625 156.68801442 454.85459357 158.84394244 454.2578125 161.1328125 C453.9591933 163.86177802 453.69201069 166.58662988 453.4453125 169.3203125 C452.54960187 178.77901678 451.42124776 188.20428323 450.2578125 197.6328125 C448.87499549 208.87236296 447.59866795 220.11181253 446.52294922 231.38525391 C445.95389716 237.28222613 445.35666687 243.17630514 444.7578125 249.0703125 C444.63913818 250.2675293 444.52046387 251.46474609 444.39819336 252.69824219 C443.8300686 258.27366641 443.18260169 263.80670702 442.2890625 269.33984375 C440.93801129 277.81666265 440.12267729 286.34565109 439.2578125 294.8828125 C438.92619092 298.1277815 438.59265429 301.37254927 438.2578125 304.6171875 C438.1753125 305.4176651 438.0928125 306.2181427 438.0078125 307.0428772 C437.39199254 312.96676152 436.71444668 318.88165657 436.0078125 324.7953186 C435.39784099 329.9076274 434.819215 335.02276143 434.2578125 340.140625 C434.1753125 340.89110107 434.0928125 341.64157715 434.0078125 342.41479492 C433.67328693 345.46113374 433.33949119 348.50754903 433.0078125 351.55419922 C432.01548346 360.6576553 430.93059971 369.73551723 429.6953125 378.80957031 C429.11987015 383.18062014 428.66874701 387.5562517 428.2578125 391.9453125 C428.09168424 393.63807376 427.92500433 395.33078096 427.7578125 397.0234375 C427.50578746 399.59291155 427.25496003 402.16247373 427.0078125 404.73242188 C426.76595137 407.2209462 426.51308962 409.70813333 426.2578125 412.1953125 C426.18691406 412.95110596 426.11601562 413.70689941 426.04296875 414.4855957 C425.66421032 418.09169161 425.30801863 420.05750331 423.2578125 423.1328125 C422.70359619 422.89796143 422.14937988 422.66311035 421.57836914 422.42114258 C408.49335755 416.89052844 395.34690645 411.53347763 382.1328125 406.3203125 C381.44583282 406.04845123 380.75885315 405.77658997 380.05105591 405.49649048 C371.88121245 402.26626288 363.68576939 399.16118731 355.39697266 396.24707031 C352.16882356 395.10122551 348.96342374 393.90258418 345.7578125 392.6953125 C336.98557675 389.55815644 327.99031067 387.2523577 318.99121094 384.86474609 C314.18028734 383.57650485 309.38725518 382.22400018 304.59472656 380.86914062 C294.44172976 378.02491409 284.24626019 375.63766808 273.8828125 373.6953125 C272.74199219 373.48068359 271.60117187 373.26605469 270.42578125 373.04492188 C268.10862214 372.60964728 265.79124235 372.17554565 263.47363281 371.74267578 C260.69610464 371.21593228 257.92578865 370.66453061 255.15625 370.09765625 C225.98649337 364.26077917 195.93807004 361.5906114 166.2578125 360.1328125 C164.66845 360.04594554 163.07909506 359.95894033 161.48974609 359.87182617 C146.45387509 359.08141138 131.43744796 358.93072081 116.3828125 358.9453125 C114.50178833 358.94671738 114.50178833 358.94671738 112.58276367 358.94815063 C72.44262078 359.01299791 32.16965743 361.54997024 -6.66503906 372.54833984 C-8.87213067 373.1693762 -11.08413303 373.77051878 -13.296875 374.37109375 C-37.86147259 381.11834603 -61.72073456 389.17827281 -84.7421875 400.1328125 C-85.8357959 400.65278809 -86.9294043 401.17276367 -88.05615234 401.70849609 C-102.10410714 408.44575986 -115.68788669 415.62520193 -128.7421875 424.1328125 C-129.59683594 424.68614258 -130.45148438 425.23947266 -131.33203125 425.80957031 C-142.14523861 432.83350092 -152.70403923 440.03306528 -162.7421875 448.1328125 C-163.64582031 448.85597656 -164.54945312 449.57914063 -165.48046875 450.32421875 C-168.2556682 452.56927879 -171.00333241 454.84356427 -173.7421875 457.1328125 C-174.5163501 457.77742432 -174.5163501 457.77742432 -175.30615234 458.43505859 C-190.7590313 471.34091182 -205.32198844 485.11845646 -218.7421875 500.1328125 C-219.51272461 500.99422852 -219.51272461 500.99422852 -220.29882812 501.87304688 C-236.27450326 519.85849885 -251.29374017 539.54161609 -263.7421875 560.1328125 C-264.76505859 561.81697266 -264.76505859 561.81697266 -265.80859375 563.53515625 C-267.73209139 566.71542939 -269.63540995 569.90736321 -271.53320312 573.10302734 C-272.76778877 575.17579493 -274.01238916 577.2423232 -275.2578125 579.30859375 C-280.89550663 588.71016005 -285.98924393 598.2577859 -290.7421875 608.1328125 C-291.55463691 609.80080589 -292.36713944 611.46877341 -293.1796875 613.13671875 C-300.82432157 628.9180553 -307.74809442 644.83372317 -313.4453125 661.421875 C-314.46875831 664.35040971 -315.55057386 667.2084863 -316.7421875 670.0703125 C-322.31428131 683.77029521 -326.19809667 698.02817016 -329.98339844 712.30078125 C-330.7428182 715.13516646 -331.52381349 717.96269153 -332.3125 720.7890625 C-336.44646549 735.62824388 -340.28235211 750.43945147 -342.34765625 765.7265625 C-342.7421875 768.1328125 -342.7421875 768.1328125 -343.7421875 770.1328125 C-343.94311533 771.62860854 -344.10554816 773.12977974 -344.2421875 774.6328125 C-344.63107639 778.91059028 -344.63107639 778.91059028 -345.7421875 781.1328125 C-346.08175628 783.27676742 -346.37437846 785.42822831 -346.64453125 787.58203125 C-346.72715714 788.23170364 -346.80978302 788.88137604 -346.89491272 789.55073547 C-347.15993802 791.64017755 -347.41996153 793.73020572 -347.6796875 795.8203125 C-347.93578562 797.85477537 -348.19292036 799.88910548 -348.45010376 801.9234314 C-348.62190617 803.28326 -348.79326994 804.6431441 -348.96420288 806.00308228 C-349.94850324 813.81821519 -350.99369137 821.62530895 -352.05444336 829.43041992 C-355.83788674 857.76748802 -356.08000132 886.5457207 -356.00292969 915.08520508 C-355.9915271 919.34539566 -355.99833886 923.60533641 -356.00980663 927.86551857 C-356.07642064 957.06595033 -354.78227921 986.06337046 -351.9296875 1015.1328125 C-351.84703644 1015.99217407 -351.76438538 1016.85153564 -351.67922974 1017.73693848 C-350.47549635 1030.1625185 -348.99870791 1042.53222686 -347.1796875 1054.8828125 C-347.07981537 1055.5648877 -346.97994324 1056.24696289 -346.87704468 1056.94970703 C-345.67967043 1065.03170563 -344.18054777 1072.99919002 -342.41821289 1080.97607422 C-341.54115279 1085.07155531 -340.87243969 1089.18117896 -340.2421875 1093.3203125 C-339.31581596 1099.13647984 -338.1543086 1104.73132507 -336.484375 1110.38671875 C-335.60170915 1113.6525824 -334.98830028 1116.93241653 -334.3671875 1120.2578125 C-333.17026283 1126.41608294 -331.60660206 1132.34871537 -329.77197266 1138.3449707 C-328.60844973 1142.15780416 -327.50993263 1145.968082 -326.54296875 1149.8359375 C-317.19801121 1186.88266574 -301.8177969 1223.07398793 -284.7421875 1257.1328125 C-284.29020996 1258.0393457 -283.83823242 1258.94587891 -283.37255859 1259.87988281 C-261.476444 1303.54420479 -231.89699606 1342.93488272 -197.4921875 1377.5078125 C-196.84290283 1378.16177002 -196.19361816 1378.81572754 -195.5246582 1379.48950195 C-191.09398579 1383.90554983 -186.48962792 1388.06111165 -181.7421875 1392.1328125 C-180.72131022 1393.02208497 -179.70047333 1393.91140381 -178.6796875 1394.80078125 C-167.25152898 1404.6028587 -155.2443534 1413.7379864 -142.7421875 1422.1328125 C-142.17016602 1422.51727539 -141.59814453 1422.90173828 -141.00878906 1423.29785156 C-97.42624659 1452.43437027 -46.69073428 1475.34975612 5.171875 1484.52734375 C8.2578125 1485.1328125 8.2578125 1485.1328125 11.37329102 1486.08081055 C15.69208217 1487.32863336 20.04992197 1487.95327571 24.49609375 1488.5703125 C25.37573288 1488.69591553 26.25537201 1488.82151855 27.16166687 1488.95092773 C29.02126525 1489.21539153 30.88120391 1489.47747236 32.74145508 1489.73730469 C35.52445068 1490.12640047 38.3062144 1490.52346877 41.08789062 1490.921875 C68.42098176 1494.80923713 95.26493297 1496.34078161 122.8828125 1496.3203125 C124.01558624 1496.32070526 125.14835999 1496.32109802 126.31546021 1496.32150269 C154.42921839 1496.55618417 154.42921839 1496.55618417 182.2578125 1493.1328125 C184.31551035 1492.92539984 186.37354285 1492.72040892 188.43359375 1492.5378418 C210.5476769 1490.57376204 232.41754284 1486.7094499 254.23535156 1482.68798828 C256.88463475 1482.20135904 259.53539204 1481.72483611 262.1875 1481.25390625 C263.56516155 1481.00552641 264.94277156 1480.75686041 266.3203125 1480.5078125 C267.42503906 1480.30929687 268.52976563 1480.11078125 269.66796875 1479.90625 C272.62593237 1479.26895207 275.49428822 1478.53136614 278.40625 1477.71875 C284.49595976 1476.02799902 290.64183478 1474.70404501 296.8203125 1473.3828125 C319.22642347 1468.47637608 341.10886056 1462.10620669 362.96435547 1455.17333984 C365.83051643 1454.26781145 368.70055947 1453.37745228 371.57421875 1452.49609375 C403.16812343 1442.74378332 434.06629619 1431.13052852 464.65307617 1418.60644531 C466.43742065 1417.87699707 466.43742065 1417.87699707 468.2578125 1417.1328125 C469.18247314 1416.73674805 470.10713379 1416.34068359 471.05981445 1415.93261719 C473.2578125 1415.1328125 473.2578125 1415.1328125 476.2578125 1415.1328125 C477.9258252 1441.77095737 479.45869693 1468.41147235 480.7578125 1495.0703125 C481.66556516 1513.68065183 482.63930782 1532.28390564 483.7578125 1550.8828125 C484.77230221 1567.77594487 485.73712754 1584.67044446 486.6328125 1601.5703125 C486.72079102 1603.22963806 486.72079102 1603.22963806 486.81054688 1604.92248535 C486.87048828 1606.05311401 486.93042969 1607.18374268 486.9921875 1608.34863281 C487.11976867 1610.75455851 487.24737362 1613.16048295 487.375 1615.56640625 C487.44136658 1616.81789459 487.50773315 1618.06938293 487.57611084 1619.35879517 C488.45651696 1635.92389108 489.36129111 1652.48766852 490.26350689 1669.05158806 C490.64671201 1676.08805389 491.02883271 1683.12457801 491.41040039 1690.16113281 C491.6238211 1694.09570527 491.83728433 1698.03027542 492.05078125 1701.96484375 C492.12901343 1703.40673632 492.12901343 1703.40673632 492.20882607 1704.87775803 C492.80409914 1715.84468876 493.40427499 1726.81131591 494.01651001 1737.77731323 C494.30580711 1742.95938778 494.59123882 1748.14167455 494.87646484 1753.32397461 C495.00318419 1755.60955119 495.13153352 1757.89503814 495.26171875 1760.18041992 C495.9640719 1772.51362911 496.43571385 1784.77855225 496.2578125 1797.1328125 C473.56140292 1804.76965472 450.54077481 1810.81551985 427.32019043 1816.61657715 C425.5294846 1817.06481005 423.73975061 1817.51692205 421.95019531 1817.96972656 C409.18985983 1821.19457057 396.31858159 1823.7490638 383.38476562 1826.16699219 C382.10150391 1826.40836914 380.81824219 1826.64974609 379.49609375 1826.8984375 C378.34149658 1827.11274414 377.18689941 1827.32705078 375.99731445 1827.54785156 C373.31093758 1828.0018419 373.31093758 1828.0018419 371.2578125 1829.1328125 C369.84587147 1829.39545328 368.42622191 1829.61746954 367.00390625 1829.81640625 C365.7209668 1830.00106445 365.7209668 1830.00106445 364.41210938 1830.18945312 C362.62826525 1830.43952473 360.84441139 1830.68952696 359.06054688 1830.93945312 C354.98954941 1831.52536104 350.97192661 1832.15716864 346.96484375 1833.08984375 C311.63611542 1841.23786316 274.18603891 1844.75390212 238.08984375 1847.4921875 C233.40671385 1847.84992741 228.75216106 1848.29022068 224.08896637 1848.84772587 C214.13516658 1850.03045791 204.20453777 1850.69131341 194.1953125 1851.16796875 C192.50885144 1851.25201523 190.8224098 1851.33645214 189.13598633 1851.42124939 C185.62011409 1851.59686138 182.10408826 1851.76877557 178.58789062 1851.93774414 C174.19343134 1852.14906646 169.79940587 1852.36819002 165.40545464 1852.58979511 C127.92576677 1854.47631212 90.55907009 1855.32143268 53.02929688 1855.31811523 C48.44234264 1855.31803405 43.85548846 1855.32498434 39.26855469 1855.33862305 C-10.68378088 1855.48471851 -59.92265374 1852.81780892 -109.5546875 1847.1953125 C-110.64003784 1847.07401978 -111.72538818 1846.95272705 -112.84362793 1846.82775879 C-127.10995719 1845.22312823 -141.21587573 1843.14947861 -155.337677 1840.56729126 C-158.47888858 1839.9996956 -161.62700894 1839.47912081 -164.77734375 1838.96484375 C-197.50252173 1833.49074644 -230.01557555 1825.29785631 -261.77099609 1815.71972656 C-264.32247864 1814.96003322 -266.88508562 1814.24037428 -269.44604492 1813.51342773 C-278.47951159 1810.92624288 -287.3919568 1807.97899124 -296.3046875 1805.0078125 C-296.9594809 1804.78985016 -297.61427429 1804.57188782 -298.28890991 1804.34732056 C-305.15421714 1802.05852597 -311.99030016 1799.73804234 -318.7421875 1797.1328125 C-319.43449463 1796.86742676 -320.12680176 1796.60204102 -320.84008789 1796.32861328 C-323.05937853 1795.47657519 -325.27601844 1794.61793406 -327.4921875 1793.7578125 C-328.2140625 1793.479375 -328.9359375 1793.2009375 -329.6796875 1792.9140625 C-362.95341008 1780.0001352 -395.68148266 1764.69668118 -426.7421875 1747.1328125 C-427.78262207 1746.54741699 -428.82305664 1745.96202148 -429.89501953 1745.35888672 C-443.80274804 1737.51397795 -457.42658063 1729.36453578 -470.70458984 1720.49316406 C-472.47797391 1719.30920815 -474.2597616 1718.13785859 -476.04296875 1716.96875 C-490.02613188 1707.77278615 -503.5328695 1697.94944473 -516.74609375 1687.68359375 C-518.63725777 1686.21433325 -520.53316362 1684.75139301 -522.4296875 1683.2890625 C-530.16081896 1677.30029326 -537.62250609 1671.04272889 -545.00537109 1664.63134766 C-546.70538431 1663.16456651 -548.41813685 1661.71448834 -550.13671875 1660.26953125 C-565.11259954 1647.65373396 -579.01263531 1633.95412326 -592.8671875 1620.1328125 C-593.50206085 1619.50061798 -594.1369342 1618.86842346 -594.79104614 1618.21707153 C-601.33084856 1611.69821137 -607.76382943 1605.1772934 -613.7421875 1598.1328125 C-615.36186567 1596.35711029 -616.98630468 1594.58572943 -618.6171875 1592.8203125 C-623.06907405 1587.93393252 -627.2752188 1582.89745707 -631.42285156 1577.75244141 C-632.89683613 1575.94296442 -634.39209004 1574.15247645 -635.890625 1572.36328125 C-644.90699631 1561.57378904 -653.4184304 1550.46341867 -661.7421875 1539.1328125 C-662.34015137 1538.32038086 -662.93811523 1537.50794922 -663.55419922 1536.67089844 C-669.23865457 1528.93029705 -674.88371855 1521.19745465 -679.94140625 1513.02734375 C-681.83419461 1509.98492255 -683.77964543 1506.98109618 -685.734375 1503.97827148 C-690.86123694 1496.10178342 -695.86632821 1488.16767922 -700.7421875 1480.1328125 C-701.74958984 1478.50279297 -701.74958984 1478.50279297 -702.77734375 1476.83984375 C-709.92072346 1465.20864025 -716.33064211 1453.17822769 -722.7421875 1441.1328125 C-723.25716797 1440.16746582 -723.77214844 1439.20211914 -724.30273438 1438.20751953 C-735.69244338 1416.80234248 -746.04666139 1395.05648697 -755.5546875 1372.7578125 C-755.91122406 1371.92444366 -756.26776062 1371.09107483 -756.63510132 1370.23245239 C-761.42244141 1359.01702636 -765.84104416 1347.71095749 -769.97764587 1336.24005127 C-771.76876302 1331.30335277 -773.61064539 1326.39121829 -775.62109375 1321.5390625 C-778.24850315 1314.99862295 -780.46239172 1308.32094448 -782.6796875 1301.6328125 C-782.90039917 1300.96951935 -783.12111084 1300.3062262 -783.34851074 1299.62283325 C-786.57220033 1289.91833644 -789.54869445 1280.1842371 -792.15917969 1270.29638672 C-793.01985107 1267.10238764 -793.94159893 1263.92675174 -794.86108398 1260.74926758 C-795.90323704 1257.14295364 -796.92768102 1253.5317086 -797.95068359 1249.91992188 C-798.46828697 1248.09729383 -798.98930691 1246.2756317 -799.51416016 1244.45507812 C-804.12285907 1228.40120278 -807.87732681 1212.1701368 -811.5546875 1195.8828125 C-811.79738373 1194.81478394 -812.04007996 1193.74675537 -812.29013062 1192.6463623 C-814.67272408 1182.13327589 -816.99237944 1171.70000168 -818.35961914 1161.00073242 C-818.69717804 1158.47022546 -819.13224543 1156.00889012 -819.65625 1153.51171875 C-825.24523333 1126.7161934 -828.89393235 1099.34322717 -831.7421875 1072.1328125 C-831.82619812 1071.33379517 -831.91020874 1070.53477783 -831.99676514 1069.71154785 C-834.43807036 1046.38477224 -836.40405841 1023.06753 -837.56738281 999.64160156 C-837.71611698 996.65611634 -837.87786195 993.67188476 -838.046875 990.6875 C-838.74117743 977.82523182 -839.00145255 964.94644523 -839.3046875 952.0703125 C-839.32701447 951.1434967 -839.34934143 950.21668091 -839.37234497 949.26177979 C-839.84644304 929.27267252 -839.85586996 909.30906291 -839.3671875 889.3203125 C-839.34540436 888.42751587 -839.32362122 887.53471924 -839.30117798 886.61486816 C-838.60092815 858.66023078 -837.18716967 830.8089437 -834.8046875 802.9453125 C-834.72527924 802.0018396 -834.64587097 801.0583667 -834.5640564 800.08630371 C-833.49294026 787.50086143 -831.99063988 775.03243951 -830.1043396 762.54373169 C-829.66263737 759.60323134 -829.2400811 756.66021587 -828.81964111 753.71661377 C-823.1453378 714.02291058 -816.04078842 674.81510076 -806.18432617 635.9284668 C-805.36827977 632.69728156 -804.58162554 629.46245172 -803.8515625 626.2109375 C-789.62935029 563.01471359 -764.92973456 501.34711378 -736.32324219 443.34179688 C-734.90305441 440.45931568 -733.49619978 437.57082532 -732.09375 434.6796875 C-725.8358847 421.86274948 -718.90243489 409.46488854 -711.7421875 397.1328125 C-711.12037598 396.0607959 -710.49856445 394.9887793 -709.85791016 393.88427734 C-696.88951688 371.60005361 -683.46418717 349.65471963 -668.08203125 328.94287109 C-666.27648009 326.50366623 -664.51130479 324.03601972 -662.7421875 321.5703125 C-647.85935921 301.16492529 -632.03166326 281.31044636 -615.0078125 262.64453125 C-613.11161612 260.54236871 -611.24536247 258.42034557 -609.38671875 256.28515625 C-599.79365803 245.30540876 -589.59808962 234.88989767 -579.3046875 224.5703125 C-577.92011353 223.1788501 -577.92011353 223.1788501 -576.50756836 221.75927734 C-571.97916865 217.24111824 -567.40035586 212.85603516 -562.54516602 208.69067383 C-559.76735075 206.29050603 -557.10681088 203.76890945 -554.4296875 201.2578125 C-549.63357356 196.79579426 -544.71377455 192.56495602 -539.6015625 188.46484375 C-536.95448135 186.3059538 -534.37564238 184.08962697 -531.80297852 181.84375 C-524.38606783 175.38075284 -516.66534248 169.44329438 -508.74365234 163.61523438 C-506.81038534 162.18332449 -504.89295363 160.73295226 -502.98046875 159.2734375 C-463.40467858 129.11240083 -420.04550489 102.7558935 -374.75634766 82.05761719 C-371.69658487 80.65272247 -368.65972984 79.19955114 -365.6171875 77.7578125 C-363.71944034 76.87633124 -361.81882443 76.00145099 -359.91650391 75.12988281 C-358.37809981 74.42442106 -356.84148612 73.71504882 -355.30615234 73.00292969 C-341.19652767 66.48839178 -326.85122078 60.77042468 -312.3046875 55.3203125 C-311.46777374 55.00602295 -310.63085999 54.6917334 -309.76858521 54.36791992 C-294.11326852 48.50358237 -278.38248343 42.95773186 -262.2421875 38.5703125 C-261.18104736 38.27785645 -260.11990723 37.98540039 -259.02661133 37.68408203 C-256.90834825 37.10034022 -254.78963003 36.51824692 -252.67041016 35.93798828 C-250.05980347 35.22014762 -247.45286634 34.49104565 -244.84765625 33.75390625 C-230.70881915 29.75878237 -216.47203404 26.19948617 -202.15112305 22.91845703 C-199.91524695 22.40316309 -197.68095499 21.88093595 -195.44848633 21.35107422 C-178.0256812 17.21985445 -160.57185583 13.99235081 -142.8671875 11.3203125 C-141.89935333 11.17356079 -140.93151917 11.02680908 -139.93435669 10.87561035 C-128.96446488 9.22287929 -117.99471254 7.75957825 -106.96264648 6.59277344 C-102.88906665 6.15903825 -98.83155004 5.63679296 -94.76953125 5.10546875 C-86.75345807 4.09169166 -78.72800757 3.38008415 -70.6730957 2.75512695 C-68.33685399 2.57282255 -66.00147302 2.38151296 -63.66601562 2.18945312 C-42.46903038 0.49240946 -21.25832635 -0.02393339 0 0 Z " fill="#FEFEFE" transform="translate(6384.7421875,2933.8671875)"/>
<path d="M0 0 C0.00016405 0.60628685 0.0003281 1.2125737 0.00049713 1.83723288 C0.01444378 53.33330192 0.02907011 104.82937075 0.04418945 156.32543945 C0.04463846 157.85504949 0.04463846 157.85504949 0.04509654 159.41556073 C0.07719881 268.7138257 0.11367536 378.01208817 0.15898132 487.31034851 C0.15998695 489.73904494 0.16099257 492.16774136 0.16199819 494.59643779 C0.18312121 545.57902869 0.2048586 596.56161931 0.22730538 647.54420965 C0.23858102 673.15568087 0.24973866 698.76715215 0.26078469 724.37862348 C0.26245159 728.24193953 0.26412187 732.10525558 0.26579228 735.96857163 C0.29147479 795.43546759 0.31463129 854.90236321 0.33044434 914.3692627 C0.3307842 915.64717831 0.33112406 916.92509393 0.33147423 918.24173426 C0.3369382 938.84460469 0.34218955 959.44747516 0.34741267 980.05034565 C0.36246603 1039.41633612 0.37909999 1098.78232426 0.40612316 1158.14831066 C0.40667849 1159.36996754 0.40723382 1160.59162443 0.40780597 1161.85030122 C0.42002706 1188.67317531 0.43305616 1215.49604895 0.44684957 1242.31892228 C0.45238594 1253.11269708 0.45780608 1263.90647193 0.46318626 1274.70024681 C0.46377789 1275.88155434 0.46436952 1277.06286188 0.46497908 1278.27996661 C0.4839615 1316.29745904 0.49349426 1354.31494658 0.49803595 1392.33244326 C0.50265712 1430.65128806 0.51661683 1468.97011731 0.54342634 1507.28895337 C0.54713497 1512.5930236 0.55073732 1517.8970939 0.55427551 1523.20116425 C0.55532159 1524.76068786 0.55532159 1524.76068786 0.55638881 1526.35171701 C0.56712447 1542.76619674 0.56786839 1559.18066085 0.56436801 1575.59514307 C0.56112765 1591.7649428 0.56864182 1607.93470863 0.58732411 1624.10449817 C0.59701461 1632.74244968 0.60211349 1641.38033851 0.59339563 1650.01829282 C0.3214801 1697.10084515 0.3214801 1697.10084515 4 1744 C4.1869556 1745.55689285 4.1869556 1745.55689285 4.37768809 1747.14523808 C11.12894103 1803.00730809 28.2037138 1861.52596143 68 1903 C68.87785156 1903.94101562 69.75570312 1904.88203125 70.66015625 1905.8515625 C82.17485766 1917.97198929 95.44734339 1927.31716106 110.22021484 1935.06103516 C111.7811524 1935.88454213 113.32390621 1936.74232667 114.86328125 1937.60546875 C128.28389896 1944.84988323 144.05745967 1950.02355859 159 1953 C160.21558594 1953.25265625 161.43117188 1953.5053125 162.68359375 1953.765625 C182.51191165 1957.70101634 202.28843274 1958.18211676 222.4375 1958.1875 C223.92653336 1958.18899551 223.92653336 1958.18899551 225.44564819 1958.19052124 C237.33780786 1958.18917138 249.14250836 1957.94107076 261 1957 C261.93932373 1956.9270874 262.87864746 1956.8541748 263.84643555 1956.77905273 C282.17418855 1955.27070459 300.36671237 1953.02088137 318.32421875 1949.01953125 C321.42218046 1948.33016209 324.52195804 1947.70416184 327.64453125 1947.13671875 C362.24705891 1940.80425329 395.42848085 1928.37225663 426 1911 C426.76461186 1916.58555946 427.22065652 1922.09169549 427.43310547 1927.72314453 C427.46751204 1928.56340085 427.50191862 1929.40365717 427.53736782 1930.2693758 C427.65062033 1933.05706586 427.7589686 1935.84492284 427.8671875 1938.6328125 C427.94695415 1940.6271308 428.02697222 1942.62143906 428.10722351 1944.61573792 C428.32271857 1949.99671307 428.53359868 1955.37785997 428.74339676 1960.75905991 C428.8754689 1964.13699286 429.00890266 1967.51486932 429.14279175 1970.89273071 C430.4388291 2003.60179111 431.63228848 2036.31356216 432.74407959 2069.02935791 C433.56550271 2093.1908494 434.47875334 2117.34614708 435.5 2141.5 C436.63241071 2168.30275008 437.64734951 2195.10847586 438.58596802 2221.91873169 C438.68658777 2224.78650046 438.78801873 2227.65423952 438.88964844 2230.52197266 C439.04926722 2235.03226931 439.20649059 2239.54264332 439.36178017 2244.05309105 C439.41908978 2245.71062675 439.47703863 2247.36814049 439.53569603 2249.02562904 C439.85302023 2258.01926523 440.08659617 2266.99911582 440 2276 C434.09251875 2278.33959653 428.2179052 2280.08263056 422.05078125 2281.59375 C421.11630661 2281.82654663 420.18183197 2282.05934326 419.21903992 2282.29919434 C416.25127248 2283.03722719 413.28190475 2283.76858618 410.3125 2284.5 C408.33909073 2284.99047527 406.3657825 2285.48135729 404.39257812 2285.97265625 C376.75097617 2292.84042566 376.75097617 2292.84042566 367.1875 2294.3125 C361.58700382 2295.19804072 356.01581373 2296.17742669 350.453125 2297.27734375 C315.32440154 2304.19678031 279.84697947 2309.30749303 244.11645508 2311.72216797 C241.04797658 2311.95098863 241.04797658 2311.95098863 238.23803711 2312.48681641 C233.73109325 2313.20110397 229.22426912 2313.44580008 224.671875 2313.71875 C223.65119934 2313.78155151 222.63052368 2313.84435303 221.57891846 2313.90905762 C219.40362337 2314.04176344 217.22822487 2314.17278321 215.05273438 2314.30224609 C211.85766201 2314.49355365 208.66323129 2314.69362988 205.46875 2314.89453125 C174.63877864 2316.78471242 143.83411656 2317.16807319 112.95532227 2317.13037109 C108.22487441 2317.12462864 103.49448223 2317.12809831 98.76403618 2317.13380527 C60.04082406 2317.17363697 60.04082406 2317.17363697 42 2316 C41.30234528 2315.95572876 40.60469055 2315.91145752 39.88589478 2315.86584473 C35.50082477 2315.57824701 31.12589483 2315.21492786 26.75 2314.8125 C25.75614792 2314.72171173 25.75614792 2314.72171173 24.74221802 2314.62908936 C-2.97190581 2312.05812186 -30.91772789 2308.51779635 -58 2302 C-59.05501709 2301.74935791 -59.05501709 2301.74935791 -60.13134766 2301.49365234 C-64.02932996 2300.56051906 -67.91046256 2299.5693146 -71.78955078 2298.56103516 C-74.33196736 2297.91574321 -76.88186872 2297.30664648 -79.43359375 2296.69921875 C-117.45479456 2287.57664539 -155.40297833 2274.33472519 -190 2256 C-191.41418213 2255.25991699 -191.41418213 2255.25991699 -192.85693359 2254.50488281 C-237.14075712 2231.29717093 -276.74225672 2202.44847358 -312.09204102 2167.09326172 C-313.69204519 2165.49546107 -315.29993615 2163.90588449 -316.90820312 2162.31640625 C-322.65340048 2156.60196454 -328.01409189 2150.76329854 -333.0715332 2144.41650391 C-334.68530785 2142.3943313 -336.33230169 2140.43238164 -338.046875 2138.49609375 C-354.50196004 2119.90970609 -367.99665499 2098.79557122 -380.96289062 2077.68359375 C-381.85729868 2076.2316545 -382.76348664 2074.78698385 -383.671875 2073.34375 C-387.80430735 2066.67853654 -391.26516669 2059.70151311 -394.69677734 2052.65966797 C-396.19585007 2049.60030149 -397.71801288 2046.5527937 -399.23828125 2043.50390625 C-407.79410594 2026.20973892 -415.13415414 2008.72072666 -421.88208008 1990.63598633 C-422.94814382 1987.7807106 -424.02603144 1984.93608892 -425.17578125 1982.11328125 C-428.93929718 1972.8402884 -431.57818593 1963.32644819 -434.24267578 1953.69238281 C-434.94663079 1951.18973425 -435.68165058 1948.69952363 -436.43359375 1946.2109375 C-439.84723183 1934.82595557 -442.64941198 1923.32915102 -445.3125 1911.75 C-445.48948425 1910.98661316 -445.66646851 1910.22322632 -445.84881592 1909.43670654 C-449.17045226 1895.0574005 -449.17045226 1895.0574005 -449.78344727 1887.95288086 C-450.01346251 1885.87859457 -450.43221024 1883.92470723 -450.9140625 1881.89453125 C-452.46740633 1875.22893478 -453.40087807 1868.45685545 -454.375 1861.6875 C-454.48227417 1860.94355988 -454.58954834 1860.19961975 -454.70007324 1859.43313599 C-456.59446022 1846.13653534 -458.02165934 1832.81083648 -459.25 1819.4375 C-459.33272156 1818.55734222 -459.41544312 1817.67718445 -459.50067139 1816.77035522 C-461.77018349 1792.36070072 -462.14923887 1767.93911746 -462.12304783 1743.43814659 C-462.12323189 1740.63822798 -462.12492879 1737.8383107 -462.12654433 1735.0383926 C-462.12925293 1728.97839228 -462.12831586 1722.91840142 -462.12488318 1716.85840158 C-462.11976488 1707.78674245 -462.12052 1698.71508996 -462.12234976 1689.6434299 C-462.1253031 1674.17661471 -462.12355795 1658.70980331 -462.11920547 1643.24298859 C-462.11481815 1627.58307731 -462.11263395 1611.92316799 -462.11310768 1596.26325607 C-462.11313637 1595.27196615 -462.11316507 1594.28067623 -462.11319463 1593.25934722 C-462.11335101 1588.20422563 -462.11354296 1583.14910405 -462.11374746 1578.09398246 C-462.11515279 1541.56026749 -462.11173167 1505.02655425 -462.10573006 1468.49283981 C-462.09980279 1432.32509731 -462.09595401 1396.15735556 -462.09487724 1359.98961258 C-462.09484283 1358.8653889 -462.09480842 1357.74116521 -462.09477296 1356.58287415 C-462.09445975 1346.31446186 -462.09417207 1336.04604958 -462.09391499 1325.77763729 C-462.09327569 1300.25424244 -462.09231642 1274.73084761 -462.09113979 1249.20745277 C-462.09108648 1248.04531628 -462.09103316 1246.88317979 -462.09097823 1245.68582703 C-462.08835822 1189.18752373 -462.08205128 1132.68922092 -462.07543945 1076.19091797 C-462.07314774 1056.59061687 -462.07087236 1036.99031576 -462.06866455 1017.39001465 C-462.06845913 1015.56653627 -462.06845913 1015.56653627 -462.06824955 1013.70621993 C-462.06190264 957.16813799 -462.05817897 900.63005595 -462.05512976 844.09197374 C-462.05493169 840.42039256 -462.0547325 836.74881138 -462.05453308 833.0772302 C-462.05321327 808.74497884 -462.05193862 784.41272748 -462.05069422 760.08047611 C-462.04821787 711.66747914 -462.04547619 663.25448219 -462.04255217 614.84148525 C-462.04241293 612.53605732 -462.04227388 610.23062938 -462.04213501 607.92520145 C-462.03588385 504.17197651 -462.0265465 400.41875192 -462.01586914 296.66552734 C-462.01576921 295.69425166 -462.01566927 294.72297598 -462.01556631 293.7222677 C-462.01056609 245.14817845 -462.00539209 196.57408921 -462 148 C-458.80979236 146.87646104 -455.61871816 145.75540303 -452.42749023 144.63476562 C-451.53089439 144.31896545 -450.63429855 144.00316528 -449.71053314 143.67779541 C-442.85364473 141.27191782 -435.96372223 139.07734359 -429 137 C-410.3553916 131.28370651 -391.79959035 125.34103706 -373.32006836 119.11132812 C-366.09091386 116.6767944 -358.85297988 114.31645087 -351.5534668 112.09912109 C-343.67223479 109.66138104 -335.84147552 107.06216664 -328 104.5 C-317.02491037 100.91393913 -306.04740909 97.35838444 -295 94 C-276.35813764 88.27388526 -257.79997761 82.34116761 -239.32006836 76.11132812 C-230.91555203 73.28081295 -222.48820373 70.57163388 -214 68 C-195.35756681 62.2759217 -176.7998982 56.34114084 -158.32006836 50.11132812 C-151.09091386 47.6767944 -143.85297988 45.31645087 -136.5534668 43.09912109 C-128.67223479 40.66138104 -120.84147552 38.06216664 -113 35.5 C-102.02491037 31.91393913 -91.04740909 28.35838444 -80 25 C-59.78368607 18.79026994 -39.67700613 12.29901453 -19.62890625 5.56640625 C-18.94708786 5.33776886 -18.26526947 5.10913147 -17.56278992 4.87356567 C-14.73042544 3.92276134 -11.90079332 2.96563819 -9.07763672 1.98779297 C-3.30711207 0 -3.30711207 0 0 0 Z " fill="#FEFEFE" transform="translate(2249,2472)"/>
<path d="M0 0 C152.46 0 304.92 0 462 0 C462 703.56 462 1407.12 462 2132 C309.54 2132 157.08 2132 0 2132 C0 1428.44 0 724.88 0 0 Z " fill="#FEFEFE" transform="translate(4805,2616)"/>
<path d="M0 0 C2744.94 0 5489.88 0 8318 0 C8318 0.33 8318 0.66 8318 1 C5573.39 1 2828.78 1 1 1 C1.103125 894.330625 1.20625 1787.66125 1.3125 2708.0625 C1.33739502 2990.59672119 1.36229004 3273.13094238 1.38793945 3564.22680664 C1.42448451 3816.5093921 1.42448451 3816.5093921 1.4650116 4068.79197693 C1.48053573 4166.00576965 1.48053573 4166.00576965 1.48350716 4189.35487556 C1.48371636 4190.98489287 1.48392557 4192.61491018 1.48414112 4194.29432195 C1.48935656 4235.51248596 1.49167777 4276.73065011 1.49352264 4317.94881439 C1.49360456 4319.77592184 1.49368648 4321.60302928 1.49377088 4323.48550361 C1.49509002 4353.20656424 1.49621962 4382.92762487 1.49732343 4412.6486855 C1.50052329 4498.73973344 1.50528592 4584.83078002 1.52053279 4670.92182678 C1.52099872 4673.5589329 1.52099872 4673.5589329 1.52147407 4676.24931389 C1.52829929 4714.71453317 1.53593864 4753.17975225 1.54435867 4791.64497121 C1.54771288 4807.02856747 1.55095534 4822.41216375 1.55416143 4837.79576004 C1.55451401 4839.47357886 1.5548666 4841.15139769 1.55522986 4842.88005951 C1.56626328 4895.63478548 1.56825625 4948.38950634 1.56471754 5001.1442332 C1.56130372 5052.56911664 1.56692768 5103.99398994 1.58577649 5155.41887033 C1.58835613 5162.46084615 1.59083094 5169.50282201 1.59324265 5176.5447979 C1.59371876 5177.9233875 1.59419487 5179.30197709 1.59468542 5180.72234213 C1.60191349 5202.44171041 1.59915745 5224.16106519 1.59210632 5245.88043304 C1.58539341 5267.19040907 1.58939637 5288.50036101 1.6046693 5309.81033285 C1.61250474 5321.14419211 1.61578662 5332.47800264 1.60515613 5343.81186099 C1.36266137 5405.9733372 1.36266137 5405.9733372 5 5468 C5.16082399 5469.7779883 5.32132044 5471.55600624 5.48152449 5473.3340505 C10.25779246 5525.90326341 19.20036115 5577.89298496 31.0625 5629.3125 C31.27024048 5630.21838867 31.47798096 5631.12427734 31.6920166 5632.05761719 C34.11441097 5642.58801786 36.74817979 5653.00330051 39.890625 5663.34326172 C40.94628155 5666.82293245 41.95018954 5670.31290928 42.9375 5673.8125 C47.82140635 5690.91884985 53.14597918 5707.84512965 58.875 5724.6875 C59.24304749 5725.76959747 59.61109497 5726.85169495 59.99029541 5727.96658325 C76.35802914 5775.93536533 95.9282599 5822.85040906 119 5868 C119.43296387 5868.84804199 119.86592773 5869.69608398 120.31201172 5870.56982422 C127.83824834 5885.26340627 135.75339686 5899.69940437 144 5914 C144.65661621 5915.14307617 145.31323242 5916.28615234 145.98974609 5917.46386719 C154.98272536 5933.10459336 164.31464912 5948.42296386 174.31860352 5963.44555664 C176.06751449 5966.10257065 177.77357696 5968.78353607 179.47265625 5971.47265625 C182.97446595 5976.99721412 186.61773564 5982.41557201 190.3125 5987.8125 C191.29851196 5989.25459839 191.29851196 5989.25459839 192.30444336 5990.72583008 C197.4416458 5998.22107201 202.64701141 6005.65749042 208 6013 C208.52948242 6013.72783691 209.05896484 6014.45567383 209.60449219 6015.20556641 C220.8031199 6030.57604613 232.49414484 6045.46589282 244.5234375 6060.19140625 C245.83047541 6061.7923548 247.13423356 6063.39597976 248.4375 6065 C256.3938051 6074.77488913 264.4849707 6084.41654019 272.9609375 6093.74609375 C274.79086247 6095.7688269 276.58881728 6097.81369435 278.375 6099.875 C282.62411693 6104.74641323 287.00072541 6109.49978904 291.3848114 6114.24937439 C292.42809004 6115.38013417 293.47055769 6116.51164298 294.51203918 6117.64405823 C303.50256821 6127.41068048 312.74339925 6136.90067976 322.14306641 6146.2734375 C324.39734171 6148.52228794 326.64613376 6150.77652448 328.89453125 6153.03125 C330.3538457 6154.48990452 331.81346985 6155.94824927 333.2734375 6157.40625 C333.93193695 6158.06677368 334.5904364 6158.72729736 335.26889038 6159.40783691 C339.10571224 6163.22561008 343.04737994 6166.86560698 347.15237427 6170.3939209 C350.35036388 6173.17382604 353.41678148 6176.09421843 356.5 6179 C361.58615631 6183.76667569 366.69920021 6188.47182601 372 6193 C373.48113281 6194.28197266 373.48113281 6194.28197266 374.9921875 6195.58984375 C384.20176081 6203.54757846 393.56498043 6211.31146277 403 6219 C403.62487305 6219.51030762 404.24974609 6220.02061523 404.89355469 6220.54638672 C414.92211469 6228.71850453 425.23150538 6236.49216765 435.60888672 6244.21435547 C437.78970849 6245.84295772 439.96159721 6247.48238649 442.12890625 6249.12890625 C456.3761806 6259.93951782 471.02166474 6270.22649166 486 6280 C486.62406738 6280.40782715 487.24813477 6280.8156543 487.89111328 6281.23583984 C503.06828045 6291.1431071 518.41411768 6300.74922943 534 6310 C534.63953613 6310.38091797 535.27907227 6310.76183594 535.93798828 6311.15429688 C552.37954963 6320.94026209 568.88955393 6330.67122164 586.09375 6339.0625 C589.59041301 6340.77544018 593.01707278 6342.6025679 596.44458008 6344.44921875 C609.6826717 6351.55962865 623.31480272 6357.80871397 637 6364 C637.66294067 6364.30053284 638.32588135 6364.60106567 639.00891113 6364.91070557 C685.97185795 6386.1878474 734.59430821 6405.46969047 784.58447266 6418.35986328 C787.7909739 6419.20961528 790.9688611 6420.1464994 794.15039062 6421.0847168 C822.0505187 6429.29015107 850.73106563 6436.72441637 879.46484375 6441.2578125 C884.37346288 6442.04104572 889.2463886 6442.98750486 894.125 6443.9375 C919.29540242 6448.76482606 944.5505511 6452.05772118 970 6455 C970.79214905 6455.09243988 971.5842981 6455.18487976 972.40045166 6455.28012085 C982.29787478 6456.43191339 992.17971735 6457.40962294 1002.125 6458.0625 C1003.34840088 6458.14556396 1004.57180176 6458.22862793 1005.83227539 6458.31420898 C1015.02017627 6458.91880913 1024.20963765 6459.36165067 1033.41259766 6459.65844727 C1038.0286265 6459.81746641 1042.45662994 6460.08222408 1047 6461 C1047 6461.33 1047 6461.66 1047 6462 C701.49 6462 355.98 6462 0 6462 C0 4329.54 0 2197.08 0 0 Z " fill="#FDFAFA" transform="translate(0,0)"/>
<path d="M0 0 C1.15804138 0.00149048 2.31608276 0.00298096 3.50921631 0.0045166 C21.51977226 0.04606917 39.08740886 0.79292581 56.9375 3.3125 C59.27858075 3.61768715 61.61972773 3.92236669 63.9609375 4.2265625 C78.1537546 6.14051114 92.04562223 8.84972376 105.9375 12.3125 C107.20851563 12.61800781 108.47953125 12.92351563 109.7890625 13.23828125 C157.86953064 25.33835472 205.12010278 48.68842359 241.34375 82.8671875 C243.49633154 84.89657913 245.68264133 86.83706662 247.9375 88.75 C256.20532941 95.93041135 263.95053943 103.88622555 270.9375 112.3125 C271.38673828 112.84794434 271.83597656 113.38338867 272.29882812 113.93505859 C329.48589741 182.24183579 361.08967804 271.18198004 372.5 370.25 C372.70985612 372.12700129 372.92014149 374.00395464 373.13085938 375.88085938 C373.64351129 380.46209655 374.14677559 385.04429126 374.64483643 389.62713623 C374.93855981 392.32222438 375.23661553 395.01681341 375.53466797 397.71142578 C375.71999958 399.41305622 375.90507006 401.11471513 376.08984375 402.81640625 C376.17585342 403.58726059 376.2618631 404.35811493 376.35047913 405.15232849 C376.79139182 409.26430055 376.9375 413.1545843 376.9375 417.3125 C117.8875 417.3125 -141.1625 417.3125 -408.0625 417.3125 C-408.0625 411.24729324 -407.89749297 405.62582601 -407.14453125 399.66796875 C-407.04735809 398.8691478 -406.95018494 398.07032684 -406.85006714 397.24729919 C-406.5325088 394.66386981 -406.20509178 392.08185636 -405.875 389.5 C-405.76201569 388.60923767 -405.64903137 387.71847534 -405.53262329 386.80072021 C-401.01802402 351.40407531 -393.95617478 316.33116141 -383.0625 282.3125 C-382.67755371 281.10980469 -382.29260742 279.90710937 -381.89599609 278.66796875 C-370.50734709 243.3781548 -355.79665708 208.79062557 -336.0625 177.3125 C-335.61132812 176.59239746 -335.16015625 175.87229492 -334.6953125 175.13037109 C-329.12652115 166.29452985 -323.36683047 157.64496779 -317.0625 149.3125 C-316.29421875 148.28898437 -315.5259375 147.26546875 -314.734375 146.2109375 C-299.00413355 125.40511317 -281.31740744 104.56727211 -260.734375 88.4296875 C-258.32060982 86.51702562 -256.0033289 84.52363942 -253.69067383 82.4909668 C-240.36553518 70.86549499 -225.45687946 60.9765866 -210.0625 52.3125 C-209.21268555 51.82958496 -208.36287109 51.34666992 -207.48730469 50.84912109 C-178.09598315 34.23152347 -146.90367053 21.35943906 -114.0625 13.3125 C-112.78632813 12.99804932 -112.78632813 12.99804932 -111.484375 12.67724609 C-98.76195424 9.58069976 -86.03501992 7.08147999 -73.0625 5.3125 C-72.14243164 5.18633301 -71.22236328 5.06016602 -70.27441406 4.93017578 C-67.28835173 4.5266134 -64.30094227 4.13552704 -61.3125 3.75 C-60.43416504 3.6351123 -59.55583008 3.52022461 -58.65087891 3.40185547 C-55.45767347 3.00475244 -52.26240361 2.65193752 -49.0625 2.3125 C-47.89136154 2.1875264 -47.89136154 2.1875264 -46.69656372 2.06002808 C-31.11463223 0.43869279 -15.65990317 -0.05018567 0 0 Z " fill="#AE0000" transform="translate(3736.0625,3270.6875)"/>
<path d="M0 0 C0.83949188 -0.00133942 1.67898376 -0.00267883 2.54391479 -0.00405884 C20.67201884 0.0022002 38.17700208 1.56539067 55.75 6.25 C57.43802734 6.66185547 57.43802734 6.66185547 59.16015625 7.08203125 C100.17616476 17.39086761 137.30402377 37.95816157 167.75 67.25 C168.69045166 68.14960449 168.69045166 68.14960449 169.64990234 69.06738281 C178.84670915 77.91038069 187.19283513 86.97355772 194.75 97.25 C195.58556908 98.35574725 196.42150577 99.4612168 197.2578125 100.56640625 C228.08395624 141.88296463 243.24249549 191.41075597 243.01074219 242.6237793 C242.999965 245.44666806 243.01074935 248.2689264 243.0234375 251.09179688 C243.04457375 279.66085251 243.04457375 279.66085251 239.75 286.25 C239.47583974 287.89198158 239.23121697 289.53892302 239 291.1875 C232.88997168 328.37897672 215.43570608 365.0894012 191.75 394.25 C191.04617188 395.14589844 190.34234375 396.04179687 189.6171875 396.96484375 C161.23324891 432.6280581 123.452193 458.66566869 80.75 474.25 C79.86441406 474.59675781 78.97882813 474.94351563 78.06640625 475.30078125 C53.12208215 484.90045427 26.20627848 487.6723232 -0.3125 487.5625 C-1.25332428 487.56034485 -2.19414856 487.5581897 -3.16348267 487.55596924 C-64.13503927 487.33248114 -119.91007897 465.45187497 -164.97265625 424.3046875 C-166.9237616 422.54434202 -168.91013544 420.85815677 -170.9375 419.1875 C-174.05564358 416.53345221 -176.68208459 413.60299094 -179.32421875 410.48046875 C-180.66397712 408.9287405 -182.04537062 407.41239731 -183.45703125 405.92578125 C-191.28397888 397.66892051 -197.82519638 388.62035404 -204.25 379.25 C-204.70407227 378.58871094 -205.15814453 377.92742188 -205.62597656 377.24609375 C-216.65616074 360.95587482 -224.87581915 342.82304421 -231.25 324.25 C-231.54132813 323.41855469 -231.83265625 322.58710938 -232.1328125 321.73046875 C-232.86944321 319.57873169 -233.56780654 317.41959889 -234.25 315.25 C-234.57871094 314.21101563 -234.90742187 313.17203125 -235.24609375 312.1015625 C-238.10799107 302.93929783 -240.4239213 293.99229462 -241.8125 284.5 C-242.00102539 283.27410156 -242.00102539 283.27410156 -242.19335938 282.0234375 C-244.0198068 269.74512081 -244.48743436 257.51978413 -244.5 245.125 C-244.50133942 244.34019257 -244.50267883 243.55538513 -244.50405884 242.74679565 C-244.49716639 223.99957207 -243.14726383 205.42268981 -238.25 187.25 C-237.98703125 186.07824219 -237.7240625 184.90648438 -237.453125 183.69921875 C-229.64986239 149.64550691 -213.1405859 118.28718745 -191.25 91.25 C-190.80366211 90.68796875 -190.35732422 90.1259375 -189.89746094 89.546875 C-178.31107863 74.98214728 -164.96929197 61.50485596 -149.94335938 50.50341797 C-148.22404588 49.23078886 -146.54101316 47.91956254 -144.859375 46.59765625 C-121.50331053 28.50346271 -93.73353223 15.76386777 -65.25 8.25 C-64.02023437 7.91097656 -62.79046875 7.57195313 -61.5234375 7.22265625 C-50.90469882 4.36422982 -40.16174182 2.57678095 -29.25 1.25 C-28.4544873 1.15283691 -27.65897461 1.05567383 -26.83935547 0.95556641 C-17.91385765 0.00517407 -8.96613727 0.00845499 0 0 Z " fill="#FEFEFE" transform="translate(1456.25,2891.75)"/>
<path d="M0 0 C162.69 0 325.38 0 493 0 C493 99.33 493 198.66 493 301 C330.31 301 167.62 301 0 301 C0 201.67 0 102.34 0 0 Z " fill="#FEFEFE" transform="translate(2341,2993)"/>
</svg>
