<svg width="1800" height="1000" xmlns="http://www.w3.org/2000/svg" version="1.1">

 <g>
  <title>Layer 1</title>
  <path id="svg_1" fill="#095659" d="m1084,329c7.47758,-0.04695 14.95515,-0.08218 22.43284,-0.10362c3.47459,-0.01031 6.94908,-0.02422 10.42361,-0.04726c33.8824,-0.21847 67.86086,-0.13408 93.95605,24.52588c13.46748,14.06764 18.72555,34.04279 18.60913,53.09741c-0.49411,17.196 -7.04417,30.67312 -19.42163,42.52759c-5.63784,4.59908 -11.58366,8.57795 -18,12c1.09055,0.45826 1.09055,0.45826 2.20313,0.92578c18.11092,8.24279 28.50668,22.97607 35.79687,41.07422c1.57228,4.28716 2.88077,8.57371 4,13c0.22559,0.88043 0.45117,1.76086 0.68359,2.66797c4.57452,21.86302 1.63217,45.10062 -10.12109,64.14453c-9.01865,13.48927 -20.96168,22.28197 -37.0343,25.76267c-4.23803,0.71214 -8.42582,0.69449 -12.71375,0.66775c-0.97506,0.0019 -1.95013,0.0038 -2.95474,0.00575c-3.1929,0.00368 -6.38558,-0.00695 -9.57846,-0.0182c-2.22677,-0.00119 -4.45353,-0.00165 -6.6803,-0.00139c-4.64989,-0.00156 -9.29971,-0.00981 -13.94958,-0.02327c-5.97349,-0.01707 -11.9469,-0.02081 -17.92041,-0.02005c-4.58945,-0.00028 -9.17888,-0.00575 -13.76833,-0.01301c-2.20413,-0.00319 -4.40826,-0.00515 -6.6124,-0.00589c-3.06665,-0.00215 -6.13321,-0.01088 -9.19984,-0.0216c-0.91734,0.00046 -1.83468,0.00091 -2.77982,0.00138c-6.25609,-0.03216 -6.25609,-0.03216 -7.37057,-1.14664c-0.09678,-1.49086 -0.12372,-2.9863 -0.12305,-4.48029c-0.00199,-0.97386 -0.00398,-1.94772 -0.00603,-2.95109c0.00437,-1.62399 0.00437,-1.62399 0.00883,-3.28079c-0.00086,-1.14017 -0.00171,-2.28033 -0.00259,-3.45505c-0.00137,-3.1788 0.00178,-6.35755 0.00677,-9.53634c0.00431,-3.42265 0.00286,-6.84529 0.0021,-10.26794c-0.00052,-5.93463 0.00263,-11.86926 0.00824,-17.80389c0.00811,-8.58058 0.01073,-17.16116 0.01199,-25.74174c0.00219,-13.91999 0.00885,-27.83998 0.0183,-41.75997c0.00917,-13.52539 0.01625,-27.05078 0.02051,-40.57617c0.00026,-0.83311 0.00052,-1.66622 0.00079,-2.52457c0.00131,-4.17929 0.00257,-8.35857 0.00382,-12.53786c0.01037,-34.69477 0.02799,-69.38953 0.05032,-104.0843zm40,11c0,38.61 0,77.22 0,117c3.66027,1.83013 7.97077,1.22789 12,1.25c0.90879,0.02062 1.81758,0.04125 2.75391,0.0625c8.56676,0.04874 16.24961,-1.61893 23.55859,-6.25c0.77988,-0.4834 1.55977,-0.9668 2.36328,-1.46484c10.52833,-7.23713 16.2519,-17.92686 18.91016,-30.33203c2.67698,-21.11281 -0.8621,-43.78494 -13.58594,-61.26563c-9.38785,-11.7736 -21.76059,-16.48219 -36.1875,-18.58984c-4.16768,-0.51712 -4.16768,-0.51712 -9.8125,-0.41016zm0,129c0,42.9 0,85.8 0,130c15.89954,0 31.13885,-1.2191 43.49609,-12.22266c13.4239,-13.90883 16.81655,-34.06174 16.50391,-52.77734c-0.74289,-20.65305 -6.12052,-40.93097 -21,-56c-3.16215,-2.47735 -6.35433,-4.32527 -10,-6c-0.72187,-0.33773 -1.44375,-0.67547 -2.1875,-1.02344c-8.88887,-3.36419 -16.92285,-1.97656 -26.8125,-1.97656z"/>
  <path id="svg_2" fill="#095659" d="m516,329c18.81,0 37.62,0 57,0c11.31323,21.49514 11.31323,21.49514 15.20703,29.84766c4.22422,8.93699 8.56962,17.80844 12.99219,26.64843c0.30637,0.61247 0.61275,1.22493 0.92841,1.85595c1.86677,3.73009 3.73665,7.45863 5.60742,11.18672c1.61785,3.22524 3.23327,6.4517 4.84893,9.67804c3.13638,6.26222 6.27531,12.52315 9.41602,18.7832c4.74228,-7.66558 9.43378,-15.35293 14,-23.125c1.12872,-1.91547 2.25764,-3.83083 3.38672,-5.74609c0.58701,-0.99629 1.17401,-1.99257 1.77881,-3.01905c3.87507,-6.56916 7.76715,-13.12827 11.6582,-19.68798c3.15462,-5.31911 6.30674,-10.6396 9.44579,-15.96792c1.43805,-2.44061 2.87795,-4.88014 4.31797,-7.31959c1.00494,-1.70414 2.00723,-3.40983 3.00943,-5.11557c1.22347,-2.07174 2.4646,-4.13317 3.72583,-6.18213c1.70587,-2.7701 1.70587,-2.7701 2.92871,-5.58545c1.35989,-2.71153 2.35944,-4.36806 4.74854,-6.25122c5.16757,-1.09431 10.14683,-0.85174 15.375,-0.5625c1.41784,0.04519 2.83582,0.08625 4.25391,0.12305c3.45991,0.09875 6.91462,0.25377 10.37109,0.43945c-1.41025,3.77296 -3.14176,7.16504 -5.16016,10.64844c-0.62382,1.07951 -1.24765,2.15902 -1.89038,3.27124c-0.99592,1.71038 -0.99592,1.71038 -2.01196,3.45532c-0.69098,1.1914 -1.38182,2.38289 -2.07251,3.57446c-4.07531,7.02116 -8.19906,14.0102 -12.40015,20.95679c-3.3153,5.48935 -6.57324,11.01284 -9.83984,16.53125c-1.38921,2.34642 -2.77855,4.69276 -4.16797,7.03906c-0.35805,0.60466 -0.71609,1.20932 -1.08499,1.83231c-3.12719,5.28004 -6.25912,10.55726 -9.39446,15.83247c-2.02847,3.41321 -4.05422,6.82796 -6.07353,10.2466c-3.63219,6.14384 -7.28979,12.26376 -11.06811,18.31909c-0.9326,1.51437 -0.9326,1.51437 -1.88404,3.05933c-1.14055,1.8479 -2.29696,3.68614 -3.47216,5.5122c-0.49476,0.80784 -0.98952,1.61568 -1.49927,2.448c-0.43417,0.68659 -0.86835,1.37318 -1.31568,2.08057c-1.57692,5.20161 2.63425,11.06224 4.96778,15.66919c0.36301,0.72471 0.72602,1.44942 1.10003,2.19609c1.19875,2.39101 2.40306,4.77917 3.60724,7.16743c0.8456,1.6849 1.69077,3.37001 2.53554,5.05532c2.22984,4.44638 4.46411,8.89053 6.69969,13.33403c3.96834,7.8885 7.93068,15.78001 11.88977,23.67315c0.42597,0.8489 0.85193,1.69779 1.29081,2.57241c5.2828,10.53305 10.49176,21.09144 15.53164,31.7433c5.43351,11.46669 11.19281,22.77239 16.91754,34.09567c1.45988,2.88981 2.91493,5.78202 4.36939,8.67456c0.67007,1.31996 0.67007,1.31996 1.35368,2.66658c0.60743,1.20979 0.60743,1.20979 1.22713,2.44402c0.35765,0.70784 0.7153,1.41568 1.08379,2.14497c0.76118,1.75615 0.76118,1.75615 0.76118,3.75615c-18.81,0 -37.62,0 -57,0c-11.27795,-21.42811 -11.27795,-21.42811 -16.28076,-31.9136c-7.22856,-15.13808 -14.70606,-30.15052 -22.21924,-45.1489c-0.784,-1.5652 -0.784,-1.5652 -1.58383,-3.16202c-2.96932,-5.92653 -5.94124,-11.85176 -8.91617,-17.77548c-3.40393,5.03714 -6.72471,10.08304 -9.77734,15.34375c-0.32783,0.5626 -0.65566,1.12519 -0.99343,1.70483c-0.69718,1.19677 -1.39321,2.39421 -2.08812,3.59229c-1.87259,3.22766 -3.75489,6.44964 -5.6372,9.67163c-0.38083,0.65214 -0.76166,1.30429 -1.15403,1.9762c-3.56729,6.10021 -7.20046,12.15989 -10.84988,18.2113c-6.38473,10.58925 -12.64933,21.24577 -18.86719,31.93359c-0.68359,1.17188 -1.36718,2.34376 -2.05078,3.51563c-0.89368,1.5366 -0.89368,1.5366 -1.80542,3.10425c-0.58628,0.97235 -1.17256,1.94471 -1.77661,2.94653c-0.88571,1.65407 -0.88571,1.65407 -1.78931,3.34155c-2.21069,2.65845 -2.21069,2.65845 -5.4187,3.3396c-1.23589,-0.03142 -2.47178,-0.06284 -3.74511,-0.09521c-0.66023,-0.00849 -1.32045,-0.01698 -2.00068,-0.02573c-2.10042,-0.03348 -4.19695,-0.10872 -6.2962,-0.18521c-1.42703,-0.03011 -2.85412,-0.05748 -4.28125,-0.08203c-3.49084,-0.06601 -6.97942,-0.16948 -10.46875,-0.29297c0.62934,-2.99938 1.6058,-5.34392 3.125,-8c0.45053,-0.7902 0.90105,-1.58039 1.36523,-2.39453c0.74734,-1.28971 0.74734,-1.28971 1.50977,-2.60547c0.78601,-1.36705 0.78601,-1.36705 1.58789,-2.76172c4.87862,-8.42925 9.943,-16.74392 15.02149,-25.05347c4.58083,-7.49728 9.076,-15.03005 13.39062,-22.68481c4.27079,-7.56916 8.69939,-15.03279 13.22061,-22.45465c1.08548,-1.78481 2.16576,-3.57267 3.24497,-5.36127c3.24712,-5.36911 6.52219,-10.70768 9.96785,-15.95227c1.11031,-1.69536 2.2053,-3.39964 3.29582,-5.10779c1.35451,-2.11248 2.73754,-4.20704 4.15283,-6.27929c0.60223,-0.95165 1.20447,-1.9033 1.82495,-2.88379c0.54117,-0.81678 1.08233,-1.63357 1.63989,-2.4751c1.76447,-8.06709 -6.1495,-18.85514 -9.68847,-25.88013c-0.63322,-1.26422 -1.26607,-2.52862 -1.89859,-3.79319c-1.35356,-2.70421 -2.70962,-5.40714 -4.06769,-8.10907c-2.15232,-4.2822 -4.29883,-8.56729 -6.44463,-12.85276c-3.39788,-6.78441 -6.79949,-13.56695 -10.20278,-20.34866c-6.08767,-12.13096 -12.17089,-24.26415 -18.24986,-36.39948c-2.12902,-4.2497 -4.26029,-8.49828 -6.39344,-12.74592c-1.33226,-2.65377 -2.66282,-5.30838 -3.993,-7.96319c-0.90054,-1.79601 -1.80313,-3.591 -2.70581,-5.38593c-9.70265,-19.37847 -9.70265,-19.37847 -9.70265,-22.50751z"/>
  <path id="svg_3" fill="#095659" d="m1545,329c12.54,0 25.08,0 38,0c0.33,67.65 0.66,135.3 1,205c5.61,-5.28 11.22,-10.56 17,-16c6.3125,-5.8125 6.3125,-5.8125 9.2229,-8.4082c2.82753,-2.55634 2.82753,-2.55634 5.3335,-5.48047c4.83104,-5.19545 8.52119,-8.64028 15.80256,-9.15434c3.81245,-0.05287 7.5869,0.12196 11.39104,0.35551c1.58316,0.05531 3.16651,0.10548 4.75,0.15039c3.83808,0.11989 7.6669,0.3088 11.5,0.53711c-0.75305,0.75233 -1.50611,1.50466 -2.28198,2.27979c-2.07428,2.07595 -4.14315,4.15667 -6.2063,6.24365c-11.78745,11.88551 -11.78745,11.88551 -17.61719,16.80078c-3.34266,2.9567 -6.41585,6.18965 -9.55078,9.36328c-2.66224,2.62674 -5.41055,4.99682 -8.34375,7.3125c1.24678,4.57154 3.7671,6.9536 7.08203,10.125c2.49983,2.44383 4.75293,5.06149 7.03516,7.70703c2.09856,2.4164 4.23721,4.79326 6.38281,7.16797c3.26391,3.61676 6.48791,7.2639 9.6875,10.9375c2.08461,2.37214 4.19679,4.71806 6.3125,7.0625c3.25967,3.61207 6.48229,7.2518 9.67188,10.92578c2.88534,3.27376 5.85097,6.47482 8.8125,9.67969c1.98129,2.35374 3.46638,4.74447 5.01562,7.39453c-7.24018,0.22914 -14.47942,0.38619 -21.72241,0.49438c-2.46097,0.04513 -4.9217,0.10644 -7.38184,0.18458c-3.54788,0.10981 -7.09256,0.16035 -10.64184,0.19995c-1.09099,0.04645 -2.18197,0.0929 -3.30602,0.14076c-6.26519,0.00409 -9.46664,-0.84614 -13.98891,-5.32045c-1.34911,-1.54112 -2.67064,-3.10696 -3.95898,-4.69922c-1.196,-1.35831 -2.39466,-2.71429 -3.59766,-4.06641c-0.83942,-0.9767 -0.83942,-0.9767 -1.6958,-1.97314c-2.95068,-3.3897 -6.05452,-6.63519 -9.14404,-9.89795c-5.29883,-5.59782 -10.43783,-11.29724 -15.5625,-17.0625c-0.33,13.86 -0.66,27.72 -1,42c-12.54,0 -25.08,0 -38,0c0,-92.4 0,-184.8 0,-280z"/>
  <path id="svg_4" fill="#095659" d="m868,329c12.87,0 25.74,0 39,0c0,92.4 0,184.8 0,280c-12.87,0 -25.74,0 -39,0c0,-92.4 0,-184.8 0,-280z"/>
  <path id="svg_5" fill="#095659" d="m1020,504c0.495,0.495 0.495,0.495 1,1c0.33,-2.97 0.66,-5.94 1,-9c11.55,0 23.1,0 35,0c0,58.08 0,116.16 0,176c-11.55,0 -23.1,0 -35,0c-0.33,-24.09 -0.66,-48.18 -1,-73c-2.31,1.98 -4.62,3.96 -7,6c-2.69531,1.42578 -2.69531,1.42578 -5.125,2.3125c-0.80695,0.30551 -1.61391,0.61102 -2.44531,0.92578c-14.28457,4.47828 -30.33006,1.17808 -43.70703,-4.78125c-4.3405,-2.32282 -7.99991,-5.26304 -11.72266,-8.45703c-0.81598,-0.61746 -1.63195,-1.23492 -2.47266,-1.87109c-8.14234,-6.8587 -13.13198,-16.19961 -16.52734,-26.12891c-0.43313,-1.2375 -0.86625,-2.475 -1.3125,-3.75c-2.90806,-13.58037 -0.54816,-27.21682 6.5625,-39.0625c10.45669,-15.26411 27.39147,-25.06041 45.42187,-28.71875c14.482,-2.03972 25.29725,0.41344 37.32813,8.53125zm-39.75,7.4375c-10.62486,16.37392 -10.51684,40.25671 -7.0625,58.875c0.55296,2.24242 1.15519,4.47342 1.8125,6.6875c0.32871,1.13438 0.65742,2.26875 0.99609,3.4375c2.67,7.98227 6.65002,13.99392 13.00391,19.5625c5.3183,1.77277 10.0383,1.72212 15.125,-0.5625c7.48155,-4.18086 11.84718,-11.47376 14.55322,-19.43213c0.57139,-2.05467 1.06038,-4.10802 1.50928,-6.19287c0.16581,-0.76756 0.33161,-1.53511 0.50244,-2.32593c3.57105,-17.875 5.39362,-41.8249 -5.15478,-57.68969c-4.56594,-5.80143 -10.37709,-9.73132 -17.67188,-11.23829c-7.71703,-0.46999 -13.09502,2.95411 -17.61328,8.87891z"/>
  <path id="svg_6" fill="#095659" d="m1505,502c7.86017,7.19205 11.60776,14.2082 12.08809,24.97449c0.03406,2.17774 0.03573,4.35314 0.02544,6.53113c0.00014,0.82032 0.00029,1.64064 0.00044,2.48582c-0.00069,2.68908 -0.00845,5.37809 -0.01631,8.06715c-0.00187,1.8733 -0.00329,3.7466 -0.00429,5.61989c-0.00381,4.91381 -0.01362,9.82759 -0.02471,14.74138c-0.01206,5.9047 -0.01662,11.8094 -0.02245,17.7141c-0.00967,8.95537 -0.02884,17.91067 -0.04621,26.86604c-12.54,0 -25.08,0 -38,0c-1.12471,-12.37186 -1.12471,-12.37186 -1.09766,-18.37646c0.00219,-0.98059 0.00219,-0.98059 0.00443,-1.98098c0.00375,-1.39559 0.00981,-2.79118 0.01807,-4.18676c0.01299,-2.22239 0.01933,-4.44471 0.02413,-6.66713c0.01324,-5.51718 0.03743,-11.03429 0.06141,-16.55143c0.0199,-4.67719 0.03547,-9.35437 0.04556,-14.0316c0.00637,-2.16497 0.01888,-4.32985 0.03171,-6.49479c0.73632,-15.97049 0.73632,-15.97049 -4.08765,-30.71085c0,-0.66 0,-1.32 0,-2c-6.73762,-3.48498 -13.9354,-4.39423 -21.35547,-2.35156c-5.7066,2.58287 -9.87068,6.86495 -12.70126,12.42863c-1.24588,3.86063 -1.25134,7.55432 -1.26212,11.56868c-0.01507,1.28857 -0.01507,1.28857 -0.03044,2.60317c-0.03081,2.82978 -0.04786,5.65947 -0.06477,8.48936c-0.01872,1.96585 -0.03829,3.93168 -0.05869,5.89751c-0.0513,5.16695 -0.09094,10.33392 -0.12814,15.50099c-0.0471,6.20342 -0.10869,12.40671 -0.16785,18.61002c-0.08819,9.41768 -0.15797,18.83534 -0.23126,28.2532c-12.87,0 -25.74,0 -39,0c0,-37.29 0,-74.58 0,-113c12.87,0 25.74,0 39,0c0.495,1.98 0.495,1.98 1,4c0.49629,-0.26555 0.99258,-0.53109 1.50391,-0.80469c18.26197,-9.49484 47.41577,-9.97782 64.49609,2.80469z"/>
  <path id="svg_7" fill="#095659" d="m1363,506c4.04649,3.96374 6.93694,7.0026 7.12025,12.80911c0.00292,1.68228 0.00021,3.36458 -0.00672,5.04685c0.00014,0.91712 0.00029,1.83425 0.00044,2.77917c-0.0007,3.04092 -0.00849,6.08178 -0.01631,9.12268c-0.00187,2.10465 -0.00329,4.20929 -0.00429,6.31394c-0.00382,5.54681 -0.01365,11.0936 -0.02471,16.64041c-0.01021,5.65714 -0.01479,11.31429 -0.01983,16.97143c-0.01074,11.10549 -0.02833,22.21094 -0.04883,33.31641c-12.54,0 -25.08,0 -38,0c-0.33,-1.32 -0.66,-2.64 -1,-4c-0.67547,0.27715 -1.35094,0.5543 -2.04688,0.83984c-1.33804,0.54334 -1.33804,0.54334 -2.70312,1.09766c-0.88172,0.35965 -1.76344,0.7193 -2.67188,1.08984c-12.19699,4.6016 -29.89967,3.80397 -41.99218,-0.83203c-0.85336,-0.39445 -1.70672,-0.7889 -2.58594,-1.19531c-1.2491,-0.56074 -1.2491,-0.56074 -2.52344,-1.13281c-9.25888,-4.64483 -14.61498,-11.34089 -18.47656,-20.86719c-2.84393,-8.62236 -1.75372,-19.43594 1.75391,-27.64062c5.53489,-10.47987 15.8383,-15.89103 26.73828,-19.63282c12.36719,-3.58301 28.53701,-3.53252 40.50781,1.27344c1.66662,0.66677 3.33329,1.33345 5,2c-0.05235,-3.66779 -0.14753,-7.3333 -0.25,-11c-0.01418,-1.02996 -0.02836,-2.05992 -0.04297,-3.12109c-0.2029,-6.37117 -0.79266,-11.66956 -4.70703,-16.87891c-5.13775,-4.35198 -11.54048,-3.73396 -17.9209,-3.25879c-6.26939,0.78036 -12.18803,3.07084 -18.0791,5.25879c-0.74653,0.27248 -1.49306,0.54495 -2.26221,0.82568c-4.59688,1.68036 -9.17329,3.408 -13.73779,5.17432c-1.5625,-2.8125 -1.5625,-2.8125 -3,-6c1,-3 1,-3 2.73975,-4.01147c0.75361,-0.29399 1.50723,-0.58798 2.28369,-0.89087c0.84586,-0.33129 1.69173,-0.66258 2.56323,-1.00391c25.67176,-9.49457 59.67,-17.52206 83.41333,0.90625zm-59.48828,42.67578c-5.88077,7.74861 -9.46258,19.35149 -8.89063,29.14844c1.48946,8.55285 4.87321,15.38031 11.37891,21.17578c4.42581,2.95054 7.72011,3.62643 13,3c5.14467,-1.70036 9.65981,-3.61168 13,-8c0.63738,-3.11471 0.63198,-6.1957 0.63672,-9.36719c0.01094,-0.91234 0.02188,-1.82469 0.03316,-2.76468c0.01585,-1.92815 0.02106,-3.85642 0.0164,-5.78463c0.00121,-2.94251 0.06096,-5.88004 0.12427,-8.82178c0.00814,-1.87629 0.01281,-3.7526 0.01367,-5.62891c0.02358,-0.87518 0.04716,-1.75036 0.07146,-2.65207c-0.0538,-3.5951 -0.10674,-6.01171 -2.42824,-8.86313c-5.72055,-4.98597 -10.52739,-6.57627 -18.10807,-6.35198c-4.17955,0.41518 -6.09982,1.81614 -8.84765,4.91015z"/>
  <path id="svg_8" fill="#095659" d="m829.02734,504.28516c4.1688,3.62396 8.20407,7.40908 9.97266,12.71484c0.09164,2.93673 0.12595,5.8493 0.11352,8.78589c0.00015,0.89777 0.00029,1.79554 0.00044,2.72051c-0.00069,2.97055 -0.00848,5.94103 -0.01631,8.91157c-0.00186,2.05838 -0.00329,4.11675 -0.00429,6.17513c-0.00382,5.42021 -0.01364,10.8404 -0.0247,16.2606c-0.01022,5.52989 -0.0148,11.05977 -0.01984,16.58966c-0.01072,10.85223 -0.02832,21.70443 -0.04882,32.55664c-12.54,0 -25.08,0 -38,0c-0.33,-1.32 -0.66,-2.64 -1,-4c-0.94102,0.34934 -1.88204,0.69868 -2.85157,1.0586c-1.25771,0.45991 -2.51553,0.91953 -3.77343,1.3789c-1.22977,0.45246 -2.45953,0.90493 -3.72657,1.3711c-15.04607,4.91333 -31.10872,2.28053 -45.08593,-4.5586c-10.14011,-5.22278 -15.92603,-11.34059 -19.5625,-22.25c-0.92645,-12.52975 0.72758,-21.97707 8.89062,-31.83203c7.62848,-7.84037 18.23547,-14.61492 29.44019,-15.31323c2.78568,-0.02475 5.57088,-0.0404 8.35669,-0.04224c0.95584,-0.01224 1.91168,-0.02449 2.89648,-0.03711c9.84322,-0.02012 17.57992,1.92145 26.41602,6.22461c-0.08203,-3.31342 -0.19476,-6.62516 -0.3125,-9.9375c-0.02256,-0.92619 -0.04512,-1.85238 -0.06836,-2.80664c-0.27772,-7.19546 -0.83096,-14.46767 -6.11914,-19.75586c-5.9243,-3.55457 -12.7877,-3.46299 -19.44971,-2.10156c-10.89878,2.73588 -21.50358,6.76039 -32.05029,10.60156c-1.1401,-2.41431 -2.01592,-4.31933 -1.95288,-7.01513c0.95288,-1.98487 0.95288,-1.98487 3.66162,-3.3252c1.18795,-0.38527 2.3759,-0.77054 3.59985,-1.16748c0.64075,-0.21156 1.2815,-0.42311 1.94167,-0.64108c1.3619,-0.44623 2.72643,-0.88451 4.09324,-1.31546c2.06003,-0.64993 4.11135,-1.32268 6.16236,-2.00049c21.20814,-6.93177 49.23607,-11.41667 68.52148,2.75zm-58.02344,45.96094c-7.22206,9.86464 -8.16757,19.88803 -7.0039,31.7539c1.82693,7.90941 7.32822,14.55215 14,19c5.87667,1.9589 9.76112,1.32823 15.25,-1.3125c3.05999,-1.58226 5.53768,-3.0293 7.75,-5.6875c0.48381,-1.9446 0.48381,-1.9446 0.46753,-4.10083c0.02559,-0.82128 0.05119,-1.64255 0.07756,-2.48872c0.00961,-0.88439 0.01922,-1.76879 0.02912,-2.67998c0.01473,-0.91376 0.02946,-1.82752 0.04464,-2.76896c0.02395,-1.93411 0.03937,-3.86833 0.04692,-5.80257c0.02158,-2.95159 0.10174,-5.89795 0.18384,-8.84839c0.01599,-1.88083 0.02848,-3.7617 0.0371,-5.64258c0.03188,-0.87832 0.06376,-1.75664 0.09661,-2.66157c-0.04091,-3.74296 -0.1176,-6.06387 -2.71437,-8.89101c-9.11844,-6.99688 -19.97443,-9.19827 -28.26505,0.13071z"/>
  <path id="svg_9" fill="#095659" d="m393,385c-3.47917,2.86987 -7.33954,4.74147 -11.375,6.6875c-23.84111,11.75563 -45.9094,26.52583 -65.15283,44.90771c-0.98824,0.94301 -1.9815,1.88079 -2.97949,2.81348c-37.68047,35.28383 -48.50277,88.85664 -50.49268,138.59131c-0.23944,10.33037 -0.13476,20.66892 0,31c-2,-1 -2,-1 -2.77441,-2.97998c-0.2446,-0.87028 -0.4892,-1.74056 -0.74122,-2.63721c-0.27867,-0.98524 -0.55735,-1.97049 -0.84448,-2.98559c-0.29366,-1.07983 -0.58733,-2.15967 -0.88989,-3.27222c-0.3072,-1.12044 -0.6144,-2.24087 -0.93091,-3.39526c-11.57586,-42.91985 -25.23273,-97.47796 -1.70581,-138.7649c2.95052,-4.63653 6.29878,-8.81114 9.88672,-12.96484c0.55301,-0.68578 1.10602,-1.37156 1.67578,-2.07812c25.55142,-30.97882 70.73419,-44.8398 108.38672,-52.85938c0.9933,-0.21181 1.98661,-0.42362 3.01001,-0.64185c5.07668,-1.02511 9.74909,-1.65766 14.92749,-1.42065z"/>
  <path id="svg_10" fill="#095659" d="m67,385c13.02516,0.05179 25.48712,3.73676 38,7c1.20825,0.30962 1.20825,0.30962 2.44092,0.62549c35.83452,9.30172 76.60854,28.69265 96.7063,61.25708c7.60548,12.95351 11.93559,27.22937 12.09106,42.25024c0.00989,0.78074 0.01977,1.56147 0.02995,2.36586c0.34973,34.93554 -5.29873,68.4631 -14.89714,102.02086c-0.30888,1.10344 -0.30888,1.10344 -0.624,2.22917c-0.52038,1.76985 -1.12634,3.51411 -1.74709,5.2513c-0.66,0.33 -1.32,0.66 -2,1c0.01047,-0.63051 0.02095,-1.26103 0.03174,-1.91064c0.84143,-59.37961 -6.06102,-121.66611 -49.03174,-166.08936c-0.87398,-0.92555 -1.74797,-1.85109 -2.64844,-2.80469c-6.92173,-7.16531 -14.3738,-13.27165 -22.35156,-19.19531c-0.96269,-0.72123 -0.96269,-0.72123 -1.94482,-1.45703c-16.85746,-12.54893 -35.17007,-22.41171 -54.05518,-31.54297c0,-0.33 0,-0.66 0,-1z"/>
  <path id="svg_11" fill="#095659" d="m100,329c4.23977,3.12653 8.38739,6.3182 12.4375,9.6875c39.23767,31.33069 89.17881,46.86555 139.14844,41.85156c30.8134,-3.99972 62.37765,-17.31429 87.41406,-35.53906c1.0248,-0.74121 2.04961,-1.48242 3.10547,-2.24609c5.87436,-4.32733 11.5104,-8.82902 16.89453,-13.75391c0.33,0.99 0.66,1.98 1,3c-1.71716,2.33304 -3.44009,4.42216 -5.375,6.5625c-0.82613,0.93719 -0.82613,0.93719 -1.66895,1.89331c-1.64184,1.85744 -3.29698,3.70214 -4.95605,5.54419c-1.2491,1.39992 -1.2491,1.39992 -2.52344,2.82813c-1.45886,1.62777 -2.92351,3.25039 -4.39453,4.86718c-1.39378,1.54283 -2.7714,3.10041 -4.13281,4.67188c-3.67704,4.24109 -7.4236,8.08941 -11.71484,11.70703c-2.65789,2.2908 -5.18361,4.70384 -7.73438,7.11328c-11.35313,10.51681 -23.96381,19.34388 -37.5,26.8125c-0.58491,0.32339 -1.16982,0.64679 -1.77246,0.97998c-23.0319,12.54359 -48.46148,17.23751 -73.94922,9.75195c-26.85826,-8.62849 -51.40243,-26.09253 -70.87207,-46.32568c-1.51701,-1.57596 -1.51701,-1.57596 -3.90625,-3.34375c-2.8004,-2.31033 -5.0004,-4.84095 -7.35156,-7.59766c-2.12452,-2.4374 -4.30957,-4.80223 -6.51831,-7.16284c-15.63013,-16.72066 -15.63013,-16.72066 -15.63013,-21.302z"/>
  <path id="svg_12" fill="#095659" d="m1696,496c12.54,0 25.08,0 38,0c0,37.29 0,74.58 0,113c-12.54,0 -25.08,0 -38,0c0,-37.29 0,-74.58 0,-113z"/>
  <path id="svg_13" fill="#095659" d="m1403.41797,638.84766c10.76356,-0.37953 20.33456,1.99416 28.58203,9.15234c7.9241,8.32494 10.93962,16.88062 11.125,28.3125c-0.125,3.6875 -0.125,3.6875 -1.125,5.6875c-17.82,0.33 -35.64,0.66 -54,1c4.09995,7.17491 6.13595,10.17714 13.6875,12.8125c7.90224,2.13701 14.56849,1.07618 21.71875,-2.77734c1.76512,-1.06796 1.76512,-1.06796 3.59375,-3.03516c0.99,0 1.98,0 3,0c2.04297,2.1875 2.04297,2.1875 4.1875,5c0.71543,0.92813 1.43086,1.85625 2.16797,2.8125c0.5427,0.72188 1.08539,1.44375 1.64453,2.1875c-2.25045,5.12059 -6.18353,7.79294 -11.21484,9.94922c-12.73157,4.46149 -26.17642,4.34064 -38.59375,-1.20312c-8.36572,-4.67309 -14.23522,-10.89221 -17.47266,-19.97656c-3.03913,-11.71058 -1.98783,-22.75782 3.75,-33.38282c5.68455,-8.86035 13.48054,-13.47715 23.53125,-16.19922c1.80602,-0.11287 3.61201,-0.22606 5.41797,-0.33984zm-11.41797,20.15234c-3.081,3.91371 -4.00196,6.0098 -5,11c12.87,0 25.74,0 39,0c-2.03979,-7.13925 -3.60776,-10.86141 -9.875,-14.8125c-9.00016,-3.42006 -16.67083,-2.28636 -24.125,3.8125z"/>
  <path id="svg_14" fill="#095659" d="m1262.73828,643.95703c6.74242,5.72764 9.76984,10.33053 11.26172,19.04297c0.08264,1.71759 0.11788,3.4379 0.11352,5.15747c-0.00011,1.50099 -0.00011,1.50099 -0.00022,3.0323c-0.00517,1.06788 -0.01033,2.13577 -0.01564,3.23601c-0.00142,1.10273 -0.00283,2.20546 -0.00429,3.3416c-0.00559,3.51507 -0.01814,7.03007 -0.03087,10.54512c-0.00502,2.38607 -0.00958,4.77213 -0.01367,7.1582c-0.01102,5.84313 -0.02827,11.6862 -0.04883,17.5293c-5.61,0 -11.22,0 -17,0c-0.02973,-1.79232 -0.02973,-1.79232 -0.06006,-3.62085c-0.07654,-4.46749 -0.16518,-8.93467 -0.25732,-13.40186c-0.0381,-1.92702 -0.07298,-3.85411 -0.1045,-5.78125c-0.04608,-2.78303 -0.104,-5.56562 -0.16406,-8.34838c-0.01155,-0.85038 -0.0231,-1.70075 -0.035,-2.57689c-0.18803,-7.76134 -0.53536,-15.59895 -6.37906,-21.27077c-4.91597,-3.07113 -10.40969,-2.58614 -16,-2c-5.36843,1.67823 -8.35897,5.12426 -11,10c-0.87389,2.8387 -1.14433,5.43869 -1.20532,8.40137c-0.01995,0.86059 -0.03989,1.72118 -0.06044,2.60785c-0.02507,1.37989 -0.02507,1.37989 -0.05065,2.78765c-0.02078,0.94877 -0.04156,1.89754 -0.06297,2.87506c-0.0653,3.02595 -0.12429,6.05199 -0.18312,9.07807c-0.04321,2.05339 -0.08682,4.10678 -0.13086,6.16016c-0.10698,5.02986 -0.2083,10.0598 -0.30664,15.08984c-5.94,0 -11.88,0 -18,0c0,-24.09 0,-48.18 0,-73c5.61,0 11.22,0 17,0c0.33,2.31 0.66,4.62 1,7c1.02094,-0.89719 1.02094,-0.89719 2.0625,-1.8125c10.95929,-8.16117 28.36009,-9.31772 39.67578,-1.23047z"/>
  <path id="svg_15" fill="#095659" d="m1588.91406,639.73047c5.35184,3.25721 9.16047,6.14059 11.08594,12.26953c0.90508,8.0752 -0.23905,13.37132 -5.1875,19.875c-0.59813,0.70125 -1.19625,1.4025 -1.8125,2.125c0.55687,0.20625 1.11375,0.4125 1.6875,0.625c4.0873,2.43029 6.81712,5.88886 8.3125,10.375c0.74205,6.84876 0.11274,12.35863 -4,18c-6.52119,7.28062 -14.5313,9.55244 -24.08594,10.125c-9.44394,0.26509 -19.35645,-1.27135 -26.67188,-7.66015c-4.47536,-4.74562 -6.05715,-9.2461 -6.33984,-15.69141c0.26807,-6.24076 2.81204,-10.32791 7.09766,-14.77344c0.99,-0.66 1.98,-1.32 3,-2c-0.78375,-0.88687 -1.5675,-1.77375 -2.375,-2.6875c-4.09744,-5.00281 -5.15908,-9.30726 -4.9961,-15.75c0.749,-5.172 3.24109,-8.84362 7.27344,-12.09765c10.52099,-6.92649 25.51292,-8.28755 37.01172,-2.73438zm-27.91406,13.26953c-1.95798,3.60267 -2.20162,5.20904 -1.1875,9.1875c3.10915,3.99749 6.26619,5.00522 11.1875,5.8125c4.58247,0.17796 7.95651,-0.43478 12,-2.625c2.68766,-3.19159 3.07284,-5.22282 3,-9.375c-2.14174,-3.56957 -4.17905,-5.45391 -8,-7c-6.53429,-0.84886 -12.06592,-0.80757 -17,4zm-1.8125,30.25c-1.96991,2.90302 -2.12866,5.27828 -2.1875,8.75c1.82323,4.12209 3.71846,6.17048 7.8125,7.875c6.28524,1.96705 12.08722,1.6103 18.1875,-0.875c3.12454,-2.53426 4.83985,-5.01912 5.5,-9.0625c-0.5879,-3.45392 -1.24179,-5.24222 -3.5,-7.9375c-8.49006,-5.12941 -17.79874,-4.27673 -25.8125,1.25z"/>
  <path id="svg_16" fill="#095659" d="m1145,645c-1.4917,4.97234 -3.60457,9.41846 -6,14c-4,-1.33333 -8,-2.66667 -12,-4c-2.80519,-0.14854 -5.56922,-0.23104 -8.375,-0.25c-1.13309,-0.03094 -1.13309,-0.03094 -2.28906,-0.0625c-4.55578,-0.03186 -7.70918,0.2294 -11.33594,3.3125c-0.41747,3.12635 -0.41747,3.12635 0,6c6.85779,3.33285 13.90455,4.52377 21.375,5.8418c7.912,1.56048 14.59222,4.2983 19.6875,10.7832c1.72413,6.20685 1.80278,12.50876 -0.0625,18.6875c-6.06552,8.15055 -12.67838,11.42318 -22.4375,13.375c-13.81972,1.21226 -27.54808,-0.38065 -39.5625,-7.6875c1.46032,-5.31027 3.98321,-9.4633 7,-14c1.32064,0.524 1.32064,0.524 2.66797,1.05859c1.16144,0.45504 2.32289,0.91008 3.51953,1.37891c1.14855,0.45246 2.29711,0.90492 3.48047,1.37109c9.02282,3.22622 19.29976,3.55225 28.33203,0.19141c0,-2.64 0,-5.28 0,-8c-1.05743,-0.19578 -1.05743,-0.19578 -2.13623,-0.39551c-3.24833,-0.60763 -6.49346,-1.23095 -9.73877,-1.85449c-1.10859,-0.20496 -2.21719,-0.40992 -3.35938,-0.62109c-19.02541,-3.69317 -19.02541,-3.69317 -24.64062,-11.22266c-3.58967,-6.0825 -3.44171,-11.5528 -1.9375,-18.35937c1.75711,-5.50786 5.23072,-8.38138 10,-11.29688c14.41831,-7.38731 33.81034,-5.78962 47.8125,1.75z"/>
  <path id="svg_17" fill="#095659" d="m1349.75,644.94141c3.24501,2.82379 5.85975,5.47322 8.25,9.05859c-0.03516,1.98438 -0.03516,1.98438 -1,4c-2.43359,1.70313 -2.43359,1.70313 -5.4375,3.25c-0.98871,0.52078 -1.97742,1.04157 -2.99609,1.57813c-2.56641,1.17187 -2.56641,1.17187 -4.56641,1.17187c-0.5775,-0.76312 -1.155,-1.52625 -1.75,-2.3125c-3.68411,-4.40046 -7.56807,-5.76134 -13.125,-6.5625c-6.49084,-0.46851 -10.9385,1.07722 -15.9375,5.1875c-5.06325,6.22056 -5.77923,11.42162 -5.60547,19.26563c0.76334,6.24942 3.54529,9.68296 8.04297,13.85937c5.32409,3.5027 11.21689,3.13154 17.375,2.5625c4.76576,-1.45998 8.46821,-3.56936 11,-8c3.99012,0.5599 6.52551,1.7567 9.8125,4.0625c0.7902,0.54786 1.58039,1.09571 2.39453,1.66016c0.59168,0.42152 1.18336,0.84305 1.79297,1.27734c-2.97304,7.85732 -6.86084,11.49737 -14.38672,14.96485c-11.76899,4.66185 -23.50614,3.8898 -35.13281,-1.03125c-9.14582,-4.72093 -14.75579,-11.36024 -18.48047,-20.9336c-2.62077,-10.13474 -2.08804,-22.00831 3.25391,-31.14453c6.61066,-9.42065 14.54764,-14.71674 25.62109,-17.60547c10.8673,-0.86938 21.59983,-0.85654 30.875,5.69141z"/>
  <path id="svg_18" fill="#095659" d="m1687,638c15.51,0 31.02,0 47,0c0,4.29 0,8.58 0,13c-11.55,0 -23.1,0 -35,0c0,3.3 0,6.6 0,10c-0.5,3.125 -0.5,3.125 -1,5c0.9668,-0.0348 1.93359,-0.06961 2.92969,-0.10547c10.34161,-0.21502 19.78447,0.16849 28.07031,7.10547c4.97196,5.7826 6.44816,10.66446 6.33594,18.27344c-0.80372,6.52315 -3.93003,11.97164 -8.96094,16.16406c-8.90836,5.89991 -19.32905,6.64973 -29.64062,5.05859c-6.98265,-1.42088 -12.76782,-3.59547 -18.73438,-7.49609c0.78742,-4.7991 2.49517,-7.87915 5,-12c3.02877,0.65932 5.63715,1.6799 8.4375,3c6.24444,2.80695 12.73903,4.30416 19.52734,2.46875c3.6948,-1.4373 6.28508,-2.86564 8.03516,-6.46875c0.65409,-3.84279 0.35086,-5.44865 -1.75,-8.75c-9.12415,-6.31672 -23.46962,-4.82149 -34.25,-5.25c0.28459,-3.85472 0.57906,-7.70863 0.875,-11.5625c0.07863,-1.0667 0.15727,-2.1334 0.23828,-3.23242c0.65848,-8.4842 1.75735,-16.7348 2.88672,-25.20508z"/>
  <path id="svg_19" fill="#095659" d="m1609,638c18.81,0 37.62,0 57,0c0,13.78614 0,13.78614 -3.58594,21.14844c-0.5595,1.21878 -0.5595,1.21878 -1.13031,2.46219c-1.19864,2.59847 -2.428,5.18097 -3.65875,7.76437c-0.83014,1.7848 -1.65809,3.57061 -2.48389,5.35742c-1.62243,3.50309 -3.25601,7.00056 -4.90088,10.49317c-2.8523,6.06287 -5.61146,12.16621 -8.36523,18.27441c-1.28922,2.83445 -2.58206,5.66724 -3.875,8.5c-4.95,0 -9.9,0 -15,0c0.86348,-5.18089 2.17689,-9.14373 4.31641,-13.82812c0.33474,-0.74788 0.66949,-1.49576 1.01439,-2.2663c1.07069,-2.3882 2.15093,-4.77193 3.2317,-7.15558c0.69922,-1.55439 1.39779,-3.10908 2.0957,-4.66406c1.39615,-3.10884 2.79578,-6.21606 4.19776,-9.32227c3.41412,-7.5733 6.77541,-15.17005 10.14404,-22.76367c-12.87,-0.495 -12.87,-0.495 -26,-1c0,3.96 0,7.92 0,12c-4.29,0 -8.58,0 -13,0c0,-8.25 0,-16.5 0,-25z"/>
  <path id="svg_20" fill="#095659" d="m1495,638c9.9,0 19.8,0 30,0c0.02255,9.50075 0.04092,19.00148 0.05181,28.50224c0.00523,4.41113 0.01233,8.82224 0.02363,13.23336c0.01083,4.25341 0.01684,8.50681 0.01944,12.76024c0.00185,1.62638 0.00547,3.25276 0.01085,4.87913c0.00721,2.27013 0.00826,4.54019 0.0078,6.81033c0.00222,1.29462 0.00444,2.58924 0.00672,3.92308c-0.12025,2.89162 -0.12025,2.89162 -1.12025,3.89162c-2.16481,0.09893 -4.33294,0.12971 -6.5,0.125c-1.18594,0.00258 -2.37187,0.00516 -3.59375,0.00781c-2.90625,-0.13281 -2.90625,-0.13281 -3.90625,-1.13281c-0.09386,-1.87181 -0.11744,-3.74718 -0.11353,-5.62134c0.00008,-1.20117 0.00016,-2.40234 0.00023,-3.63991c0.00516,-1.30726 0.01033,-2.61453 0.01564,-3.96141c0.00187,-1.34378 0.00329,-2.68757 0.00429,-4.03135c0.00383,-3.54281 0.01366,-7.08558 0.02471,-10.62838c0.01021,-3.61276 0.01479,-7.22554 0.01983,-10.83831c0.01074,-7.09312 0.02833,-14.1862 0.04883,-21.2793c-4.95,0 -9.9,0 -15,0c0,-4.29 0,-8.58 0,-13z"/>
  <path id="svg_21" fill="#095659" d="m1725.875,446.6875c4.23499,3.13389 6.46601,6.33552 8.125,11.3125c0.50749,6.21674 0.77198,11.76789 -3,17c-6.4647,6.34499 -10.37711,7.35598 -19.50391,7.28125c-5.86175,-0.47156 -8.7019,-2.43857 -12.80859,-6.65625c-3.5229,-5.48007 -4.05167,-9.87469 -3.22266,-16.23047c1.37207,-6.13927 5.5973,-9.83927 10.53516,-13.39453c6.25731,-3.12866 13.70395,-2.48429 19.875,0.6875z"/>
  <path id="svg_22" fill="#095659" d="m1165,658c5.94,0 11.88,0 18,0c0,18.15 0,36.3 0,55c-5.94,0 -11.88,0 -18,0c0,-18.15 0,-36.3 0,-55z"/>
  <path id="svg_23" fill="#095659" d="m1180,634c3.0625,2 3.0625,2 5,5c0.9427,4.64619 0.6479,7.92761 -1.8125,12c-3.45012,3.15439 -6.60762,3.2861 -11.1875,3.21875c-2.95447,-0.32315 -4.72484,-1.34509 -7,-3.21875c-2.5719,-3.4292 -2.50214,-6.83939 -2,-11c4.14761,-7.14666 9.48805,-7.86812 17,-6z"/>
 </g>
</svg>